<?xml version="1.0" standalone="no"?>
<!DOCTYPE svg PUBLIC "-//W3C//DTD SVG 20010904//EN"
 "http://www.w3.org/TR/2001/REC-SVG-20010904/DTD/svg10.dtd">
<svg version="1.0" xmlns="http://www.w3.org/2000/svg"
 width="1080.000000pt" height="1080.000000pt" viewBox="0 0 1080.000000 1080.000000"
 preserveAspectRatio="xMidYMid meet">
<metadata>
Created by potrace 1.11, written by Peter Selinger 2001-2013
</metadata>
<g transform="translate(0.000000,1080.000000) scale(0.100000,-0.100000)"
fill="#000000" stroke="none">
<path d="M1 8928 c1 -1610 3 -1869 15 -1841 7 17 30 44 51 60 21 15 75 59 121
96 46 38 85 67 87 66 2 -2 21 -112 44 -244 47 -277 53 -308 80 -430 11 -49 31
-189 46 -310 14 -121 37 -273 51 -338 23 -111 24 -167 2 -167 -15 0 -68 122
-128 294 -51 148 -80 200 -80 145 0 -36 97 -315 147 -421 l46 -97 -25 -53
c-14 -29 -31 -66 -38 -83 l-12 -30 -19 35 c-10 19 -33 71 -50 115 -31 77 -179
502 -179 512 0 3 15 2 34 -1 21 -4 37 -2 41 4 12 19 -17 40 -56 40 -37 0 -38
1 -52 53 -9 28 -18 77 -22 107 -4 29 -16 74 -26 98 -35 81 -48 165 -50 316 -1
135 -8 179 -23 140 -11 -28 -7 -842 4 -849 6 -3 10 -11 10 -16 0 -6 -4 -7 -10
-4 -7 4 -10 -852 -9 -2562 l0 -2568 94 -85 c92 -83 94 -85 65 -88 -17 -2 -28
-8 -25 -13 4 -5 1 -9 -4 -9 -6 0 -11 5 -11 11 0 8 -4 8 -14 0 -10 -8 -15 -8
-18 -1 -2 6 -22 13 -46 16 l-42 5 0 -53 c1 -46 2 -51 14 -36 15 21 38 5 29
-21 -4 -12 -2 -11 9 3 8 10 20 16 26 12 5 -3 13 0 15 6 4 10 8 10 15 -1 6 -8
26 -15 45 -15 19 -1 33 -4 31 -8 -3 -4 8 -11 23 -14 17 -5 28 -3 31 4 2 7 21
12 43 12 51 0 263 -104 278 -136 7 -17 21 -23 58 -27 26 -3 60 -8 75 -12 34
-9 37 7 6 23 -13 6 -17 11 -9 11 7 1 36 12 63 26 l51 25 60 -65 c33 -36 65
-75 71 -87 22 -44 40 -44 83 -1 38 38 133 83 133 62 0 -5 19 -18 43 -29 43
-20 44 -20 88 -1 45 20 238 70 345 90 33 6 99 11 147 11 72 0 85 -2 81 -15 -3
-8 -23 -19 -45 -25 -45 -13 -58 -29 -35 -45 11 -9 29 -10 59 -4 61 12 120 11
172 -3 l45 -12 -68 -33 c-64 -31 -65 -32 -26 -27 25 3 57 -1 85 -11 24 -9 54
-19 67 -22 13 -3 39 -20 58 -38 31 -30 33 -35 23 -59 -11 -24 -9 -28 37 -68
27 -23 97 -89 155 -145 l107 -103 570 0 571 0 3 22 c2 12 9 23 17 26 10 3 12
-2 7 -22 l-6 -26 62 0 63 0 129 398 c130 400 195 562 316 787 26 50 92 178
145 285 109 219 285 527 399 700 74 111 87 145 56 145 -16 0 -122 -144 -201
-273 -28 -46 -53 -81 -56 -79 -2 3 14 40 36 84 55 106 101 211 101 227 0 8 42
34 93 59 322 157 484 235 500 240 24 9 11 -14 -42 -75 -23 -25 -41 -49 -41
-54 0 -14 -51 -114 -58 -114 -13 0 -39 -53 -45 -93 -4 -26 -2 -35 5 -31 7 5 8
2 4 -5 -5 -7 -14 -10 -22 -7 -14 6 -41 -36 -47 -72 -2 -11 -9 -27 -16 -36 -15
-18 -11 -48 8 -54 8 -3 11 0 7 6 -4 6 2 8 14 5 19 -5 20 -6 3 -20 -17 -13 -17
-14 2 -11 12 2 21 12 23 27 3 16 0 21 -9 16 -8 -5 -10 -4 -5 3 4 7 13 12 20
12 7 0 21 7 32 16 10 8 13 12 5 8 -10 -5 -11 -1 -6 17 4 13 12 26 17 27 5 2 4
10 -3 18 -9 11 -8 15 4 20 9 3 21 3 26 -1 6 -3 8 0 5 9 -3 9 2 17 15 21 12 3
21 11 21 16 0 5 7 9 16 9 10 0 14 5 10 15 -4 10 3 20 19 27 27 12 35 34 9 24
-14 -5 -15 -4 -4 9 7 8 16 12 21 9 5 -3 9 0 9 5 0 6 6 10 13 9 7 -2 11 6 9 19
-2 16 2 23 13 23 13 0 16 -6 11 -25 -4 -14 -2 -35 4 -46 9 -15 8 -24 -1 -35
-9 -11 -9 -14 0 -14 8 0 10 -8 6 -20 -8 -24 8 -26 26 -3 10 11 10 14 2 9 -7
-4 -13 -2 -13 3 0 6 3 11 8 12 4 0 15 2 25 4 20 4 21 1 5 -28 -18 -32 -18 -47
-2 -47 9 0 13 4 10 9 -8 13 19 21 69 21 36 0 48 6 79 37 43 44 51 68 37 106
-21 53 -52 47 -141 -29 -27 -23 -46 -45 -42 -50 4 -5 -1 -2 -10 5 -17 12 -17
15 2 38 20 26 18 49 -3 36 -7 -3 0 6 16 22 15 15 27 31 27 36 0 5 10 13 21 20
17 9 20 8 14 -3 -3 -7 1 -4 9 6 9 11 18 34 22 52 5 25 18 40 57 66 74 49 187
111 193 106 2 -3 -4 -16 -15 -29 -30 -38 -102 -189 -96 -199 13 -21 26 -8 59
58 19 37 35 61 36 55 0 -23 -38 -114 -63 -146 -58 -77 -86 -163 -112 -352 -30
-212 -55 -478 -55 -581 0 -58 -3 -103 -7 -101 -5 3 -8 -39 -7 -94 1 -54 -3
-96 -8 -93 -4 3 -6 9 -3 14 3 5 1 11 -5 15 -5 3 -10 1 -10 -5 0 -25 -23 -2
-35 34 -15 42 -3 88 21 84 13 -3 14 -1 13 35 l0 22 -9 -22 c-11 -27 -19 -30
-16 -7 1 9 11 23 20 30 14 10 17 21 12 54 -4 28 -2 39 5 34 7 -4 7 1 -1 15 -6
12 -12 36 -12 52 -1 17 -4 26 -7 20 -8 -13 -44 -9 -54 7 -5 7 -2 18 6 27 13
13 16 13 21 0 3 -8 12 -15 21 -15 20 0 32 30 15 40 -7 4 -10 12 -6 18 3 6 2
21 -3 34 -6 12 -10 17 -10 11 -1 -7 -8 -13 -16 -13 -18 0 -20 17 -4 22 8 3 5
11 -7 22 -16 17 -29 60 -14 51 3 -2 10 21 16 51 7 41 7 53 -2 50 -20 -8 -33
14 -24 40 5 13 7 24 5 24 -3 0 2 11 11 25 15 22 15 25 1 25 -9 0 -19 -5 -22
-10 -9 -15 -22 -12 -29 6 -3 8 -2 13 3 9 14 -8 41 23 35 40 -4 8 -11 12 -17 8
-6 -3 -7 -1 -3 6 6 8 12 9 20 2 17 -14 29 -2 15 15 -6 7 -17 10 -26 7 -13 -5
-13 -3 -1 17 9 16 10 24 2 27 -16 5 -6 41 15 56 10 7 21 21 25 31 6 19 6 19
-12 3 -10 -9 -24 -17 -31 -17 -6 0 -16 -11 -23 -25 -6 -13 -15 -22 -19 -19 -5
3 -6 -2 -3 -9 3 -8 15 -18 27 -22 l22 -6 -24 -10 c-17 -7 -22 -15 -18 -29 3
-13 -1 -24 -13 -30 -22 -12 -35 -51 -14 -43 17 6 18 -9 2 -26 -10 -11 -10 -13
0 -7 8 5 12 -2 12 -22 0 -21 -6 -31 -20 -35 -13 -3 -18 -11 -15 -25 2 -11 -7
-73 -20 -139 -13 -65 -26 -170 -29 -233 -3 -63 -8 -124 -10 -135 -2 -11 -5
-26 -5 -34 -1 -7 -7 -11 -16 -7 -8 3 -15 3 -15 0 0 -2 12 -9 26 -14 27 -10 28
-31 3 -38 -11 -3 -11 -1 1 8 13 10 12 11 -3 6 -10 -3 -21 -6 -23 -6 -3 0 -2
-4 1 -10 3 -5 2 -10 -3 -10 -6 0 -12 7 -16 15 -3 8 -10 15 -16 15 -6 0 -8 -4
-5 -10 9 -14 -8 -13 -23 2 -9 9 -12 8 -12 -5 0 -10 -12 -29 -27 -43 -16 -14
-21 -22 -13 -18 12 5 12 4 3 -6 -6 -7 -9 -19 -6 -26 3 -8 -2 -17 -11 -20 -12
-5 -14 -10 -6 -19 16 -19 -21 -39 -40 -22 -12 10 -12 9 -1 -5 7 -10 17 -15 22
-12 18 11 28 -7 17 -31 -6 -13 -14 -24 -17 -23 -3 1 -14 -2 -24 -7 -12 -5 -14
-11 -8 -19 6 -7 6 -17 1 -26 -9 -14 -11 -12 -14 19 0 8 -7 16 -15 19 -9 3 -12
0 -9 -9 4 -10 -1 -15 -13 -15 -12 0 -18 5 -14 14 3 8 0 12 -7 9 -7 -2 -12 -11
-10 -19 2 -11 -5 -14 -24 -12 -23 2 -61 -23 -66 -43 0 -5 -9 -7 -19 -5 -14 2
-17 -1 -13 -12 3 -9 13 -16 21 -16 12 0 13 -3 4 -14 -8 -10 -9 -16 -2 -21 7
-4 7 -12 1 -25 -6 -11 -14 -29 -20 -40 -13 -25 -13 -33 0 -25 6 3 10 1 10 -4
0 -6 -9 -16 -20 -23 -24 -15 -26 -28 -5 -28 20 0 19 -7 -5 -37 -12 -16 -20
-41 -20 -64 0 -22 -4 -39 -9 -39 -6 0 -8 -10 -6 -22 3 -12 1 -26 -4 -32 -14
-18 -23 -93 -12 -100 6 -4 7 -15 2 -29 -5 -12 -9 -24 -11 -27 -1 -3 3 -17 9
-32 8 -21 7 -27 -2 -25 -7 1 -12 -7 -13 -18 0 -11 -4 -28 -8 -37 -5 -11 -2
-23 8 -33 21 -22 20 -24 -6 -17 -21 5 -22 4 -8 -12 13 -16 12 -20 -2 -30 -12
-9 -14 -16 -6 -29 7 -13 6 -23 -3 -33 -10 -12 -8 -26 7 -70 l18 -55 283 2
c287 1 302 3 273 37 -6 6 -7 10 -4 7 4 -3 14 1 22 8 13 9 14 9 8 0 -4 -7 -3
-21 3 -30 9 -17 10 -17 16 0 4 9 11 17 17 17 5 0 7 -4 4 -8 -3 -5 1 -9 9 -9
15 0 18 16 15 77 -4 62 -6 79 -12 86 -4 3 -4 12 -2 19 3 7 1 16 -5 20 -20 12
-11 24 24 31 29 5 34 10 33 30 -2 18 -5 20 -16 12 -9 -8 -16 -8 -24 0 -9 9 -9
12 0 12 17 0 15 39 -2 46 -13 5 -13 22 0 63 4 11 8 10 18 -5 12 -15 16 -16 30
-5 11 9 16 10 16 2 0 -6 -4 -11 -10 -11 -13 0 -13 -22 1 -57 7 -20 12 -24 18
-14 7 10 13 11 30 2 11 -7 21 -14 21 -17 0 -3 -4 -3 -10 1 -5 3 -12 -16 -16
-45 -4 -27 -10 -50 -14 -50 -13 0 -19 -39 -6 -43 7 -3 2 -14 -12 -29 -14 -15
-20 -31 -16 -41 3 -10 2 -17 -3 -17 -7 0 -9 -41 -4 -82 1 -5 51 -8 111 -8
l110 0 -5 83 c-3 45 -10 145 -15 222 -5 77 -12 187 -15 245 -6 124 -6 126 70
-205 81 -350 77 -339 104 -343 13 -2 28 2 32 10 7 10 9 10 9 1 0 -7 9 -13 19
-13 18 0 18 1 -1 63 -66 213 -135 554 -169 837 -16 138 -16 681 1 820 7 58 14
143 16 189 2 46 15 166 29 265 25 176 52 269 120 424 19 42 19 71 -1 93 -15
16 -13 19 18 35 18 9 28 19 21 21 -12 4 -103 -33 -223 -91 -36 -18 -74 -35
-84 -39 -19 -7 -19 -7 -3 11 9 10 17 26 17 35 0 35 163 117 324 162 54 16 115
39 135 53 20 13 30 18 24 11 -7 -7 -13 -19 -13 -27 0 -8 -13 -31 -30 -52 -64
-81 -16 -99 52 -20 54 64 158 151 316 266 68 49 147 107 177 128 l54 39 33
-28 c18 -15 33 -38 34 -50 1 -12 15 -42 31 -66 40 -58 65 -109 93 -191 13 -37
25 -66 27 -64 5 5 -17 78 -52 171 -14 39 -28 79 -31 90 -5 18 -4 19 6 2 21
-33 92 -250 87 -268 -3 -10 4 -53 14 -96 10 -43 26 -148 35 -233 14 -132 23
-177 64 -302 53 -161 116 -423 150 -618 11 -69 30 -155 41 -192 20 -69 22
-157 4 -170 -5 -4 1 -8 13 -8 14 0 44 17 69 40 25 22 52 40 59 40 39 0 16 -54
-34 -79 -59 -30 -72 -47 -72 -94 l-1 -42 -18 22 c-14 17 -21 20 -29 10 -13
-17 -26 -68 -23 -95 2 -13 -2 -28 -7 -35 -5 -7 -12 -28 -15 -47 -3 -20 -26
-81 -51 -137 -58 -130 -73 -186 -57 -219 12 -27 6 -48 -10 -39 -5 4 -9 15 -9
25 0 10 -6 23 -14 27 -15 8 -64 154 -136 403 -23 80 -75 248 -116 373 -41 126
-74 233 -74 238 0 16 -158 394 -215 515 -29 62 -58 129 -65 148 -18 56 -38 60
-82 18 -21 -21 -38 -42 -38 -48 0 -6 -9 -19 -20 -29 -12 -11 -20 -28 -18 -39
2 -16 10 -21 36 -21 29 0 32 -2 27 -22 -3 -13 -12 -94 -19 -180 -66 -729 -34
-1353 80 -1599 l28 -59 4 35 c3 30 8 20 34 -70 69 -247 66 -240 97 -240 l28 0
-18 78 c-10 42 -18 81 -16 85 1 4 18 -29 38 -75 28 -66 41 -84 59 -86 19 -3
22 0 16 15 -4 10 -27 70 -51 133 -55 146 -160 487 -174 565 -50 287 -73 977
-42 1260 l6 60 27 -55 c36 -72 77 -138 78 -124 0 6 -7 31 -15 54 -8 23 -15 45
-15 49 1 18 25 -45 90 -234 40 -116 88 -248 108 -295 19 -47 48 -130 64 -185
46 -160 139 -436 165 -490 49 -101 82 -197 77 -224 -11 -53 65 -111 145 -111
20 0 42 5 49 12 9 9 12 4 12 -22 0 -78 18 -110 119 -210 71 -73 105 -99 131
-105 19 -4 49 -13 65 -20 26 -12 110 -33 253 -65 69 -16 120 -12 138 9 59 71
84 91 109 91 14 0 24 4 21 9 -4 5 14 19 38 30 54 27 86 59 68 70 -16 10 21 44
198 180 75 58 203 173 289 258 l154 153 55 0 c88 0 184 20 210 43 l22 21 15
-22 c9 -11 22 -19 29 -16 20 8 213 -86 271 -132 28 -22 78 -59 113 -82 34 -24
62 -45 62 -49 0 -3 -7 -11 -16 -18 -15 -10 -15 -15 -3 -41 15 -30 39 -41 67
-28 9 4 42 6 73 5 54 -3 116 9 354 68 66 16 120 25 135 21 14 -4 42 -5 63 -4
22 2 35 -1 32 -6 -4 -6 -13 -10 -22 -10 -14 0 -14 -2 1 -19 17 -19 17 -20 -6
-24 -13 -2 0 -5 28 -6 33 -1 57 5 70 15 15 12 15 15 2 10 -9 -2 -18 1 -21 7
-3 8 14 13 56 14 46 2 57 -1 49 -9 -17 -17 -15 -28 3 -22 8 4 22 1 30 -6 11
-9 18 -10 28 -1 8 6 17 8 20 4 4 -3 18 0 31 7 16 8 41 11 67 7 24 -3 37 -2 30
2 -9 6 -3 10 18 13 20 3 32 0 36 -9 2 -8 1 -12 -4 -9 -5 3 -14 0 -20 -7 -8
-11 -1 -12 37 -7 26 3 57 12 70 18 18 11 22 10 22 -3 0 -17 17 -20 22 -4 2 7
18 12 36 13 l32 1 0 2445 c-1 2173 -2 2442 -16 2418 -8 -16 -16 -28 -18 -28
-2 0 5 35 15 78 13 56 18 116 18 222 l1 145 -71 -275 c-102 -403 -109 -422
-206 -563 -143 -207 -373 -530 -433 -607 -36 -47 -82 -106 -101 -132 -18 -25
-76 -101 -126 -167 -89 -117 -119 -161 -109 -161 10 0 219 236 257 289 22 31
66 87 99 125 58 66 258 343 369 509 29 43 55 77 57 75 9 -9 -47 -151 -93 -240
-87 -164 -138 -249 -250 -418 -101 -151 -125 -180 -279 -330 -165 -162 -607
-538 -915 -778 -85 -66 -167 -133 -184 -147 l-30 -27 40 22 40 22 -30 -26
c-16 -14 -67 -51 -113 -83 -46 -31 -85 -59 -87 -63 -2 -3 9 -5 23 -4 15 0 39
-2 53 -7 16 -4 31 -3 38 4 6 6 11 8 11 4 0 -13 76 31 147 84 37 29 118 88 178
132 61 44 166 125 235 180 115 93 171 141 320 273 l54 49 -29 -40 c-17 -22
-34 -45 -40 -51 -5 -6 -37 -46 -70 -89 -33 -44 -83 -104 -110 -134 -28 -31
-77 -87 -110 -126 -131 -153 -165 -185 -202 -185 -19 0 -47 -6 -61 -14 -15 -7
-63 -31 -107 -52 -107 -52 -173 -97 -278 -188 -73 -63 -94 -76 -122 -76 -19 0
-71 -13 -115 -29 -44 -16 -80 -28 -80 -26 0 2 16 13 35 25 19 12 35 25 35 29
0 5 -17 11 -37 14 -21 4 -49 9 -63 12 -18 4 -45 -6 -100 -40 -230 -141 -295
-184 -295 -196 0 -8 13 -15 32 -17 17 -2 37 -9 43 -17 9 -11 26 -5 93 30 45
24 125 59 177 78 52 19 132 49 178 66 l83 31 -54 -68 c-34 -42 -71 -76 -102
-93 -26 -14 -76 -53 -111 -87 -70 -68 -73 -67 61 -7 106 48 38 -5 -83 -64
-219 -108 -275 -137 -303 -157 l-29 -21 35 -28 c18 -16 36 -36 38 -46 3 -9 19
-20 36 -24 17 -4 31 -10 31 -15 0 -4 14 -13 30 -20 24 -10 33 -22 41 -55 8
-33 18 -46 40 -55 30 -13 39 -35 16 -43 -18 -6 157 -20 193 -15 37 6 38 -6 6
-70 -48 -93 -27 -86 -283 -98 -125 -6 -312 -11 -415 -13 l-187 -2 2 27 c1 15
-3 29 -10 31 -20 7 -62 -61 -95 -158 -24 -69 -38 -95 -52 -97 -10 -2 -22 2
-27 9 -6 11 -17 5 -47 -24 -21 -20 -43 -37 -48 -37 -13 0 -33 69 -103 340 -80
313 -142 648 -171 917 -8 73 -58 277 -80 328 -5 11 -21 49 -36 85 -36 88 -113
220 -128 220 -7 0 -20 25 -30 56 -18 57 -43 70 -39 20 2 -22 -2 -26 -27 -26
-16 0 -33 -7 -38 -16 -11 -20 -202 -145 -212 -139 -5 3 -6 41 -3 85 6 76 5 80
-15 80 -24 0 -42 -27 -42 -62 0 -13 -8 -40 -18 -59 -13 -26 -16 -44 -10 -73 5
-22 7 -40 6 -41 -60 -44 -131 -84 -158 -90 -19 -4 -62 -18 -95 -30 -33 -13
-103 -35 -155 -48 -52 -14 -129 -41 -170 -60 -41 -19 -77 -33 -78 -32 -7 7 69
185 110 259 41 72 59 89 73 66 4 -6 14 -5 28 4 24 15 148 42 237 51 30 3 70
11 89 16 18 6 51 9 73 6 43 -6 60 11 38 38 -7 8 -8 15 -3 15 6 0 13 30 16 68
10 114 46 207 139 353 110 172 236 390 323 554 89 168 192 352 220 390 27 37
34 56 81 229 38 137 39 139 74 153 69 29 695 346 804 408 61 34 143 78 181 98
39 19 81 44 95 56 l25 20 -30 -8 c-16 -4 -70 -25 -118 -46 -142 -61 -119 -30
44 58 36 20 77 45 90 56 l24 21 -33 -11 c-52 -18 -47 -5 13 34 56 38 71 44 60
27 -3 -5 -4 -10 -1 -10 9 0 146 185 237 320 47 69 161 244 253 390 93 146 187
288 210 317 22 29 49 63 59 77 9 14 54 43 100 64 83 40 173 99 164 109 -3 2
-47 -14 -97 -37 -51 -22 -95 -39 -97 -36 -6 5 23 49 74 112 27 33 31 43 20 52
-17 14 -61 -30 -136 -135 -45 -62 -58 -74 -94 -83 -46 -12 -108 -33 -232 -78
-85 -32 -193 -57 -202 -48 -3 3 4 20 16 39 11 19 21 50 21 70 0 49 76 234 164
398 41 76 93 180 116 231 22 51 67 140 99 198 67 121 74 137 61 145 -17 11 39
119 77 150 21 17 79 65 130 108 56 46 95 72 97 65 26 -84 37 -186 46 -418 6
-146 17 -326 25 -400 8 -74 23 -247 34 -385 26 -321 42 -455 53 -455 4 0 6
-46 4 -102 -3 -67 -2 -89 3 -63 7 33 8 26 10 -46 0 -48 8 -200 17 -339 8 -139
13 -254 10 -257 -2 -3 -12 9 -21 26 -20 39 -39 41 -31 4 6 -27 6 -27 -9 -9
-13 17 -15 17 -15 4 0 -9 -5 -29 -10 -44 -8 -21 -14 -24 -22 -16 -12 12 -35
119 -45 210 -6 57 -17 66 -35 27 -6 -14 -18 -25 -27 -25 -14 1 -14 2 2 14 9 7
17 16 17 19 0 3 -44 7 -97 9 -54 2 -105 6 -113 9 -10 2 -15 -3 -15 -15 0 -13
11 -23 35 -31 l34 -12 -89 -21 c-69 -16 -95 -27 -119 -51 -22 -22 -27 -34 -19
-42 8 -8 25 -2 64 19 49 27 119 50 119 39 0 -2 -26 -21 -57 -42 -91 -59 -124
-95 -89 -95 7 0 19 7 27 16 34 41 256 153 306 154 15 0 33 -53 26 -80 -3 -11
2 -41 12 -66 l17 -45 -29 -25 c-15 -13 -33 -29 -40 -34 -18 -14 -5 -40 20 -40
18 0 15 -7 -23 -45 -24 -25 -47 -45 -51 -45 -14 0 -51 105 -57 164 -10 89 -30
87 -107 -6 -85 -104 -141 -180 -164 -226 -18 -36 -19 -46 -9 -102 19 -102 56
-94 69 16 10 80 47 149 118 218 l50 49 11 -27 c5 -15 10 -31 10 -35 0 -4 13
-26 28 -47 16 -21 31 -47 35 -56 4 -11 17 -18 32 -18 25 0 25 0 10 -30 -9 -17
-18 -30 -21 -30 -2 0 -32 14 -65 31 -48 24 -64 28 -75 18 -8 -6 -14 -19 -14
-28 -1 -9 -16 -45 -35 -81 -83 -154 -100 -209 -62 -194 10 4 18 -8 26 -42 7
-26 19 -61 28 -77 18 -35 111 -137 125 -137 13 0 0 39 -29 84 -18 28 -22 41
-13 46 9 6 9 19 0 61 -13 57 -11 302 2 315 9 9 78 -26 85 -43 2 -6 -3 -25 -11
-42 -33 -63 -10 -116 29 -67 20 25 23 26 36 10 8 -9 19 -38 25 -63 8 -32 12
-38 13 -20 2 41 12 41 41 1 15 -20 37 -45 48 -56 21 -18 22 -18 40 4 25 31 46
18 38 -24 -4 -20 -1 -39 8 -51 12 -17 17 -18 40 -7 14 6 45 29 68 50 45 40
133 90 142 81 10 -10 -77 -264 -104 -304 -19 -28 -160 -305 -156 -305 10 0
118 193 172 308 57 121 120 247 141 285 7 12 13 31 13 42 1 40 14 44 47 16
l33 -27 -30 -95 c-17 -52 -37 -114 -45 -138 -24 -70 -10 -59 30 24 20 42 39
75 41 72 2 -2 -1 -28 -7 -58 -12 -50 -50 -109 -72 -109 -5 0 -18 -11 -29 -25
-11 -14 -25 -25 -32 -25 -20 0 -59 -47 -53 -64 4 -9 11 -16 16 -16 5 0 49 24
98 54 48 29 101 60 118 67 16 8 52 43 79 79 27 36 52 66 56 68 4 1 15 -14 25
-35 23 -49 22 -48 40 -33 10 8 15 31 15 70 0 50 3 58 21 63 20 5 21 10 15 64
-6 54 -3 66 29 135 38 84 43 108 20 108 -8 0 -15 -4 -15 -9 0 -4 -13 -37 -29
-72 l-30 -64 -12 35 c-11 32 -75 167 -100 213 -10 19 7 87 22 87 11 0 69 -127
69 -150 0 -29 18 -24 26 7 9 36 -12 117 -47 179 l-29 52 25 88 c36 131 64 264
54 264 -4 0 -13 -19 -19 -42 -25 -99 -73 -264 -79 -270 -3 -4 -19 13 -35 37
-16 23 -41 50 -55 58 -14 9 -38 27 -52 40 -33 32 -63 47 -75 39 -5 -4 -10 -47
-10 -97 0 -65 -5 -101 -18 -130 l-18 -39 -27 31 c-14 17 -34 33 -45 37 -11 4
-16 12 -12 21 7 20 -16 19 -83 -1 -29 -8 -54 -14 -56 -12 -1 2 26 28 60 58 35
30 64 58 64 63 3 27 -87 -20 -135 -70 -12 -13 -30 -23 -40 -23 -15 1 -13 4 9
16 l27 15 0 127 c0 115 -35 618 -60 867 -10 95 -67 756 -90 1046 -6 75 -12
222 -13 326 l-2 189 45 39 c61 55 107 102 136 141 15 18 38 36 55 39 44 10 46
30 7 73 -48 53 -117 152 -194 278 -76 123 -84 159 -64 271 21 119 27 133 62
133 46 0 302 -71 311 -87 5 -8 16 -11 26 -8 10 3 30 1 44 -4 19 -7 24 -15 20
-30 -6 -23 20 -30 33 -10 4 7 22 9 48 5 47 -7 81 7 56 24 -8 5 -22 10 -30 10
-41 1 159 90 203 90 3 0 9 -15 13 -32 4 -18 9 -27 11 -20 4 10 8 10 21 0 13
-11 13 -8 -2 20 -9 18 -14 36 -12 41 7 10 95 36 101 29 3 -3 1 -99 -5 -213 -6
-151 -6 -213 2 -222 14 -17 3 -55 -73 -241 -32 -78 -88 -227 -125 -330 -36
-103 -95 -257 -129 -342 -35 -85 -71 -182 -80 -215 -10 -33 -21 -64 -25 -70
-16 -20 -50 -163 -50 -208 0 -51 20 -65 40 -27 7 14 7 20 0 20 -5 0 -10 11
-10 25 l0 24 38 -21 c54 -31 74 -50 62 -58 -14 -9 -2 -40 16 -40 10 0 14 15
16 53 1 28 2 60 3 69 0 9 12 27 25 41 14 13 33 38 43 57 l18 33 15 -22 c11
-15 22 -20 36 -15 17 5 19 3 12 -18 -4 -12 -7 -30 -6 -38 11 -116 16 -133 43
-163 46 -50 35 -118 -21 -122 -17 -1 -17 0 2 26 12 15 18 35 15 43 -10 25 -25
19 -32 -14 -6 -26 -9 -28 -26 -20 -17 10 -19 7 -20 -22 -1 -18 -5 -44 -9 -58
-7 -23 -8 -23 -9 -3 -1 20 -17 40 -26 31 -2 -2 1 -23 6 -48 9 -38 5 -66 -26
-197 -20 -83 -35 -165 -34 -180 4 -50 0 -63 -20 -63 -12 0 -28 15 -43 42 -25
45 -48 60 -48 32 0 -10 56 -113 124 -228 129 -220 198 -352 210 -398 3 -16 12
-28 19 -28 6 0 34 -53 61 -118 26 -64 83 -191 127 -282 l78 -165 -65 -214
c-35 -117 -63 -216 -60 -218 11 -11 266 782 307 955 16 70 32 133 34 140 3 6
1 12 -4 12 -5 0 -15 -24 -24 -52 -9 -29 -39 -129 -66 -223 -56 -187 -99 -323
-101 -315 -3 10 -20 269 -25 380 l-6 115 17 -40 c25 -58 82 -145 95 -145 8 0
9 11 3 38 -10 48 -9 147 4 352 16 247 24 340 31 340 3 -1 20 -19 36 -41 46
-63 107 -129 127 -140 17 -9 18 68 18 2166 l0 2175 -545 0 -546 0 55 -67 c53
-67 301 -419 373 -531 48 -75 273 -527 273 -549 0 -11 -251 -123 -276 -123
-57 0 -50 -13 -145 324 -63 221 -186 602 -210 647 -6 12 -2 22 11 34 27 25 25
38 -5 32 -30 -5 -35 3 -86 141 -29 79 -37 92 -56 92 -13 0 -23 -5 -23 -11 0
-6 20 -62 45 -123 25 -62 45 -117 45 -122 0 -5 -33 -26 -72 -46 -58 -30 -92
-40 -162 -48 -49 -5 -91 -9 -92 -7 -1 1 -32 44 -68 95 -36 50 -96 130 -133
177 -56 70 -73 85 -95 85 -16 0 -28 -2 -28 -6 0 -3 26 -35 58 -72 67 -79 216
-281 211 -287 -5 -4 -178 -42 -254 -55 -68 -11 -209 -48 -253 -65 -21 -8 -84
-28 -141 -45 -57 -17 -132 -44 -167 -60 -73 -33 -85 -55 -26 -48 37 5 38 5 34
-23 -3 -21 -19 -39 -56 -66 -28 -21 -139 -108 -246 -194 -208 -167 -415 -370
-532 -520 -102 -130 -101 -170 2 -143 66 17 142 18 157 3 9 -9 27 -9 70 -1 32
6 86 14 121 17 35 3 71 8 80 11 36 11 -177 -179 -282 -252 -61 -43 -147 -103
-191 -134 -99 -71 -266 -173 -272 -166 -3 2 -13 73 -24 158 -18 143 -33 239
-46 298 -5 24 -5 25 11 5 12 -15 11 -8 -5 30 -18 45 -44 149 -68 273 -9 49
-19 62 -31 42 -10 -17 -12 -15 -34 28 -9 17 -22 32 -30 32 -7 0 -18 11 -24 25
-6 14 -16 25 -21 25 -6 0 -52 80 -102 178 -57 108 -148 259 -233 386 -78 114
-163 246 -191 292 -73 122 -88 140 -102 122 -10 -11 -6 -23 18 -59 55 -81 71
-119 59 -135 -10 -11 -7 -22 9 -51 l21 -38 -32 40 c-18 22 -100 110 -183 196
-126 132 -152 155 -166 146 -14 -9 -31 0 -92 51 -42 34 -85 62 -96 62 -24 0
-28 -15 -6 -27 8 -5 37 -30 65 -57 l51 -49 -22 -23 c-13 -13 -30 -24 -38 -24
-9 0 -49 -18 -89 -40 -41 -22 -113 -56 -160 -76 -104 -43 -304 -142 -387 -192
-81 -48 -249 -164 -254 -175 -2 -5 -19 -23 -38 -40 -18 -17 -50 -53 -70 -79
-20 -26 -39 -46 -41 -44 -6 7 131 276 188 366 99 160 185 278 289 398 l54 63
-44 -3 c-42 -3 -47 -7 -112 -88 -38 -47 -73 -84 -77 -83 -5 2 -7 -3 -4 -11 3
-7 -3 -19 -12 -27 -15 -12 -17 -12 -9 0 6 10 4 12 -4 7 -7 -5 -10 -15 -7 -23
3 -8 2 -12 -3 -9 -5 3 -30 -28 -56 -69 -44 -71 -65 -91 -65 -62 0 6 22 50 49
97 36 61 77 112 144 178 l94 92 -113 0 -114 0 -128 -56 c-207 -92 -308 -145
-537 -284 -235 -143 -339 -215 -330 -230 3 -5 -35 -60 -85 -120 -87 -108 -101
-132 -80 -145 9 -5 21 7 83 80 14 17 29 27 32 23 10 -9 -138 -237 -224 -348
-37 -47 -77 -100 -90 -117 -14 -22 -31 -33 -46 -33 -13 0 -36 -5 -52 -11 -27
-11 -27 -11 -7 -19 38 -15 37 -29 -5 -94 -23 -34 -41 -68 -41 -74 0 -28 23 -7
70 63 l51 75 207 3 c114 1 255 1 314 -1 98 -3 110 -1 138 19 16 13 33 20 36
16 10 -9 -300 -383 -517 -624 -240 -266 -308 -339 -323 -352 -14 -11 -22 -12
-44 -1 -15 6 -92 34 -172 60 -80 27 -176 61 -215 77 l-70 28 -2 90 -2 90 21
-57 c25 -66 40 -76 30 -20 -20 110 0 529 30 612 49 137 62 191 48 200 -16 10
-40 -5 -40 -24 0 -6 -5 -29 -11 -51 -11 -38 -12 -39 -21 -16 -6 17 -5 27 3 31
26 17 -42 81 -121 113 -83 34 -86 32 -31 -22 94 -91 47 -67 -106 54 -113 91
-172 129 -248 165 -55 26 -120 63 -143 83 -24 21 -52 37 -61 37 -10 0 -28 11
-40 24 -12 13 -38 32 -57 42 -34 18 -36 18 -49 1 -12 -17 -15 -17 -65 3 -29
11 -55 18 -58 16 -8 -8 19 -36 50 -52 l29 -15 -98 -69 c-112 -78 -177 -142
-328 -325 -134 -162 -196 -253 -251 -369 -81 -174 -115 -315 -115 -495 0 -113
14 -155 25 -73 5 38 10 49 23 48 13 -1 27 30 61 138 40 126 45 137 56 115 16
-34 39 -30 47 8 20 99 369 382 667 541 71 38 114 56 117 49 23 -79 33 -254 16
-272 -5 -6 -30 -57 -55 -114 -25 -57 -70 -145 -100 -195 -29 -50 -70 -125 -91
-165 -20 -41 -49 -93 -63 -115 -14 -23 -45 -75 -69 -116 l-43 -75 0 57 c0 39
-5 60 -16 69 -28 23 -41 -13 -51 -139 -32 -455 27 -908 191 -1457 37 -123 116
-352 152 -439 6 -17 3 -16 -27 6 -19 14 -54 36 -78 48 -45 23 -183 155 -314
303 -43 48 -85 87 -92 87 -20 0 -22 5 -54 148 -30 136 -36 152 -52 152 -16 0
-10 -47 31 -222 22 -94 38 -173 36 -175 -6 -6 -43 100 -85 247 -50 171 -57
190 -71 190 -23 0 -20 -32 14 -151 132 -470 446 -1151 714 -1554 48 -71 88
-133 90 -136 2 -4 -6 -9 -18 -12 -14 -4 -36 7 -70 34 -27 21 -54 39 -60 39
-71 0 236 -249 444 -360 53 -29 122 -60 153 -69 l56 -17 81 -160 c95 -188 191
-329 297 -436 80 -82 150 -123 191 -113 21 5 28 -5 78 -115 30 -67 72 -142 93
-168 63 -75 63 -92 0 -24 -56 61 -83 76 -83 49 0 -21 180 -257 291 -382 227
-257 729 -713 979 -890 30 -21 59 -42 64 -46 4 -4 -10 -17 -33 -28 -22 -12
-41 -25 -41 -30 0 -17 -177 -141 -202 -141 -32 0 -76 -46 -63 -64 6 -7 19 -26
29 -42 11 -16 28 -39 39 -51 22 -25 14 -47 -14 -38 -23 8 -24 -2 -2 -27 19
-21 18 -23 -19 -32 -24 -5 -27 -3 -30 21 -2 20 -13 33 -37 45 -33 17 -36 17
-73 -4 -48 -27 -221 -224 -295 -336 -40 -60 -57 -96 -61 -128 -4 -37 -2 -44
13 -44 14 0 16 -5 11 -26 -4 -15 -10 -40 -13 -56 l-6 -30 26 17 c14 9 29 29
32 45 5 25 75 147 156 273 62 98 192 266 200 261 6 -3 7 -26 3 -52 -5 -35 -20
-66 -61 -121 -43 -57 -52 -75 -42 -82 20 -12 35 -11 74 5 19 8 35 14 35 13 0
-1 -24 -49 -54 -107 -170 -336 -207 -415 -241 -513 -21 -59 -39 -106 -41 -104
-2 2 14 71 36 155 37 140 91 293 154 434 14 32 24 58 21 58 -15 0 -101 -142
-134 -221 -60 -145 -151 -469 -151 -539 0 -17 -7 -47 -15 -66 -12 -28 -19 -34
-35 -29 -24 7 -47 -26 -75 -110 -11 -30 -22 -55 -26 -55 -19 0 -17 23 6 75 25
58 78 222 90 284 5 23 4 31 -4 27 -6 -4 -11 -12 -11 -18 0 -5 -11 -32 -24 -58
-13 -26 -32 -81 -41 -122 -26 -113 -43 -165 -87 -263 -56 -127 -92 -198 -103
-202 -6 -2 -18 17 -29 42 -20 50 -122 195 -137 195 -15 0 -10 -33 9 -61 50
-76 69 -107 79 -131 l12 -27 -45 34 c-50 38 -52 39 -74 25 -16 -10 -21 -118
-8 -177 6 -26 4 -33 -7 -33 -9 0 -21 -11 -27 -25 -7 -16 -17 -24 -27 -21 -9 2
-37 7 -63 11 l-47 6 -90 182 c-89 179 -181 320 -231 354 -14 9 -30 24 -36 32
-12 15 -34 7 -34 -13 0 -7 16 -35 35 -62 30 -42 33 -50 18 -53 -10 -2 -20 -7
-23 -11 -7 -11 -318 -46 -525 -60 -216 -14 -259 -15 -274 -5 -7 4 -31 46 -52
93 -30 65 -54 99 -102 146 -88 87 -105 131 -105 266 0 49 3 91 7 91 24 5 93 4
97 -2 2 -4 30 -10 62 -14 31 -4 64 -9 72 -12 8 -3 25 -6 38 -7 13 -1 26 -7 30
-13 4 -6 22 -14 40 -18 17 -3 32 -10 32 -14 0 -12 43 -28 63 -23 9 2 14 8 11
14 -4 7 -2 8 4 4 7 -4 12 -14 12 -22 0 -8 3 -14 8 -14 13 1 43 28 45 42 2 7 7
14 12 14 6 1 9 -1 8 -5 -1 -4 32 -13 73 -20 62 -10 77 -10 94 2 11 7 17 16 15
19 -3 3 6 3 20 1 18 -4 25 -1 25 10 0 20 27 42 32 26 6 -17 128 -14 128 3 0 4
5 8 11 8 5 0 7 -4 4 -10 -3 -5 7 -2 24 7 16 10 27 21 25 25 -3 5 1 8 8 8 9 0
9 3 -2 10 -8 5 -23 7 -32 4 -9 -3 -20 2 -25 9 -12 21 -84 57 -113 57 -14 0
-30 4 -35 9 -6 5 -19 11 -30 14 -11 3 -2 5 20 6 42 2 111 28 85 32 -8 1 -19 3
-25 4 -5 1 -31 5 -57 9 -27 5 -48 10 -48 13 0 8 49 53 57 52 4 -1 15 -1 23 1
11 1 9 4 -5 10 -15 6 -6 9 35 11 30 1 61 2 67 2 7 -1 11 3 8 7 -6 10 49 49 71
49 11 0 50 3 87 7 l68 7 -98 51 c-100 53 -234 135 -220 136 4 0 30 -11 57 -25
89 -45 355 -140 418 -149 31 -4 33 -3 18 13 -14 15 -14 18 4 34 22 18 26 37 9
37 -5 0 -7 -5 -3 -12 4 -6 3 -8 -4 -4 -14 8 -9 59 7 64 6 2 11 8 11 13 0 6 -6
7 -12 4 -7 -4 -4 1 7 10 12 9 16 19 10 23 -15 11 -18 34 -4 42 6 4 9 12 6 17
-3 5 -85 47 -181 93 -97 46 -174 85 -172 88 6 6 209 -23 406 -59 239 -43 230
-42 230 -27 0 14 -293 77 -571 122 -150 25 -166 30 -280 97 -36 22 -124 63
-195 92 -105 43 -266 127 -243 127 3 0 45 -13 93 -30 l88 -29 -63 58 -64 59
90 -24 c50 -13 95 -24 100 -24 18 1 -47 32 -150 72 -87 34 -109 48 -170 106
-39 37 -86 81 -105 98 -51 45 -242 251 -355 384 -54 63 -108 126 -119 139
l-21 25 40 -24 c22 -12 110 -60 196 -106 86 -45 239 -132 340 -192 101 -59
213 -125 249 -144 106 -58 532 -270 535 -266 5 4 -296 179 -455 263 -69 37
-183 102 -255 145 -310 184 -637 362 -656 357 -17 -5 -216 202 -414 431 -94
109 -97 113 -80 132 10 11 15 26 11 36 -6 15 -8 15 -32 -1 -14 -9 -29 -13 -34
-8 -57 65 -160 198 -160 207 0 6 -11 31 -24 56 -13 25 -27 56 -31 69 -4 14
-25 53 -46 88 -29 48 -35 63 -23 63 25 0 11 24 -26 42 -18 9 -36 22 -40 29 -5
6 -16 8 -29 4 -16 -5 -26 -1 -36 12 -11 15 -17 16 -33 6 -22 -13 -97 -6 -110
11 -5 6 -50 99 -101 206 -93 199 -122 278 -50 138 21 -43 41 -78 43 -78 2 0
-28 80 -66 178 -68 173 -69 178 -56 217 13 39 70 89 92 82 11 -4 65 -88 119
-188 119 -221 357 -593 450 -707 33 -39 61 -72 63 -72 2 0 -28 44 -65 97 -38
54 -91 136 -119 183 -292 502 -383 665 -382 687 0 5 5 0 11 -9 5 -10 16 -18
23 -18 9 0 11 16 8 60 -4 59 -4 60 21 58 23 -2 33 -18 88 -143 94 -213 162
-356 166 -351 3 3 -16 56 -41 118 -58 144 -118 345 -111 368 3 10 13 24 22 32
14 11 16 11 8 -1 -6 -11 -4 -13 9 -8 10 4 24 7 32 7 9 0 12 5 8 13 -5 9 -4 9
6 0 13 -12 43 -7 35 6 -2 5 7 7 21 7 14 -1 29 -8 34 -16 5 -8 14 -16 20 -16 5
-1 14 -2 19 -3 5 0 17 -25 27 -53 19 -58 99 -228 89 -188 -6 22 -16 66 -54
229 -8 38 -7 47 7 58 22 16 36 11 41 -13 5 -27 22 -46 37 -40 8 3 12 -4 11
-22 -2 -23 2 -27 23 -26 14 0 33 3 44 5 35 8 42 -25 17 -79 -24 -50 -22 -72 5
-72 9 0 14 -11 14 -30 0 -31 13 -40 26 -18 14 22 23 -39 13 -83 -12 -51 -6
-59 24 -31 27 26 56 113 95 287 28 127 29 130 54 127 27 -3 54 20 43 38 -3 5
-17 10 -31 10 -29 0 -31 11 -4 35 23 21 27 55 6 55 -8 0 -25 -14 -38 -30 l-24
-31 -52 51 c-28 28 -60 62 -69 77 -17 26 -17 26 4 14 28 -14 43 -14 43 2 0 14
-88 170 -118 208 l-21 26 24 49 c12 27 26 65 30 84 3 19 16 63 27 98 22 69 15
92 -27 92 -18 0 -39 -23 -94 -100 -39 -55 -77 -113 -86 -130 -18 -36 -19 -36
-45 -10 -11 11 -26 20 -34 20 -7 0 -30 29 -51 64 -48 82 -102 138 -129 134
-17 -2 -22 -11 -24 -48 -4 -45 10 -154 29 -243 11 -46 10 -48 -24 -90 -75 -90
-95 -107 -125 -107 -29 0 -30 3 -95 178 -84 229 -133 378 -152 472 -15 71 -25
216 -40 576 l-7 161 43 31 c24 18 50 32 58 32 9 0 29 9 45 19 34 23 39 21 133
-52 34 -26 86 -62 116 -81 82 -49 113 -78 142 -135 23 -46 68 -172 62 -177 -1
-1 -21 -11 -44 -23 -24 -12 -43 -26 -43 -31 0 -16 38 -11 81 11 l41 20 -6 -20
c-3 -12 -9 -30 -12 -41 -9 -34 5 -22 37 31 17 27 33 48 35 46 3 -2 0 -35 -6
-73 -24 -167 -50 -441 -50 -536 1 -136 16 -111 34 55 l14 122 2 -120 2 -120
14 120 c7 66 20 203 29 305 10 125 21 203 35 240 15 42 19 49 20 28 0 -18 5
-28 15 -28 10 0 15 10 15 28 0 15 4 32 8 38 4 6 60 34 124 61 146 62 227 111
234 140 4 12 -6 51 -22 90 -19 47 -28 87 -28 128 -1 33 -6 67 -11 75 -6 8 -12
134 -15 290 -4 237 -7 275 -20 278 -9 1 -52 -32 -96 -75 -44 -43 -117 -107
-162 -142 -80 -63 -132 -125 -132 -156 0 -9 18 -46 40 -82 22 -37 40 -72 41
-77 0 -6 1 -33 2 -59 2 -30 -2 -52 -10 -59 -7 -6 -13 -17 -13 -25 0 -21 47 -8
80 21 14 12 51 38 84 57 57 33 95 73 82 86 -4 4 -20 -1 -36 -11 -33 -19 -38
-11 -15 20 19 25 19 53 -1 61 -10 4 -30 -8 -55 -33 l-39 -38 0 37 c0 69 22
126 56 148 38 23 80 75 114 140 l25 48 -2 -316 -1 -316 -83 -81 c-81 -79 -126
-116 -141 -116 -5 0 -8 11 -8 25 0 14 -8 29 -20 35 -17 9 -23 6 -39 -21 -13
-21 -20 -26 -23 -16 -1 8 -76 90 -165 182 -90 92 -181 189 -203 215 l-41 49
31 -9 c56 -16 27 21 -45 58 -44 22 -108 83 -111 107 -1 9 10 22 25 30 15 7 33
21 40 29 12 14 10 16 -10 16 -13 0 -60 -11 -104 -25 -44 -14 -83 -25 -87 -25
-23 0 8 385 57 716 84 570 239 1159 415 1579 98 233 172 385 186 385 7 0 23
10 34 23 34 35 210 255 210 261 0 3 -13 6 -28 6 -22 0 -36 -10 -59 -42 -80
-110 -138 -172 -152 -164 -11 7 -5 21 77 164 l24 42 -606 0 -606 0 1 -1872z
m5054 1714 c-6 -5 -37 -29 -70 -55 -33 -25 -102 -88 -154 -141 -74 -74 -98
-93 -108 -84 -20 16 -45 -11 -67 -72 -10 -27 -22 -53 -27 -56 -5 -3 -19 -23
-30 -46 -32 -63 -34 -37 -4 58 15 48 25 100 23 116 -3 15 -1 28 2 28 4 0 45
24 91 54 81 53 339 205 349 206 2 0 0 -4 -5 -8z m1043 -119 c-17 -39 -125
-200 -161 -238 -19 -21 43 92 78 140 19 28 49 71 66 98 17 26 32 47 34 47 2 0
-5 -21 -17 -47z m-1298 33 c0 -2 -24 -19 -52 -38 -117 -77 -137 -85 -53 -21
48 36 105 69 105 59z m1505 -76 c18 -19 17 -20 -3 -20 -15 0 -22 6 -22 20 0
11 2 20 3 20 2 0 12 -9 22 -20z m3438 -7 c2 -10 8 -27 13 -37 5 -15 4 -17 -6
-11 -7 4 -3 -5 8 -21 25 -35 113 -275 172 -469 23 -77 59 -194 81 -259 21 -66
36 -122 34 -124 -3 -3 -24 -1 -47 4 -41 9 -45 14 -114 124 -88 140 -115 224
-66 205 40 -15 31 45 -34 213 -20 53 -48 120 -62 149 l-24 52 -31 -15 c-18 -9
-47 -35 -65 -60 l-34 -44 -43 58 c-23 31 -40 60 -38 65 8 14 108 84 152 106
24 13 46 31 48 42 6 23 11 24 37 2 12 -10 15 -11 9 -3 -15 16 -17 40 -4 40 5
0 11 -8 14 -17z m-3814 -60 c-18 -32 -60 -103 -94 -158 -79 -128 -136 -236
-132 -249 2 -6 -10 -20 -27 -30 -31 -19 -31 -19 -9 -29 17 -7 30 -5 58 12 34
20 194 132 257 181 l27 21 -20 -68 c-24 -83 -35 -153 -23 -153 16 1 51 34 114
110 34 41 73 81 87 88 25 14 26 14 19 -20 -4 -18 -11 -85 -17 -148 -6 -63 -23
-252 -40 -420 -16 -168 -29 -339 -29 -380 0 -66 -34 -369 -42 -375 -2 -1 -55
-21 -118 -44 -110 -41 -267 -119 -490 -242 -58 -31 -151 -76 -208 -98 l-102
-41 -190 0 c-105 0 -190 3 -190 6 0 3 5 14 10 25 10 17 22 19 145 19 74 0 135
4 135 9 0 11 -36 18 -143 27 -48 4 -87 11 -87 15 0 5 40 86 88 181 143 279
309 538 486 758 42 52 76 98 76 104 0 5 -3 7 -6 3 -4 -3 -13 1 -21 9 -13 13
-19 12 -51 -8 -21 -12 -51 -33 -67 -47 -36 -31 -132 -77 -141 -68 -8 8 176
211 273 301 61 57 72 71 59 78 -12 7 -34 -1 -79 -28 -71 -43 -315 -198 -399
-255 -32 -21 -58 -35 -58 -30 0 16 58 119 110 196 122 182 257 345 448 539
l127 129 140 68 c77 38 144 68 148 69 5 0 -6 -26 -24 -57z m-1005 -19 c-126
-157 -160 -209 -289 -432 -26 -46 -49 -82 -50 -80 -4 4 63 216 80 253 14 33
274 309 283 301 2 -3 -8 -22 -24 -42z m121 -63 c-32 -60 -71 -122 -87 -138
l-29 -28 11 30 c30 79 136 245 157 245 2 0 -21 -49 -52 -109z m1325 -42 c22
-74 51 -164 64 -201 24 -63 24 -70 12 -140 -14 -81 -11 -83 -55 35 -16 44 -21
80 -21 152 0 80 -3 96 -19 107 -14 10 -20 32 -26 103 -4 50 -4 87 -1 84 3 -3
24 -66 46 -140z m3773 71 c3 -11 2 -18 -3 -15 -4 3 -10 14 -13 25 -3 11 -2 18
3 15 4 -3 10 -14 13 -25z m-9278 -70 c-16 -33 -31 -58 -33 -55 -2 2 8 31 24
64 15 34 30 59 33 56 2 -3 -8 -32 -24 -65z m5184 11 c-11 -30 -64 -70 -77 -57
-3 3 0 6 6 6 6 0 25 21 42 46 36 51 46 53 29 5z m-1669 -8 c-95 -104 -117
-125 -135 -135 -23 -13 108 136 139 158 33 23 32 16 -4 -23z m1801 8 c6 9 9 0
9 -28 0 -30 -7 -50 -25 -70 -28 -32 -31 -23 -10 36 8 23 13 47 11 54 -1 6 -1
8 2 3 2 -4 8 -2 13 5z m3319 -95 l43 -60 -18 -30 c-49 -86 -57 -106 -46 -120
9 -10 3 -31 -25 -90 -29 -60 -46 -83 -80 -107 -61 -42 -60 -71 4 -124 26 -21
50 -44 54 -51 4 -6 36 -28 71 -48 36 -21 90 -64 122 -96 l57 -57 -97 -13 c-59
-8 -116 -10 -148 -5 -29 5 -79 9 -112 9 l-60 1 -7 -40 c-5 -22 -11 -148 -14
-280 -7 -259 1 -343 36 -380 11 -12 20 -26 20 -32 0 -13 39 -48 46 -41 3 4 1
23 -5 45 -11 40 -14 100 -4 73 13 -32 93 -150 103 -150 5 0 33 -28 61 -62 28
-35 60 -68 71 -74 18 -10 18 -11 -6 -22 -13 -6 -54 -36 -90 -67 -36 -30 -66
-50 -66 -44 0 6 -6 9 -14 6 -10 -4 -16 5 -20 29 -10 51 -36 45 -36 -8 0 -40
-1 -40 -19 -24 -17 15 -19 15 -25 1 -3 -9 -6 -27 -6 -40 0 -14 -9 -29 -19 -35
-27 -14 -30 -13 -24 10 8 32 -23 14 -37 -21 -22 -52 -22 -24 0 32 32 86 71
229 65 239 -11 18 -26 10 -41 -22 l-15 -33 4 35 c3 25 -4 52 -24 92 -32 63
-46 77 -55 54 -9 -23 -23 -10 -17 14 4 15 1 19 -9 15 -12 -5 -17 12 -27 82
-15 99 -94 417 -109 436 -5 7 -13 30 -16 52 -4 22 -28 114 -54 205 -43 149
-47 161 -50 120 -4 -45 24 -420 34 -472 5 -23 2 -28 -14 -28 -25 0 -32 36 -37
181 -2 59 -13 147 -24 196 -38 170 -35 237 13 268 12 8 40 40 61 71 21 30 86
101 144 156 146 138 398 334 412 320 3 -4 26 -34 49 -66z m-4060 24 c-14 -11
-29 -20 -35 -20 -5 0 4 9 20 20 38 25 48 25 15 0z m-1026 -114 c-27 -69 -54
-121 -65 -127 -11 -5 -19 -6 -19 -1 0 14 121 254 126 249 2 -2 -16 -57 -42
-121z m-3594 89 c-7 -9 -15 -13 -19 -10 -3 3 1 10 9 15 21 14 24 12 10 -5z
m5447 -380 c-3 -176 -12 -396 -21 -490 -8 -93 -16 -214 -16 -268 0 -64 -4 -96
-10 -92 -6 4 -8 11 -4 16 3 6 -2 18 -13 27 -21 20 -28 74 -12 104 9 16 8 19
-3 12 -11 -6 -11 -5 1 9 7 10 9 17 3 17 -6 0 -9 30 -6 83 4 84 21 193 23 147
1 -17 4 -21 12 -13 16 16 28 242 29 538 0 143 4 271 8 285 6 22 7 20 10 -15 2
-22 2 -184 -1 -360z m212 323 c12 -34 21 -67 20 -72 0 -6 -8 12 -18 39 -27 76
-33 95 -28 95 3 0 15 -28 26 -62z m-1099 47 c0 -3 -15 -15 -34 -27 -19 -13
-74 -51 -123 -86 -48 -34 -72 -49 -53 -32 32 29 199 150 207 150 2 0 3 -2 3
-5z m55 -37 c-57 -65 -58 -66 -34 -23 23 40 46 64 63 65 4 0 -9 -19 -29 -42z
m420 12 c-3 -5 -11 -10 -16 -10 -6 0 -7 5 -4 10 3 6 11 10 16 10 6 0 7 -4 4
-10z m-5064 -27 c-8 -15 -10 -15 -11 -2 0 17 10 32 18 25 2 -3 -1 -13 -7 -23z
m5851 -188 c26 -64 31 -115 10 -115 -6 0 -88 233 -109 310 -8 28 70 -125 99
-195z m-1814 128 c-25 -56 -103 -166 -182 -257 -21 -25 23 58 67 124 44 66
140 200 143 200 2 0 -11 -30 -28 -67z m4336 46 c-10 -11 -28 -25 -39 -30 -11
-6 -4 4 15 21 40 35 52 39 24 9z m-3264 7 c0 -3 -15 -14 -32 -26 l-33 -22 28
26 c27 25 37 31 37 22z m3810 -112 c6 -27 13 -58 16 -69 3 -11 -17 15 -44 57
-34 51 -49 83 -45 97 5 19 7 19 34 -8 18 -18 33 -47 39 -77z m-8930 91 c0 -9
-39 -102 -78 -185 -22 -47 -52 -114 -67 -150 -36 -87 -65 -143 -71 -137 -2 2
2 17 11 33 8 16 15 35 15 42 0 7 18 49 39 95 21 45 42 92 46 105 3 12 11 22
17 22 5 0 8 6 5 13 -2 6 2 26 9 43 7 17 10 34 7 38 -4 3 1 6 10 6 10 0 19 11
23 28 10 45 13 52 24 52 5 0 10 -2 10 -5z m3651 -163 c-28 -82 -51 -157 -52
-168 0 -10 -3 -14 -5 -7 -3 7 4 47 15 90 30 108 84 259 89 245 2 -7 -19 -79
-47 -160z m534 52 c-24 -54 -54 -106 -66 -114 -12 -8 -20 -10 -18 -4 8 20 124
222 126 220 2 -1 -17 -47 -42 -102z m4045 -11 c-52 -54 -105 -109 -118 -123
l-25 -25 19 34 c16 28 200 210 213 211 3 0 -38 -44 -89 -97z m-3790 27 c-6
-11 -21 -20 -33 -20 -20 0 -19 2 8 20 37 25 38 25 25 0z m4429 -24 c76 -110
271 -420 267 -424 -3 -2 -62 4 -133 13 -139 18 -153 25 -240 108 -33 32 -41
46 -37 64 4 14 2 23 -5 23 -6 0 4 30 22 68 19 37 45 95 58 130 13 34 27 62 31
62 4 0 21 -20 37 -44z m-8899 -187 c-153 -437 -296 -1155 -330 -1654 -6 -88
-13 -189 -15 -225 -2 -36 -5 -77 -5 -92 0 -18 -5 -28 -15 -28 -8 0 -15 -4 -15
-10 0 -5 -7 -10 -16 -10 -8 0 -85 -36 -171 -80 l-156 -81 6 113 c4 80 17 153
41 250 34 134 177 590 183 584 2 -1 -4 -70 -12 -152 -17 -165 -19 -298 -6
-274 5 8 19 92 31 185 12 94 41 269 65 390 38 191 53 244 114 405 129 340 159
414 225 565 37 83 81 182 99 222 17 39 33 70 34 69 2 -2 -24 -81 -57 -177z
m3515 144 c-9 -21 -25 -47 -36 -58 -20 -19 -20 -18 1 25 37 74 62 97 35 33z
m255 -83 c-29 -108 -38 -121 -19 -28 10 53 40 141 44 136 2 -2 -10 -50 -25
-108z m-376 -7 c-26 -49 -60 -104 -76 -123 -15 -19 -28 -44 -28 -55 0 -24 -55
-115 -69 -115 -23 0 -17 23 27 106 60 113 171 274 189 274 2 0 -17 -39 -43
-87z m2470 -102 c4 -6 3 -19 -3 -28 -8 -15 -10 -16 -15 -3 -9 26 -56 212 -56
218 1 4 16 -34 34 -84 18 -50 36 -97 40 -103z m146 107 c0 -5 -4 -8 -9 -8 -8
0 -13 10 -36 75 -4 11 4 2 19 -20 14 -22 26 -43 26 -47z m-1950 23 c-18 -36
-40 -61 -40 -46 0 7 51 85 57 85 2 0 -6 -18 -17 -39z m-507 -31 c-29 -66 -42
-74 -23 -13 11 32 36 73 46 73 1 0 -9 -27 -23 -60z m2106 -125 c0 -22 -6 -76
-14 -120 l-13 -80 -1 90 c-1 50 -3 128 -6 175 l-5 85 20 -55 c10 -30 19 -73
19 -95z m-2101 22 c-20 -101 -23 -107 -46 -107 -18 0 -22 3 -14 13 5 6 18 39
27 72 20 69 46 137 51 133 1 -2 -7 -52 -18 -111z m3837 -65 c-99 -98 -213
-213 -254 -255 -41 -43 -90 -87 -108 -98 -18 -11 -33 -27 -33 -35 0 -8 -10
-14 -25 -14 -14 0 -25 3 -25 6 0 21 222 252 350 364 58 52 262 209 270 209 3
0 -76 -80 -175 -177z m-5398 68 c46 -39 81 -75 78 -80 -7 -12 -159 103 -185
140 -43 61 -21 48 107 -60z m2329 91 c-3 -5 -61 -39 -128 -76 -68 -38 -133
-75 -145 -83 -21 -13 -23 -13 -23 5 0 14 34 35 148 90 169 82 155 76 148 64z
m1480 -235 c-7 -64 -21 -63 -46 4 -19 50 -22 73 -17 126 4 36 10 70 14 77 11
18 54 -162 49 -207z m-2353 139 c-10 -50 -11 -71 -2 -87 10 -18 9 -20 -6 -14
-10 3 -33 2 -52 -5 -49 -16 -54 -9 -32 41 15 33 93 130 104 130 1 0 -4 -29
-12 -65z m2621 -20 c-3 -19 -10 -35 -14 -35 -13 0 -20 45 -14 79 6 31 7 31 21
11 9 -13 12 -31 7 -55z m-105 17 c0 -15 -6 -43 -13 -62 l-13 -35 -7 36 c-7 38
10 103 25 93 5 -3 9 -17 8 -32z m220 -17 c19 -27 31 -54 29 -68 -2 -18 -9 -11
-35 35 -30 52 -39 78 -30 78 2 0 18 -20 36 -45z m-4286 -35 c3 -11 1 -18 -4
-14 -5 3 -9 12 -9 20 0 20 7 17 13 -6z m422 -108 l70 -39 3 -53 c3 -47 1 -52
-12 -40 -9 7 -16 19 -16 27 0 12 -7 14 -29 10 -29 -6 -30 -5 -33 36 -3 38 -5
42 -29 39 -20 -2 -37 10 -77 52 -29 30 -52 57 -52 61 0 4 24 -7 53 -23 28 -17
84 -48 122 -70z m5610 79 c10 -18 -18 -105 -49 -148 -16 -23 -31 -41 -34 -39
-4 4 36 174 45 189 6 10 31 9 38 -2z m-3707 -56 c-17 -35 -24 -42 -35 -33 -11
9 -8 17 19 45 17 18 33 33 35 33 1 0 -7 -20 -19 -45z m1934 -110 c1 -22 -8
-76 -20 -120 -32 -120 -102 -772 -102 -952 0 -48 -4 -83 -10 -83 -20 0 -23 57
-12 224 7 94 14 216 17 271 7 113 50 539 64 630 5 33 13 89 17 125 l7 65 19
-60 c10 -33 19 -78 20 -100z m-253 46 c-11 -40 -14 -42 -22 -23 -7 14 -6 36 3
68 12 43 14 45 22 23 6 -15 5 -40 -3 -68z m103 -179 c-38 -264 -58 -468 -67
-673 -11 -239 -27 -204 -21 46 4 203 36 531 77 800 14 96 18 106 32 77 8 -19
4 -76 -21 -250z m-3848 -12 c3 -234 26 -455 73 -713 12 -72 13 -93 3 -112 -7
-13 -10 -31 -7 -39 4 -9 3 -16 -1 -16 -25 1 -37 33 -65 171 l-30 154 -4 410
c-4 372 -3 409 12 395 13 -13 16 -54 19 -250z m992 222 c-23 -23 -33 -6 -10
19 12 13 20 16 22 9 3 -7 -3 -19 -12 -28z m4349 30 c-6 -4 -26 -27 -45 -52
-101 -130 -155 -178 -198 -180 -7 0 37 54 100 120 72 77 120 120 133 120 11 0
15 -4 10 -8z m311 -8 c-3 -9 -16 -68 -27 -132 -14 -81 -28 -126 -45 -151 -13
-20 -24 -40 -24 -44 0 -11 -133 -187 -137 -183 -10 9 222 525 236 526 2 0 0
-7 -3 -16z m-8030 -41 c-8 -15 -15 -25 -16 -21 0 12 23 58 27 54 3 -2 -2 -17
-11 -33z m2120 -16 c9 -17 13 -39 9 -55 -8 -31 -19 -19 -32 33 -6 22 -14 49
-19 60 -7 18 -6 19 10 6 9 -8 24 -28 32 -44z m145 -192 c-6 -61 -12 -234 -12
-385 -1 -194 -4 -262 -11 -230 -13 64 -14 249 -4 426 8 138 7 152 -8 161 -15
8 -16 16 -6 77 7 36 10 76 7 87 -3 12 4 41 16 66 l22 45 3 -68 c2 -38 -1 -119
-7 -179z m3709 142 c0 -16 -71 -200 -75 -194 -2 1 30 255 35 277 2 11 39 -66
40 -83z m-4195 53 c-3 -5 -12 -10 -20 -10 -10 0 -107 -64 -185 -124 -13 -10
-13 -9 -1 7 8 10 54 45 103 77 85 57 117 72 103 50z m-311 -12 c-22 -38 -85
-128 -90 -128 -7 0 1 13 49 83 22 31 42 57 44 57 2 0 1 -6 -3 -12z m1009 -245
c3 -149 13 -308 27 -426 19 -168 21 -211 6 -196 -14 14 -56 484 -56 623 0 92
-4 157 -10 161 -5 3 -10 26 -10 51 0 41 2 44 19 35 17 -10 19 -29 24 -248z
m5746 209 c8 -37 7 -61 -3 -99 -8 -28 -35 -181 -61 -340 l-47 -288 -56 -52
c-31 -28 -58 -50 -60 -48 -6 6 41 217 95 425 30 118 66 262 79 320 35 153 37
156 53 82z m-3620 -42 c-34 -44 -64 -80 -66 -80 -5 0 25 52 60 105 22 33 46
55 59 55 5 0 -19 -36 -53 -80z m2845 -23 c-49 -52 -91 -93 -93 -91 -2 2 36 46
85 97 49 52 91 93 93 91 2 -2 -36 -46 -85 -97z m-3114 79 c0 -2 -8 -10 -17
-17 -16 -13 -17 -12 -4 4 13 16 21 21 21 13z m-1656 -63 c-8 -25 -15 -71 -15
-102 -1 -31 -4 -47 -6 -37 -10 37 8 186 22 186 11 0 10 -9 -1 -47z m5041 20
c-28 -20 -41 -16 -20 7 10 11 22 17 28 13 6 -4 3 -12 -8 -20z m-3606 -12 c11
-7 8 -17 -18 -50 -18 -23 -35 -41 -38 -41 -7 0 8 62 21 82 12 20 15 21 35 9z
m165 -16 c-9 -14 -21 -25 -27 -25 -6 0 0 11 13 25 13 14 25 25 27 25 2 0 -4
-11 -13 -25z m1775 -119 c-18 -69 -35 -123 -37 -121 -2 2 8 63 24 135 18 86
31 127 37 121 7 -7 -1 -53 -24 -135z m-4798 42 c-99 -185 -149 -317 -181 -481
-18 -92 -22 -60 -5 39 20 112 62 240 115 345 39 77 108 189 117 189 2 0 -19
-42 -46 -92z m3065 -28 c-31 -62 -147 -246 -164 -260 -7 -6 6 17 113 202 43
76 81 136 83 134 2 -3 -12 -36 -32 -76z m122 33 c-12 -27 -58 -104 -103 -173
-45 -69 -94 -146 -109 -172 -16 -27 -30 -48 -32 -48 -6 0 8 27 82 156 35 61
64 116 64 122 0 24 99 162 116 162 2 0 -7 -21 -18 -47z m-2888 33 c0 -2 -8
-10 -17 -17 -16 -13 -17 -12 -4 4 13 16 21 21 21 13z m1047 -43 c-3 -10 -5 -4
-5 12 0 17 2 24 5 18 2 -7 2 -21 0 -30z m3368 -134 c-59 -256 -66 -292 -68
-346 l-1 -52 -27 32 c-17 21 -24 37 -19 47 4 8 10 32 13 52 6 41 129 430 134
425 1 -2 -13 -73 -32 -158z m139 -70 c-14 -112 -29 -271 -33 -354 l-6 -150
-42 71 c-24 39 -43 75 -43 82 0 6 16 67 35 134 33 116 90 340 102 401 3 15 7
26 10 24 2 -3 -8 -96 -23 -208z m517 44 c14 -105 15 -132 5 -151 -11 -22 -14
-11 -19 89 -4 63 -10 134 -13 159 -4 25 -3 42 1 38 4 -4 16 -65 26 -135z
m-2510 80 c-18 -21 -71 -86 -119 -145 -47 -60 -92 -108 -99 -108 -15 0 92 167
153 237 32 38 52 53 71 53 l25 0 -31 -37z m538 -10 c-26 -27 -83 -99 -128
-160 -46 -62 -85 -113 -88 -113 -14 0 209 294 235 309 30 18 27 12 -19 -36z
m2671 27 c0 -5 -9 -10 -21 -10 -11 0 -17 5 -14 10 3 6 13 10 21 10 8 0 14 -4
14 -10z m-3395 -60 c-9 -16 -18 -30 -20 -30 -6 0 6 32 18 48 17 22 18 13 2
-18z m605 8 c0 -7 -12 -26 -26 -43 l-25 -30 23 42 c25 46 28 50 28 31z m1241
-215 c-10 -48 -10 -48 -6 16 3 35 6 94 7 130 2 64 2 64 5 -16 2 -44 -1 -103
-6 -130z m1885 170 c-33 -63 -140 -161 -221 -203 -60 -31 -72 -35 -49 -16 17
13 87 74 155 135 68 60 125 110 127 110 1 1 -4 -11 -12 -26z m-3568 -35 c-9
-13 -46 -77 -83 -143 -121 -213 -295 -459 -312 -441 -4 4 102 182 182 306 57
88 214 300 222 300 3 0 -1 -10 -9 -22z m3859 -14 c-18 -112 -371 -594 -648
-885 -85 -90 -175 -185 -198 -211 -64 -70 -70 -58 -9 15 30 34 75 94 102 132
95 136 190 261 266 350 93 110 187 232 265 345 95 136 213 290 223 290 2 0 2
-16 -1 -36z m-1940 4 c-3 -8 -6 -5 -6 6 -1 11 2 17 5 13 3 -3 4 -12 1 -19z
m1999 -93 c-13 -49 -25 -83 -25 -74 -2 26 18 121 31 153 21 52 18 13 -6 -79z
m-5991 -19 c-31 -58 -58 -106 -61 -106 -7 0 64 160 86 190 43 60 31 21 -25
-84z m3982 62 c-3 -8 -6 -5 -6 6 -1 11 2 17 5 13 3 -3 4 -12 1 -19z m483 -369
c-44 -93 -80 -174 -80 -181 0 -6 -2 -9 -5 -6 -3 3 25 115 64 249 38 134 72
260 77 279 7 29 9 18 16 -69 l8 -104 -80 -168z m-6675 323 c-11 -50 -63 -176
-74 -180 -13 -4 -3 60 11 69 5 3 12 25 15 48 4 25 11 41 19 41 14 0 18 12 15
38 -1 6 3 12 9 12 8 0 9 -10 5 -28z m6179 -16 c-3 -21 -8 -35 -11 -32 -2 2 -1
20 3 40 3 21 8 35 11 32 2 -2 1 -20 -3 -40z m2243 -8 c-3 -7 -5 -2 -5 12 0 14
2 19 5 13 2 -7 2 -19 0 -25z m-4107 -28 c-11 -22 -23 -40 -25 -40 -3 0 4 18
15 40 11 22 23 40 25 40 3 0 -4 -18 -15 -40z m4244 -15 c5 -22 4 -26 -4 -15
-5 8 -10 24 -10 34 0 26 6 18 14 -19z m-4664 -5 c-12 -16 -24 -30 -26 -30 -7
0 5 20 24 43 24 27 25 20 2 -13z m4530 -22 c-8 -46 -28 -103 -34 -97 -4 4 12
113 20 137 9 30 20 -1 14 -40z m-1826 -145 c-9 -35 -18 -62 -20 -60 -5 5 17
221 24 237 16 35 12 -118 -4 -177z m-437 155 c-3 -8 -6 -5 -6 6 -1 11 2 17 5
13 3 -3 4 -12 1 -19z m1513 18 c0 -2 -15 -13 -32 -24 -18 -10 -73 -44 -123
-74 -108 -66 -234 -135 -220 -121 31 31 164 116 260 165 118 61 115 60 115 54z
m-1817 -20 c4 -10 1 -13 -8 -9 -8 3 -12 9 -9 14 7 12 11 11 17 -5z m2252 -61
c-3 -30 -1 -106 6 -168 7 -68 8 -120 3 -129 -15 -26 -318 -247 -524 -382 -107
-71 -191 -124 -186 -120 103 105 308 327 353 384 95 120 311 409 330 441 10
16 19 29 21 29 3 0 1 -25 -3 -55z m-3598 18 c-3 -5 -24 -39 -47 -78 -24 -38
-63 -110 -86 -159 -24 -49 -44 -82 -44 -73 0 9 -5 17 -12 17 -6 0 -4 7 5 18
10 10 17 21 17 25 0 19 153 257 166 257 3 0 3 -3 1 -7z m-535 -75 c-61 -90
-130 -208 -141 -241 -14 -42 -54 -96 -101 -134 l-34 -28 21 30 c12 17 72 109
133 205 106 164 138 210 147 210 2 0 -9 -19 -25 -42z m3871 30 c-152 -201
-206 -267 -215 -265 -7 1 -14 -7 -16 -18 -2 -11 -23 -42 -47 -70 -23 -27 -70
-88 -105 -135 -113 -152 -108 -141 38 88 100 157 196 277 212 267 4 -3 21 12
36 33 36 47 95 112 101 112 3 0 1 -6 -4 -12z m-7936 -75 c-8 -26 -34 -112 -58
-191 -24 -78 -45 -138 -47 -133 -4 12 51 234 69 276 7 17 11 34 11 38 -3 12
29 70 35 64 3 -3 -2 -27 -10 -54z m4602 -140 c-87 -167 -109 -202 -109 -168 0
30 169 325 187 325 2 0 -33 -71 -78 -157z m1523 140 c15 -17 68 -117 68 -128
0 -3 -9 -5 -20 -5 -11 0 -20 -4 -20 -10 0 -5 24 -44 53 -87 60 -88 111 -203
168 -378 51 -158 94 -314 87 -320 -2 -3 -32 8 -65 24 -74 36 -138 55 -268 80
-55 11 -112 22 -127 26 -24 6 -28 4 -28 -14 0 -15 7 -21 23 -23 12 -1 -54 -5
-148 -9 -122 -5 -193 -13 -249 -28 -44 -12 -81 -19 -83 -17 -7 7 62 45 275
151 191 96 243 127 230 140 -4 4 -81 -15 -123 -30 -11 -4 -2 5 20 21 76 54
-26 39 -146 -22 -77 -38 -92 -31 -26 15 24 16 49 37 57 45 12 15 10 16 -13 7
-45 -17 -139 -70 -249 -139 -114 -72 -166 -111 -240 -180 -25 -24 -73 -63
-105 -86 -32 -24 -72 -57 -88 -74 -17 -18 -33 -32 -37 -32 -12 0 -9 59 3 82
13 25 5 35 -16 18 -8 -7 -15 -9 -15 -6 0 4 -7 0 -16 -8 -22 -23 -31 -20 -37
12 -25 135 -34 202 -30 224 6 32 -14 46 -34 25 -19 -18 -20 -62 -4 -182 6 -50
13 -104 15 -121 4 -25 -2 -38 -26 -60 -16 -16 -36 -45 -45 -65 -13 -32 -18
-36 -46 -34 -18 1 -35 -3 -39 -9 -6 -8 -8 -8 -8 1 0 6 -9 9 -20 6 -17 -4 -20
0 -20 25 0 22 -6 32 -20 37 -31 10 -40 -2 -40 -55 0 -27 -4 -51 -9 -54 -9 -6
-17 23 -42 159 -15 84 -31 107 -55 83 -15 -15 -15 -25 0 -126 19 -135 19 -131
1 -105 -17 24 -109 80 -154 93 -21 6 -35 4 -50 -7 -19 -13 -21 -12 -22 4 0 10
-3 13 -6 6 -2 -7 -11 -13 -19 -13 -16 0 -15 0 -19 -53 -1 -21 -5 -40 -8 -43
-3 -3 -36 4 -73 15 -104 31 -381 68 -404 53 -10 -6 -49 -16 -87 -23 -59 -10
-125 -29 -186 -54 -15 -6 -13 4 12 76 17 46 44 117 60 158 34 82 38 109 16
117 -12 5 -12 11 2 45 12 31 13 42 3 54 -8 10 -9 15 -2 15 6 0 20 20 31 44 27
61 100 156 129 167 34 13 202 12 202 -2 0 -6 -9 -25 -21 -42 l-21 -32 29 30
c15 17 40 45 54 63 l26 34 183 10 c135 8 185 7 188 -1 5 -14 32 -15 32 -1 0 6
54 10 143 9 109 0 137 -3 120 -11 -26 -12 -31 -46 -9 -54 8 -3 36 4 62 15 43
20 48 20 59 4 11 -14 18 -15 60 -4 26 7 61 19 76 27 15 7 39 14 53 14 14 0 29
7 33 15 15 26 346 173 543 240 52 18 112 40 133 49 33 14 37 14 37 1 0 -24 26
-18 38 9 6 14 36 37 69 54 131 66 208 118 211 140 4 27 14 28 34 5z m-4073
-190 c-84 -283 -82 -281 -91 -153 -4 58 -9 112 -10 120 -2 11 148 230 157 230
1 0 -24 -89 -56 -197z m1752 100 c-33 -49 -87 -122 -121 -163 -33 -41 -88
-111 -122 -155 -69 -91 -93 -115 -117 -115 -13 0 -13 2 -2 9 7 5 10 14 7 20
-4 6 16 36 47 69 61 65 203 232 261 307 40 51 97 115 103 115 2 0 -23 -39 -56
-87z m2104 37 c3 -5 -1 -10 -9 -10 -9 0 -16 5 -16 10 0 6 4 10 9 10 6 0 13 -4
16 -10z m-1780 -63 c-13 -32 -27 -57 -29 -57 -2 0 -12 -3 -21 -6 -11 -5 -1 17
26 59 24 36 45 64 47 63 1 -2 -9 -28 -23 -59z m-433 26 c-11 -16 -48 -57 -82
-93 -58 -61 -60 -62 -24 -15 36 48 114 135 122 135 2 0 -5 -12 -16 -27z m2088
7 c-8 -5 -19 -10 -25 -10 -5 0 -3 5 5 10 8 5 20 10 25 10 6 0 3 -5 -5 -10z
m574 -220 c6 -20 5 -22 -4 -10 -15 21 -120 228 -120 237 0 13 117 -201 124
-227z m-4152 193 c-15 -29 -57 -156 -116 -350 -56 -188 -95 -274 -82 -183 17
114 79 310 138 433 34 70 63 125 65 123 3 -2 0 -13 -5 -23z m4782 -73 c1 -53
-3 -69 -20 -86 -11 -11 -37 -51 -59 -90 -21 -38 -51 -88 -67 -111 -15 -23 -28
-44 -28 -48 0 -8 172 85 343 186 81 48 147 85 147 81 0 -4 -51 -60 -113 -125
l-112 -117 -105 -41 c-112 -43 -195 -69 -222 -69 -15 0 -15 3 0 43 14 34 18
38 20 20 2 -13 7 -23 12 -23 11 0 15 15 35 119 9 49 29 112 48 150 19 36 44
93 57 126 13 33 28 66 33 73 17 22 31 -15 31 -88z m-4041 25 c1 -5 -6 -11 -15
-13 -11 -2 -18 3 -18 13 0 17 30 18 33 0z m4540 -27 c-26 -23 -96 -86 -155
-141 -165 -155 -189 -158 -48 -8 91 97 139 141 180 162 75 38 79 36 23 -13z
m872 -5 c-33 -79 -153 -213 -190 -213 -3 0 40 56 96 125 56 69 103 125 106
125 2 0 -4 -16 -12 -37z m-1099 -8 c-11 -8 -25 -15 -30 -15 -6 1 0 7 14 15 32
19 40 18 16 0z m-546 -135 c-22 -63 -44 -142 -51 -175 l-11 -59 -19 23 c-13
15 -17 31 -13 45 9 28 128 286 131 283 1 -2 -15 -54 -37 -117z m1846 20 c-14
-46 -21 -14 -10 49 7 43 8 44 14 16 3 -16 1 -46 -4 -65z m382 -34 c12 0 22 -2
22 -6 0 -9 -58 -176 -59 -169 -2 15 -42 246 -46 269 -3 14 9 -2 27 -35 26 -47
38 -60 56 -59z m-4877 85 c-10 -17 -99 -81 -115 -81 -16 0 25 44 66 71 50 34
63 36 49 10z m3064 9 c-3 -5 -12 -10 -18 -10 -7 0 -6 4 3 10 19 12 23 12 15 0z
m-3859 -26 c38 -14 74 -30 79 -35 9 -10 -49 11 -125 44 -56 25 -29 19 46 -9z
m-999 -46 c-8 -82 -27 -133 -50 -135 -10 0 -16 4 -14 10 2 7 17 51 33 100 15
48 30 87 33 87 2 0 1 -28 -2 -62z m1271 45 c-85 -102 -134 -153 -145 -153 -7
0 -13 -11 -13 -25 0 -14 -2 -25 -5 -25 -14 0 -85 41 -85 50 0 17 33 27 76 22
34 -4 44 -1 44 10 0 15 121 138 136 138 4 0 0 -8 -8 -17z m-437 -27 c166 -60
193 -74 179 -91 -17 -21 -39 -19 -85 9 -22 13 -76 44 -120 70 -44 25 -77 46
-73 46 3 0 48 -15 99 -34z m3684 -3 c-7 -38 -64 -185 -64 -168 -1 15 61 205
66 205 3 0 2 -16 -2 -37z m1389 15 c-171 -195 -154 -181 -347 -291 -198 -113
-251 -141 -366 -193 l-76 -34 46 42 c25 24 129 95 230 158 101 63 260 166 354
227 93 62 172 113 174 113 3 0 -4 -10 -15 -22z m-5691 -96 c4 -88 3 -101 -9
-91 -10 8 -14 36 -14 99 0 72 6 109 15 98 1 -2 5 -49 8 -106z m1260 76 c-9
-18 -19 -51 -22 -72 -5 -35 -12 -42 -66 -72 -33 -19 -66 -34 -73 -34 -14 0 31
58 122 157 26 29 50 53 52 53 3 0 -3 -15 -13 -32z m3767 9 c0 -1 -24 -25 -52
-52 l-53 -50 50 53 c46 48 55 57 55 49z m-5604 -432 c8 -104 24 -230 34 -280
51 -246 119 -511 180 -700 37 -115 76 -237 85 -270 10 -33 44 -125 77 -205 33
-80 62 -152 65 -160 3 -8 -10 0 -30 19 -20 19 -34 37 -32 40 3 2 -6 16 -20 31
-30 31 -60 105 -120 295 -178 565 -258 1000 -269 1455 -3 176 -3 188 5 85 5
-66 16 -205 25 -310z m5568 328 c-100 -178 -174 -318 -174 -327 0 -6 16 7 36
29 19 22 8 2 -27 -44 -34 -46 -83 -105 -108 -132 -44 -46 -48 -48 -62 -31 -8
9 -26 24 -39 33 l-25 17 20 38 c11 21 52 72 91 113 39 42 97 109 128 150 59
77 185 221 193 221 3 0 -12 -30 -33 -67z m1257 -16 c-8 -8 -11 -3 -11 15 0 15
-2 35 -5 45 -3 10 2 3 10 -16 12 -24 13 -37 6 -44z m-2302 -27 c0 -11 -3 -10
-14 4 -8 11 -15 31 -14 45 1 26 1 26 14 -4 8 -16 14 -37 14 -45z m506 60 c-3
-5 -14 -10 -23 -9 -14 0 -13 2 3 9 27 11 27 11 20 0z m-4285 -38 c0 -28 5 -37
76 -138 53 -77 152 -259 119 -219 -14 17 -47 62 -73 102 -128 195 -142 221
-142 258 0 21 4 34 10 30 6 -3 10 -18 10 -33z m5628 -9 c-7 -17 -44 -59 -82
-94 l-70 -64 65 84 c35 46 71 92 79 103 19 27 24 8 8 -29z m-5104 6 c20 -12
36 -23 36 -25 0 -10 -19 -2 -50 21 -41 30 -34 33 14 4z m597 -8 c-6 -10 -25
-24 -42 -30 -43 -15 -45 -14 -25 8 11 12 25 17 34 14 11 -5 14 -2 9 10 -5 12
-1 17 14 17 16 0 18 -3 10 -19z m180 -10 c-20 -28 -76 -47 -86 -30 -8 13 56
59 81 59 l25 0 -20 -29z m499 19 c0 -5 -5 -10 -11 -10 -5 0 -7 5 -4 10 3 6 8
10 11 10 2 0 4 -4 4 -10z m-463 -36 c-3 -3 -12 -4 -19 -1 -8 3 -5 6 6 6 11 1
17 -2 13 -5z m4693 -69 c-12 -31 -24 -54 -27 -52 -2 3 4 32 14 65 11 36 22 57
27 52 5 -5 0 -32 -14 -65z m-5355 25 c43 -24 76 -49 83 -65 8 -18 19 -25 40
-25 18 0 38 -10 57 -30 37 -39 26 -48 -22 -20 -92 55 -253 164 -253 171 0 16
22 9 95 -31z m5069 -116 c-30 -120 -48 -170 -95 -259 -31 -60 -78 -158 -105
-218 -26 -59 -49 -106 -51 -104 -4 4 54 148 102 252 45 97 84 201 137 363 22
68 42 121 45 119 2 -3 -13 -71 -33 -153z m2071 116 c19 0 33 -28 41 -79 4 -23
11 -44 15 -47 18 -11 8 -45 -25 -81 -18 -21 -41 -55 -49 -75 -14 -32 -21 -38
-47 -38 -20 0 -42 11 -65 32 -43 38 -47 78 -11 111 14 13 28 36 32 53 9 40 15
48 24 34 5 -9 15 -6 34 11 20 18 26 32 27 68 1 25 3 38 6 29 2 -10 11 -18 18
-18z m-6876 -45 l-32 -56 -23 22 c-13 12 -24 26 -24 31 0 8 102 69 108 64 2
-2 -11 -29 -29 -61z m4529 48 c-154 -184 -362 -403 -372 -392 -10 11 228 284
286 328 34 26 69 55 77 64 7 10 16 17 19 17 3 0 -1 -8 -10 -17z m-5950 -173
c-22 -76 -37 -116 -42 -105 -12 32 -6 78 26 183 31 99 33 104 42 75 7 -25 1
-58 -26 -153z m6673 117 c13 -45 13 -58 2 -86 -8 -18 -15 -32 -17 -30 -8 10
-15 169 -8 169 5 0 15 -24 23 -53z m-4821 33 c-8 -5 -44 -9 -80 -8 l-65 1 55
7 c91 11 107 11 90 0z m2494 -81 c-9 -16 -24 10 -23 41 l0 25 15 -28 c8 -15
12 -32 8 -38z m919 31 c-9 -17 -28 -43 -41 -58 -13 -15 -6 -1 14 31 38 59 58
79 27 27z m801 -2 c-3 -13 -13 -38 -20 -57 -14 -33 -15 -34 -34 -16 -20 19
-20 19 17 57 43 44 47 46 37 16z m-4550 -43 c-45 -51 -49 -54 -65 -39 -17 16
-17 18 2 55 18 37 22 39 65 39 l45 0 -47 -55z m2806 -97 c32 -68 81 -163 109
-213 28 -49 51 -93 51 -97 0 -9 -85 39 -98 55 -6 7 -32 75 -57 152 -67 200
-75 225 -69 225 3 0 32 -55 64 -122z m475 113 c-12 -10 -187 -67 -233 -75 -24
-4 -32 -2 -29 7 2 6 29 15 59 19 51 6 163 40 176 53 3 3 12 5 21 5 9 0 11 -3
6 -9z m98 -71 c-39 -39 -69 -60 -84 -60 -20 0 -15 6 26 34 28 19 64 46 80 60
53 44 42 28 -22 -34z m1687 -181 c-39 -77 -139 -233 -146 -227 -4 5 107 332
142 418 l19 45 9 -86 c8 -84 8 -86 -24 -150z m202 170 c-33 -30 -52 -37 -52
-19 0 12 72 61 79 54 3 -3 -9 -19 -27 -35z m-6032 6 c11 -13 10 -14 -4 -9 -9
3 -16 10 -16 15 0 13 6 11 20 -6z m4020 -2 c-1 -21 -53 -44 -93 -41 l-42 3 60
22 c68 24 75 26 75 16z m-4390 -135 c0 -14 -34 6 -61 36 -16 17 -28 40 -28 51
0 16 10 9 44 -30 25 -27 45 -53 45 -57z m170 5 c54 -55 78 -84 55 -67 -22 16
-59 42 -83 58 -36 23 -72 73 -72 101 0 10 6 4 100 -92z m-720 45 c0 -16 -3
-19 -11 -11 -6 6 -8 16 -5 22 11 17 16 13 16 -11z m1560 -6 c0 -4 -16 -29 -35
-56 -19 -27 -35 -42 -35 -33 0 8 6 22 13 29 7 7 18 25 24 41 11 25 33 38 33
19z m4060 4 c0 -2 -35 -26 -77 -53 -119 -77 -272 -156 -292 -150 -10 2 -27 0
-37 -6 -13 -7 -16 -6 -9 1 8 8 401 210 413 212 1 0 2 -2 2 -4z m-5391 -351
l-13 -150 -17 90 c-24 123 -23 160 9 294 l27 116 3 -100 c2 -55 -2 -167 -9
-250z m4526 334 c16 0 14 -3 -7 -11 -16 -5 -28 -15 -28 -21 -1 -14 -30 22 -30
36 0 5 10 7 23 3 12 -3 31 -6 42 -7z m136 -78 c-34 -38 -67 -81 -75 -96 l-14
-27 -36 65 c-20 35 -36 67 -36 70 0 4 12 7 28 7 15 1 47 12 72 25 25 13 62 24
84 25 l38 0 -61 -69z m-226 -25 c41 -90 67 -174 56 -181 -9 -5 -89 182 -98
228 -9 47 7 29 42 -47z m1494 51 c-6 -13 -20 -29 -31 -36 -16 -10 -15 -6 7 23
32 42 39 45 24 13z m-99 3 c0 -5 -5 -10 -11 -10 -5 0 -7 5 -4 10 3 6 8 10 11
10 2 0 4 -4 4 -10z m-381 -36 c-43 -46 -251 -184 -273 -182 -5 1 -24 -11 -42
-26 -20 -16 -34 -22 -34 -14 1 16 20 40 45 55 84 50 284 175 300 187 37 28 39
16 4 -20z m-1242 -88 c130 -65 153 -80 186 -124 20 -27 37 -56 37 -65 0 -9 8
-21 18 -26 16 -9 64 -101 106 -203 8 -21 21 -38 29 -38 24 0 38 -25 62 -115
37 -132 40 -225 16 -405 -19 -139 -25 -163 -61 -235 -50 -101 -127 -204 -179
-238 -22 -15 -107 -49 -188 -76 -161 -53 -229 -69 -218 -52 3 6 12 11 18 11 7
0 28 13 47 29 33 27 34 28 12 35 -31 10 -27 31 9 58 57 42 298 354 377 487 38
65 72 166 72 214 0 63 -28 204 -45 235 -16 27 -16 27 -10 -18 3 -25 9 -56 12
-69 4 -17 2 -22 -6 -17 -8 5 -11 -14 -11 -66 0 -73 -21 -176 -38 -187 -5 -3
-14 -23 -21 -43 -23 -70 -38 -62 -20 10 10 37 18 88 18 114 1 26 6 50 11 53
13 8 13 235 0 270 -5 14 -12 40 -15 57 -8 42 -34 89 -48 86 -7 -1 -59 45 -117
103 -101 102 -200 173 -277 200 -18 6 -33 17 -33 25 0 8 6 11 15 8 8 -4 15
-10 15 -15 0 -5 5 -9 11 -9 5 0 8 4 5 9 -4 5 -2 11 4 13 5 1 11 15 12 31 4 42
30 35 195 -47z m-4362 -119 c-8 -44 -17 -82 -19 -84 -2 -2 -9 24 -16 58 -13
62 -7 116 23 189 9 23 11 21 19 -29 6 -38 4 -77 -7 -134z m5889 96 c-15 -27
-33 -56 -39 -66 -19 -27 -198 -177 -212 -177 -7 0 -12 -5 -10 -11 1 -6 -4 -14
-10 -16 -30 -11 -9 28 50 91 62 68 232 226 243 226 3 0 -6 -21 -22 -47z
m-5427 -95 c23 -48 40 -88 39 -88 -11 0 -100 162 -110 200 l-7 25 18 -24 c10
-14 37 -64 60 -113z m183 97 c13 -14 21 -25 18 -25 -2 0 -15 11 -28 25 -13 14
-21 25 -18 25 2 0 15 -11 28 -25z m2720 1 c0 -2 -7 -7 -16 -10 -8 -3 -12 -2
-9 4 6 10 25 14 25 6z m-2544 -51 c41 -34 91 -101 82 -111 -3 -2 -35 29 -72
71 -37 41 -64 75 -60 75 4 0 26 -16 50 -35z m2479 15 c-3 -5 -16 -15 -28 -21
-19 -9 -19 -8 3 10 28 23 34 26 25 11z m2695 7 c0 -2 -12 -14 -27 -28 l-28
-24 24 28 c23 25 31 32 31 24z m-1872 -21 c23 -8 66 -31 97 -51 l57 -36 -133
-141 c-74 -77 -140 -143 -148 -146 -21 -8 -135 -131 -137 -148 -1 -7 -23 -37
-48 -66 -93 -106 -23 -64 169 101 76 66 141 118 143 116 3 -3 -1 -11 -8 -20
-10 -12 -10 -15 2 -15 16 0 138 99 220 178 26 25 49 44 52 41 2 -2 7 -22 10
-45 7 -39 5 -43 -54 -110 -80 -91 -332 -354 -497 -518 -125 -124 -163 -174
-163 -211 0 -10 -14 -30 -31 -46 -27 -26 -38 -29 -93 -29 -50 0 -71 6 -114 30
l-53 31 18 30 c10 17 62 77 116 134 89 95 113 137 68 120 -18 -7 17 32 164
183 55 56 96 102 91 102 -11 0 -59 -44 -280 -254 -174 -166 -255 -232 -267
-219 -14 16 -49 88 -49 103 0 8 -9 29 -20 45 -38 57 -12 187 43 217 12 6 63
48 113 92 190 170 361 304 529 416 124 82 157 109 149 121 -7 13 8 11 54 -5z
m2072 -75 c-41 -112 -174 -395 -178 -381 -6 16 30 101 113 275 40 83 76 160
80 173 4 13 9 22 11 19 3 -2 -9 -41 -26 -86z m-984 -23 c4 -7 3 -8 -4 -4 -7 4
-12 3 -12 -2 0 -6 -7 -12 -15 -16 -12 -4 -13 -2 -2 14 14 23 23 25 33 8z
m-4782 -383 c38 -93 106 -246 152 -338 46 -93 84 -172 84 -175 -1 -20 -75 116
-151 278 -48 102 -112 239 -143 304 -54 113 -67 156 -80 271 -5 43 0 34 32
-60 21 -60 69 -186 106 -280z m4902 339 c-5 -12 -10 -14 -17 -7 -8 8 -17 5
-32 -10 -12 -12 -21 -24 -20 -27 1 -3 -7 -6 -18 -6 -36 0 -19 27 33 51 56 26
64 26 54 -1z m-2566 -45 c0 -5 -7 -6 -15 -3 -8 4 -15 13 -15 21 0 13 3 13 15
3 8 -7 15 -16 15 -21z m3123 -41 c-20 -35 -48 -81 -63 -103 -140 -208 -389
-752 -390 -853 0 -9 -5 -24 -10 -32 -9 -13 -11 -13 -20 0 -17 27 -11 49 64
239 132 330 261 576 397 759 54 71 66 66 22 -10z m-3206 28 c0 -8 -6 -12 -14
-9 -7 3 -13 11 -13 19 0 7 6 11 13 8 8 -3 14 -11 14 -18z m-2564 -301 c62
-254 169 -648 196 -729 17 -49 29 -91 27 -93 -5 -6 -90 228 -130 360 -19 61
-62 202 -96 311 -34 110 -72 244 -85 298 l-24 99 22 36 21 36 22 -109 c12 -60
33 -154 47 -209z m764 233 c44 -43 53 -58 53 -87 0 -34 0 -34 -51 39 -28 41
-58 80 -67 87 -14 10 -14 12 -2 13 8 0 38 -23 67 -52z m678 32 c-28 -12 -37
-12 -30 0 3 6 16 10 28 9 21 0 21 -1 2 -9z m4165 6 c0 -2 -8 -10 -17 -17 -16
-13 -17 -12 -4 4 13 16 21 21 21 13z m-4984 -123 c35 -63 54 -85 54 -61 0 7
12 -4 26 -25 19 -28 24 -45 19 -66 -4 -17 1 -47 13 -78 14 -36 16 -56 9 -74
-8 -22 -12 -15 -45 66 -20 50 -67 151 -105 225 -62 121 -66 132 -38 105 18
-16 47 -58 67 -92z m5521 85 c-3 -8 -6 -5 -6 6 -1 11 2 17 5 13 3 -3 4 -12 1
-19z m-4947 -2 c0 -2 -7 -7 -16 -10 -8 -3 -12 -2 -9 4 6 10 25 14 25 6z m4927
-68 c-3 -8 -6 -5 -6 6 -1 11 2 17 5 13 3 -3 4 -12 1 -19z m1308 2 c3 -6 -1 -7
-9 -4 -18 7 -21 14 -7 14 6 0 13 -4 16 -10z m-6395 -17 c-1 -10 -50 -46 -55
-41 -8 8 26 48 41 48 8 0 14 -3 14 -7z m-862 -123 c0 -16 -3 -11 -9 15 -4 22
-8 51 -7 65 0 16 3 11 9 -15 4 -22 8 -51 7 -65z m-2250 -320 c-3 -46 -9 -24
-39 145 -20 110 -34 205 -32 210 2 6 16 18 31 27 l27 17 8 -172 c4 -95 6 -197
5 -227z m7807 325 c-56 -147 -79 -194 -137 -282 -33 -51 -62 -93 -64 -93 -6 0
29 77 97 214 69 138 118 226 125 226 1 0 -8 -29 -21 -65z m-3817 10 c39 -19
72 -38 72 -44 0 -5 -21 -28 -47 -51 -27 -23 -87 -87 -135 -143 -107 -124 -113
-139 -38 -92 22 14 42 25 45 25 3 0 -2 -11 -11 -25 -9 -14 -12 -25 -7 -25 19
0 138 83 197 138 118 109 114 106 131 92 26 -22 17 -36 -62 -103 -93 -77 -284
-265 -483 -476 -80 -85 -188 -197 -241 -250 -52 -53 -102 -111 -110 -129 -7
-17 -19 -32 -25 -32 -17 0 -102 59 -157 110 -46 42 -49 48 -36 64 8 9 82 75
164 146 209 179 291 257 283 265 -4 4 -23 -5 -42 -21 -19 -16 -88 -74 -153
-129 -235 -197 -284 -236 -294 -229 -20 12 -49 96 -49 143 0 47 1 48 88 126
48 42 158 145 244 226 86 82 179 167 205 188 27 21 103 91 169 156 l119 117
50 -6 c28 -4 83 -22 123 -41z m-838 27 c0 -5 -11 -19 -25 -32 -14 -13 -25 -27
-25 -32 0 -8 -38 -64 -117 -173 -24 -33 -64 -100 -89 -150 -38 -77 -46 -103
-53 -180 -13 -126 -5 -318 15 -385 39 -131 164 -277 294 -343 l75 -39 -55 7
c-147 17 -289 64 -338 113 -39 39 -82 246 -82 399 0 111 30 294 67 405 33 99
94 203 119 203 32 0 46 15 39 44 -6 29 12 51 110 130 50 41 65 48 65 33z
m-175 -32 c-16 -16 -33 -30 -39 -30 -5 0 3 14 19 30 16 17 33 30 39 30 5 0 -3
-13 -19 -30z m-598 -220 c21 -49 21 -52 4 -30 -11 14 -28 41 -38 60 -10 19
-26 46 -35 59 -10 13 -18 38 -18 55 1 29 3 27 32 -29 17 -33 42 -85 55 -115z
m5562 84 c-8 -30 -38 -73 -111 -155 -121 -138 -126 -143 -102 -100 10 19 35
51 55 70 20 20 42 47 49 61 14 28 114 170 117 166 1 -1 -3 -20 -8 -42z m-5145
-99 c-7 -16 -24 -21 -24 -6 0 8 7 13 27 20 1 1 0 -6 -3 -14z m-1126 -238 c-12
-4 -22 -6 -22 -5 -1 2 -7 15 -14 31 -13 30 -39 36 -49 10 -5 -13 -9 -9 -19 18
-26 71 -17 73 55 12 62 -52 67 -59 49 -66z m6222 102 c0 -12 -33 -54 -80 -104
-44 -46 -80 -81 -80 -78 0 6 153 203 157 203 2 0 3 -9 3 -21z m173 -156 c-38
-83 -49 -100 -58 -91 -5 5 83 168 91 168 1 0 -13 -35 -33 -77z m-5668 -68 c14
-59 24 -109 22 -111 -13 -13 -37 44 -51 121 -31 172 -12 165 29 -10z m4876
-152 c-7 -28 -8 -28 -19 -6 -7 12 -34 34 -61 49 -28 14 -52 33 -55 40 -4 11
-11 12 -33 2 -50 -21 -100 -78 -149 -170 -27 -49 -63 -106 -80 -126 -17 -21
-46 -77 -65 -127 l-34 -90 -2 120 c-3 144 -7 165 -32 165 -25 0 -31 -18 -32
-93 -1 -42 -3 -54 -8 -37 -4 14 -14 26 -23 28 -29 6 -32 -57 -19 -443 17 -526
16 -719 -2 -780 -54 -180 -291 -747 -369 -883 -27 -48 -86 -150 -130 -227 -44
-77 -109 -183 -144 -235 -72 -108 -268 -345 -336 -405 -62 -56 -191 -135 -219
-135 -18 0 -20 3 -11 12 35 35 -7 37 -52 3 -18 -14 -42 -25 -53 -25 -25 0 -55
-31 -35 -37 6 -3 12 -8 12 -13 0 -10 -123 -52 -168 -57 -19 -2 -45 -11 -58
-20 -14 -8 -27 -14 -29 -11 -3 3 38 31 90 63 52 31 98 61 101 66 10 18 -55 9
-122 -17 -61 -22 -175 -80 -340 -170 l-50 -28 -155 104 c-505 339 -759 579
-1047 990 -148 211 -177 268 -241 464 -57 174 -69 221 -145 546 -30 130 -32
147 -19 162 14 16 12 24 -20 90 -31 62 -38 89 -47 183 -5 61 -10 127 -10 149
0 35 2 38 22 31 13 -4 53 -12 91 -19 37 -7 75 -20 85 -29 9 -9 31 -23 47 -31
17 -9 23 -16 15 -16 -15 0 -125 25 -165 37 -18 5 -18 3 4 -21 40 -43 100 -65
203 -75 344 -33 776 108 974 317 92 98 112 121 106 127 -3 3 0 5 6 5 27 0 84
77 81 109 -3 31 1 42 13 35 7 -5 9 -2 5 9 -4 12 -2 14 11 10 14 -6 15 -4 4 9
-10 13 -10 17 2 21 9 4 13 17 12 36 -1 16 2 27 6 25 5 -3 11 9 14 26 4 17 10
33 15 35 11 7 18 -21 29 -111 17 -144 23 -179 32 -191 5 -7 7 -17 3 -23 -3 -5
2 -10 13 -10 15 0 21 -10 27 -42 24 -125 32 -156 52 -197 17 -34 19 -48 11
-79 -24 -97 -8 -137 32 -77 19 29 20 29 20 6 0 -20 2 -22 16 -10 9 7 25 14 37
16 30 5 41 17 76 85 23 47 41 111 69 252 21 104 42 191 48 193 5 2 36 -17 69
-42 73 -55 209 -122 332 -164 89 -31 98 -32 255 -31 181 0 263 14 403 70 102
41 176 85 278 165 45 35 110 85 145 110 62 45 81 72 41 60 -17 -6 -14 1 16 40
19 26 47 68 62 93 32 56 94 134 101 128 2 -3 -6 -19 -18 -35 -22 -32 -24 -61
-4 -68 7 -2 53 57 103 130 84 126 185 234 231 249 10 3 43 -33 102 -113 77
-104 86 -121 79 -146z m50 206 c-18 -51 -22 -52 -33 -9 -4 13 41 74 49 67 1
-2 -6 -28 -16 -58z m-4861 21 c6 -11 8 -20 6 -20 -3 0 -10 9 -16 20 -6 11 -8
20 -6 20 3 0 10 -9 16 -20z m5448 -73 c-10 -21 -33 -46 -50 -57 -26 -15 -29
-20 -16 -25 14 -6 10 -17 -25 -77 -40 -67 -46 -73 -127 -114 -47 -24 -89 -44
-94 -44 -5 0 16 28 46 63 30 34 104 125 163 201 98 126 110 138 116 115 3 -15
-1 -39 -13 -62z m-2570 43 c-23 -31 -33 -36 -42 -21 -6 9 41 50 57 51 4 0 -2
-13 -15 -30z m3187 0 c-3 -5 -11 -10 -16 -10 -6 0 -7 5 -4 10 3 6 11 10 16 10
6 0 7 -4 4 -10z m-6813 -185 c128 -253 516 -907 615 -1037 43 -56 43 -58 16
-47 -15 5 -54 24 -87 42 -64 34 -81 56 -203 267 -156 270 -347 650 -328 650 3
0 37 -63 75 -141 79 -156 316 -588 333 -604 10 -10 -118 240 -233 455 -127
236 -290 574 -290 598 0 9 50 -80 102 -183z m767 78 c19 -29 20 -32 4 -26 -23
8 -33 23 -33 47 0 11 1 17 3 15 2 -2 14 -19 26 -36z m-524 -63 c44 -44 77 -80
75 -80 -3 0 -41 36 -85 80 -44 44 -77 80 -75 80 3 0 41 -36 85 -80z m-160 0
c14 -27 23 -50 20 -50 -2 0 -16 23 -30 50 -14 28 -23 50 -20 50 2 0 16 -22 30
-50z m6415 46 c0 -3 -28 -21 -62 -42 -35 -21 -74 -45 -88 -53 -24 -15 -24 -15
-11 2 8 10 46 36 85 57 75 42 76 42 76 36z m-225 -16 c-3 -5 -13 -10 -21 -10
-8 0 -12 5 -9 10 3 6 13 10 21 10 8 0 12 -4 9 -10z m-5315 -25 c0 -8 -2 -15
-4 -15 -2 0 -6 7 -10 15 -3 8 -1 15 4 15 6 0 10 -7 10 -15z m4496 -4 c18 -11
53 -49 79 -85 48 -68 54 -90 58 -241 3 -80 -16 -353 -27 -392 -62 -225 -57
-213 -126 -287 -82 -87 -320 -298 -365 -322 -19 -10 -37 -15 -41 -11 -4 3 -1
77 6 164 7 87 15 272 17 411 3 172 8 252 16 252 6 0 21 10 34 22 l23 21 0 -27
c0 -45 22 -26 60 51 19 40 41 72 48 72 7 1 10 -4 6 -11 -4 -7 -3 -8 5 -4 6 4
10 14 9 21 -2 8 5 20 15 27 10 7 18 25 19 38 1 14 6 31 12 39 15 20 23 -84 14
-164 -21 -173 -22 -195 -3 -195 15 0 17 -7 11 -52 -4 -29 -9 -68 -13 -87 l-6
-35 -18 45 c-11 28 -16 57 -12 82 3 20 2 37 -2 37 -16 0 -45 -33 -45 -51 0
-29 57 -146 74 -152 62 -24 105 162 106 453 0 147 -3 191 -15 214 -15 28 -14
31 4 50 17 16 24 18 45 8 30 -14 56 -51 65 -95 4 -18 13 -32 21 -32 22 0 14
60 -13 109 -43 77 -99 97 -156 57 -17 -12 -31 -19 -31 -14 1 16 70 103 83 103
6 0 26 -9 43 -19z m-4599 -103 c34 -71 64 -153 50 -138 -2 3 -32 58 -66 123
-44 84 -57 115 -43 108 10 -5 37 -47 59 -93z m5791 -40 c-162 -258 -173 -271
-247 -332 -39 -32 -73 -57 -75 -55 -2 2 37 56 86 119 50 63 123 165 163 225
39 61 91 127 115 148 24 20 45 37 46 37 2 0 -38 -64 -88 -142z m-5392 -11 l36
-71 -23 -19 -24 -19 -22 49 c-15 33 -25 78 -28 129 -5 78 -5 79 10 41 8 -22
31 -71 51 -110z m5254 121 c-14 -11 -97 -77 -185 -146 -88 -70 -190 -151 -226
-182 -54 -45 -239 -157 -204 -123 38 37 251 205 355 280 201 145 332 231 260
171z m-285 -79 c-5 -14 -107 -80 -113 -74 -10 10 36 58 72 74 46 20 49 20 41
0z m-5415 -40 c13 -25 18 -48 14 -61 -6 -21 -7 -21 -19 3 -14 27 -29 99 -21
99 3 0 15 -18 26 -41z m2356 -50 c3 -31 15 -72 29 -96 29 -48 28 -79 -10 -238
-13 -55 -27 -118 -31 -140 -3 -22 -9 -34 -11 -27 -9 25 -22 10 -40 -44 l-18
-57 -7 34 c-16 74 -9 230 23 512 10 90 20 115 32 85 5 -13 11 18 7 37 -1 6 3
6 9 -1 6 -6 14 -35 17 -65z m-2911 31 c22 -42 18 -51 -5 -12 -20 33 -24 42
-15 42 2 0 11 -13 20 -30z m521 -128 c9 -40 14 -75 12 -78 -6 -5 -69 204 -67
221 2 23 40 -75 55 -143z m5221 80 c-10 -10 -17 -25 -17 -33 0 -8 -19 -25 -42
-36 -24 -12 -76 -40 -115 -63 l-73 -41 0 34 c0 23 10 47 31 73 41 52 57 60 73
38 12 -16 17 -15 77 14 75 36 88 39 66 14z m-7564 -128 c45 -139 51 -196 16
-187 -12 3 -19 0 -19 -8 0 -8 -3 -9 -9 -3 -8 7 -41 269 -41 321 0 30 10 7 53
-123z m7258 25 c-6 -27 -11 -63 -11 -79 0 -16 -4 -31 -8 -34 -12 -7 -1 177 12
193 17 21 20 -18 7 -80z m604 -70 c-146 -146 -223 -218 -415 -384 -36 -31 9
16 100 105 91 89 208 199 260 244 52 46 118 108 145 139 28 31 54 56 60 56 5
1 -62 -71 -150 -160z m-5349 -52 c32 -68 9 -47 -44 40 -38 63 -52 97 -51 122
0 34 3 31 39 -44 21 -44 46 -97 56 -118z m-332 117 c2 -6 1 -16 -3 -22 -4 -7
-23 8 -49 38 l-43 50 45 -28 c25 -15 47 -32 50 -38z m861 -75 c38 -30 85 -69
105 -87 19 -18 53 -37 75 -43 64 -18 22 -22 -47 -5 -121 31 -248 112 -310 198
l-21 31 24 18 c24 18 24 18 64 -20 22 -21 71 -62 110 -92z m4565 98 c-206
-164 -299 -231 -308 -222 -2 2 -1 16 2 32 4 18 19 35 44 49 20 12 89 51 152
88 111 64 141 78 110 53z m-8025 -94 c4 -21 47 -159 96 -307 50 -147 88 -271
85 -274 -4 -3 -6 0 -6 7 0 8 -7 11 -15 7 -9 -3 -15 0 -15 8 0 7 -17 21 -37 32
-51 27 -72 68 -83 165 -6 46 -12 98 -15 114 -26 185 -35 251 -35 267 0 33 18
19 25 -19z m2700 -212 c42 -79 89 -162 105 -185 16 -23 46 -84 66 -136 33 -85
37 -107 41 -212 3 -65 2 -118 -1 -118 -3 0 -31 18 -62 40 -49 34 -57 44 -59
75 -2 29 0 33 13 23 12 -10 12 -7 -1 22 -21 48 -205 438 -251 530 -36 73 -36
74 -8 43 35 -40 198 -361 278 -545 32 -75 60 -136 62 -134 1 2 -9 39 -22 82
l-25 79 34 -40 c19 -22 35 -37 35 -34 0 12 -170 368 -249 519 -44 85 -81 159
-81 163 0 4 11 0 25 -10 14 -10 59 -83 100 -162z m199 93 c33 -68 34 -74 29
-150 l-6 -79 -34 150 c-18 83 -33 152 -33 154 0 10 11 -9 44 -75z m-460 -39
c15 -27 20 -41 11 -30 -19 22 -63 106 -48 90 5 -5 22 -32 37 -60z m656 -28
c10 -17 9 -18 -12 -12 -28 9 -38 23 -38 52 0 12 -3 30 -6 40 -5 16 10 -6 56
-80z m240 -19 c64 -18 110 -22 310 -25 247 -5 270 -9 270 -53 0 -19 52 -30
147 -30 55 0 55 0 49 -26 l-7 -27 61 6 c76 7 70 -5 -34 -62 -128 -71 -192 -86
-347 -85 -194 1 -292 33 -434 139 -110 81 -225 205 -225 241 0 8 25 -1 68 -22
37 -19 101 -45 142 -56z m-2318 22 c-11 -9 -23 -26 -26 -38 -8 -26 -14 -27
-40 -7 -17 13 -16 16 30 60 46 43 49 44 52 23 3 -13 -4 -29 -16 -38z m6617
-14 c-9 -8 -10 -7 -5 7 3 10 7 31 8 45 1 22 2 21 5 -7 3 -19 -1 -38 -8 -45z
m-7185 -21 c3 -13 1 -36 -6 -52 l-11 -28 -13 50 c-6 28 -13 59 -13 69 -1 18 0
18 18 2 11 -10 22 -28 25 -41z m7895 18 c-12 -21 -40 -69 -62 -106 -36 -62
-46 -71 -109 -103 -77 -39 -78 -36 -8 56 32 43 182 186 198 189 2 1 -6 -16
-19 -36z m-5319 -52 c-1 -13 -4 -12 -15 3 -8 11 -15 27 -15 35 1 13 4 12 15
-3 8 -11 15 -27 15 -35z m-1946 23 c9 -24 7 -98 -5 -154 -20 -95 -46 -45 -35
68 8 78 14 102 26 102 4 0 11 -7 14 -16z m5263 10 c-3 -3 -12 -4 -19 -1 -8 3
-5 6 6 6 11 1 17 -2 13 -5z m-75 -23 c-55 -20 -252 -28 -263 -10 -5 8 -9 16
-9 19 0 3 70 5 155 5 141 0 151 -1 117 -14z m1538 6 c0 -1 -26 -28 -58 -60
l-58 -57 4 33 c3 29 11 37 55 60 57 28 57 28 57 24z m-6882 -30 c8 -9 5 -33
-12 -87 -18 -57 -25 -69 -30 -52 -4 12 -2 38 3 59 6 21 11 50 11 66 0 29 11
35 28 14z m2200 -1 c33 -18 88 -74 79 -82 -7 -8 -53 24 -91 65 -33 34 -29 38
12 17z m5022 11 c0 -2 -10 -12 -22 -23 l-23 -19 19 23 c18 21 26 27 26 19z
m-5116 -28 c11 9 18 6 35 -18 12 -16 51 -51 87 -78 69 -51 70 -52 79 -157 4
-38 9 -77 12 -85 3 -9 -8 0 -23 19 -49 61 -165 178 -200 202 -40 27 -48 47
-39 95 5 29 9 32 21 23 11 -10 17 -10 28 -1z m4577 -149 c-16 -71 -28 -101
-48 -122 -14 -15 -28 -26 -30 -24 -2 1 4 20 13 41 10 24 12 41 6 47 -6 6 2 36
23 82 19 39 37 85 42 101 l8 30 3 -31 c2 -16 -6 -72 -17 -124z m-4705 93 c-8
-8 -12 -3 -21 27 l-7 25 17 -23 c9 -13 14 -26 11 -29z m5044 -58 c-7 -9 -27
-25 -44 -37 -28 -19 -27 -17 8 20 22 23 42 40 44 37 3 -2 -1 -12 -8 -20z
m-4596 -44 c-2 -3 -12 3 -22 13 -16 17 -16 18 5 5 12 -7 20 -15 17 -18z m-218
-168 l54 -72 -24 -24 c-49 -49 -67 -179 -42 -306 17 -94 33 -124 76 -146 48
-25 56 -11 30 50 -24 55 -39 317 -20 345 9 13 11 13 19 0 5 -8 8 -17 5 -21 -2
-4 3 -12 11 -19 8 -7 15 -18 15 -24 0 -6 6 -23 14 -38 8 -15 13 -39 12 -53 -2
-14 1 -25 6 -25 13 0 24 -36 53 -167 14 -65 58 -214 97 -331 38 -117 68 -216
65 -219 -23 -22 -213 168 -308 307 -36 52 -96 150 -133 218 -82 149 -85 165
-86 477 l0 219 51 -49 c28 -28 76 -82 105 -122z m4554 148 c0 -6 -4 -13 -10
-16 -5 -3 -10 1 -10 9 0 9 5 16 10 16 6 0 10 -4 10 -9z m282 -42 c-34 -30 -55
-38 -46 -16 6 15 67 56 74 50 3 -3 -10 -18 -28 -34z m-5331 -106 c34 -54 69
-108 77 -121 l15 -23 -36 17 c-20 9 -33 22 -31 29 3 7 -11 38 -31 70 -36 55
-70 125 -61 125 2 0 32 -44 67 -97z m7179 21 l23 -42 -22 -63 c-11 -35 -21
-69 -21 -77 0 -29 20 1 40 63 l21 65 30 -22 c34 -25 35 -37 12 -108 -17 -54
-37 -73 -87 -84 -23 -6 -27 -4 -23 8 4 9 2 18 -4 21 -5 4 -12 -1 -15 -9 -9
-24 -21 -11 -39 44 -16 49 -16 51 9 102 14 29 28 77 32 106 7 58 10 58 44 -4z
m-7132 1 c-3 -3 -9 2 -12 12 -6 14 -5 15 5 6 7 -7 10 -15 7 -18z m4881 -17
c-19 -36 -61 -89 -67 -84 -7 7 58 106 69 106 6 0 4 -10 -2 -22z m336 12 c-3
-5 -16 -15 -28 -21 -21 -10 -21 -9 2 10 25 23 36 27 26 11z m-431 -93 c-8 -18
-32 -43 -52 -56 -36 -24 -36 -23 13 32 28 31 51 56 52 56 2 1 -4 -14 -13 -32z
m306 22 c0 -22 -588 -299 -745 -351 -5 -2 -11 1 -13 6 -2 6 17 15 42 21 24 6
56 19 70 28 14 9 30 17 36 17 28 0 310 134 608 289 1 0 2 -4 2 -10z m50 -67
c0 -14 -189 -118 -361 -200 -90 -43 -216 -105 -279 -138 -179 -94 -199 -100
-186 -51 5 20 24 32 98 62 51 21 131 50 178 65 102 34 227 93 410 194 156 86
140 78 140 68z m-5003 -122 c74 -28 92 -38 96 -57 5 -28 -9 -29 -61 -7 -57 23
-243 131 -277 159 -24 20 -13 17 60 -18 50 -24 132 -58 182 -77z m6503 95 c0
-8 -4 -15 -10 -15 -5 0 -7 7 -4 15 4 8 8 15 10 15 2 0 4 -7 4 -15z m15 -71
c15 -23 16 -32 5 -65 -7 -22 -16 -39 -20 -39 -10 0 -48 38 -66 65 -26 39 -12
56 52 64 7 0 19 -11 29 -25z m-9042 -35 c4 -13 1 -19 -6 -16 -7 3 -11 10 -9
17 1 7 -3 20 -10 29 -11 14 -11 14 3 3 9 -7 19 -22 22 -33z m9252 -48 c-4 -17
-11 -31 -16 -31 -5 0 -9 -7 -9 -15 0 -18 -12 -19 -28 -3 -19 19 -14 66 9 89
19 19 23 19 36 6 11 -10 13 -24 8 -46z m379 -189 c21 -97 20 -118 -6 -161
l-23 -36 -6 50 c-3 28 -2 55 3 62 7 8 3 23 -10 45 -31 52 -34 112 -9 198 l22
75 7 -80 c4 -44 14 -113 22 -153z m-92 143 c-8 -30 -19 -55 -23 -55 -4 0 -20
16 -35 35 -37 48 -25 62 62 74 8 1 6 -16 -4 -54z m-9421 -153 c53 -109 100
-208 103 -220 10 -30 -17 -29 -76 2 -24 13 -55 27 -69 31 -51 16 -79 65 -44
79 25 9 18 43 -11 50 -19 5 -24 10 -16 18 7 7 5 16 -8 30 -10 11 -18 32 -18
47 1 14 -2 36 -6 47 -4 14 -1 26 9 34 10 8 13 21 9 37 -6 22 7 43 26 43 3 0
48 -89 101 -198z m8739 108 c-18 -33 -25 -15 -9 22 9 23 15 28 17 16 2 -9 -2
-27 -8 -38z m155 4 c17 -41 19 -72 5 -94 -13 -21 -54 73 -46 106 9 34 23 30
41 -12z m160 -93 c-10 -56 -26 -101 -36 -101 -12 0 -11 27 3 75 6 22 10 48 9
57 -2 13 2 16 14 12 13 -5 15 -15 10 -43z m-508 -23 c-2 -13 -4 -3 -4 22 0 25
2 35 4 23 2 -13 2 -33 0 -45z m1608 -208 c-4 -12 -9 -19 -12 -17 -3 3 -2 15 2
27 4 12 9 19 12 17 3 -3 2 -15 -2 -27z m-20 -69 c-4 -17 -13 -31 -21 -31 -11
0 -11 6 3 35 20 41 28 39 18 -4z m-9996 -38 c16 -16 71 -102 121 -193 80 -146
88 -165 71 -168 -29 -5 -59 15 -63 40 -2 13 -10 23 -18 23 -16 0 -39 24 -36
38 0 5 -7 13 -16 18 -10 6 -18 16 -18 23 0 8 -6 19 -14 25 -7 6 -16 33 -20 59
-6 45 -36 103 -36 71 -1 -25 -50 40 -50 67 0 34 41 32 79 -3z m199 -100 c28
-21 78 -75 111 -119 l59 -82 -54 -20 c-30 -11 -56 -17 -58 -13 -38 65 -146
262 -146 266 0 16 44 0 88 -32z m9753 -4 c-12 -28 -28 -48 -55 -69 -18 -13
-19 -13 -11 0 14 25 70 98 73 95 1 -1 -2 -13 -7 -26z m59 -39 c-6 -10 -15 -22
-21 -25 -19 -12 -22 4 -5 30 19 29 42 25 26 -5z m-36 -109 c-4 -23 -9 -40 -11
-37 -3 3 -2 23 2 46 4 23 9 39 11 37 3 -2 2 -23 -2 -46z m-9464 -222 l68 -84
-28 -40 c-15 -22 -35 -55 -45 -74 -17 -33 -18 -34 -32 -15 -24 32 -163 253
-163 259 0 3 16 5 35 5 24 0 43 7 58 23 12 13 26 20 30 16 5 -3 39 -44 77 -90z
m-219 -28 c37 -66 38 -72 16 -55 -14 11 -23 22 -21 25 2 4 -7 14 -21 23 -14 9
-25 26 -25 38 0 12 -3 18 -7 15 -7 -8 -33 11 -33 25 0 5 11 8 25 6 20 -2 34
-19 66 -77z m634 -446 c72 -77 184 -201 250 -275 66 -74 182 -200 260 -279
153 -157 156 -157 -75 -13 -74 46 -148 92 -163 101 -55 31 -213 137 -287 192
-84 63 -123 101 -169 164 -29 40 -29 43 -11 48 27 7 26 54 0 130 -11 31 -20
62 -20 68 0 6 -16 47 -35 90 -19 44 -35 82 -35 85 0 2 35 -35 77 -83 43 -49
136 -151 208 -228z m-325 165 c0 -44 -2 -80 -5 -80 -11 0 -55 102 -48 112 13
23 38 48 45 48 5 0 8 -36 8 -80z m290 -565 c10 -12 10 -15 -4 -15 -9 0 -16 7
-16 15 0 8 2 15 4 15 2 0 9 -7 16 -15z m4686 -86 c-3 -17 -6 -44 -6 -60 0 -28
-2 -29 -51 -29 -59 0 -59 3 -4 70 47 58 71 65 61 19z m3359 -69 c-3 -5 -11
-10 -16 -10 -6 0 -7 5 -4 10 3 6 11 10 16 10 6 0 7 -4 4 -10z m34 -54 c-2 -1
-19 -14 -38 -30 -25 -20 -36 -24 -42 -15 -4 8 1 19 14 28 41 29 62 39 66 29 1
-5 1 -10 0 -12z m-7444 -148 c121 -64 230 -119 243 -123 20 -6 32 -25 15 -25
-12 0 -181 64 -246 93 -31 14 -103 61 -160 103 -109 83 -138 107 -97 82 14 -8
124 -67 245 -130z m7355 87 c0 -17 -217 -205 -237 -205 -20 0 -7 19 71 101 97
101 166 145 166 104z m-3921 -110 c-34 -50 -179 -324 -179 -338 0 -4 -13 -10
-30 -13 -16 -4 -27 -10 -24 -15 6 -10 -60 -44 -182 -95 -49 -20 -155 -67 -236
-106 -120 -56 -260 -117 -378 -165 -11 -5 -10 -1 3 14 10 12 29 24 42 27 14 4
29 15 35 25 7 14 30 23 82 32 84 14 101 24 95 55 -4 20 -2 22 15 13 48 -26 32
40 -27 111 -25 30 -45 60 -45 66 0 17 176 131 313 203 68 36 179 83 264 112
80 27 153 55 162 63 18 16 114 66 119 61 2 -1 -12 -24 -29 -50z m-3138 -318
c177 -74 344 -164 284 -153 -61 11 -93 10 -117 -3 -22 -11 -31 -10 -78 14 -50
25 -256 169 -287 201 -30 30 26 13 198 -59z m6623 50 c-2 -7 -30 -28 -62 -46
-63 -38 -105 -69 -203 -151 -37 -30 -93 -76 -126 -101 -49 -38 -61 -54 -70
-90 -6 -24 -21 -68 -34 -97 -20 -45 -21 -56 -11 -85 15 -41 15 -123 1 -280
-21 -236 -61 -153 -53 108 3 77 11 174 19 215 26 147 26 143 10 136 -22 -8
-28 10 -15 48 27 83 293 276 464 337 62 21 87 23 80 6z m-6769 -140 c39 -21
61 -35 50 -31 -11 4 -43 15 -72 25 -29 10 -90 43 -138 75 -144 96 -112 82 160
-69z m-914 -21 c35 -15 89 -56 73 -56 -5 0 -26 9 -47 20 -20 11 -39 20 -42 20
-3 -1 -13 6 -21 15 -19 19 -6 19 37 1z m9058 -95 c37 -26 63 -51 69 -70 14
-39 6 -44 -37 -22 -20 11 -38 19 -41 18 -20 -2 -105 58 -126 88 l-25 38 50 -6
c36 -4 68 -18 110 -46z m-197 14 c-3 -20 -7 -23 -18 -14 -11 9 -11 15 -3 25
18 21 27 17 21 -11z m-7438 -25 c88 -16 134 -32 242 -82 73 -34 132 -64 130
-65 -2 -2 -99 24 -217 58 -327 94 -393 132 -155 89z m-2676 -62 c-2 -18 -9
-22 -27 -20 -31 3 -35 7 -28 27 4 8 18 15 32 15 22 0 26 -4 23 -22z m368 -124
c-6 -15 -32 -19 -40 -6 -3 5 2 19 11 32 14 20 17 21 25 6 5 -10 7 -24 4 -32z
m3823 -126 c-36 -71 -45 -84 -34 -48 8 28 53 110 61 110 2 0 -10 -28 -27 -62z
m-2607 -224 c18 -11 -25 -44 -58 -44 -37 0 -117 -58 -155 -112 -31 -45 -140
-158 -151 -158 -13 0 20 53 109 178 40 57 73 107 73 112 0 5 10 16 23 25 17
13 36 15 86 10 35 -3 68 -8 73 -11z m8595 -15 c25 -8 32 -17 35 -45 4 -33 3
-35 -21 -29 -41 10 -111 54 -111 70 0 18 52 20 97 4z m-9020 -74 c8 -9 -3 -34
-44 -101 -31 -49 -63 -111 -73 -139 -10 -27 -25 -63 -33 -79 -9 -17 -14 -41
-10 -57 10 -52 -56 -90 -126 -73 -33 8 -36 12 -35 44 1 59 62 229 105 294 21
34 44 75 51 92 11 30 11 31 82 30 39 0 76 -5 83 -11z m-687 -151 c0 -4 -21
-38 -47 -77 -49 -73 -54 -99 -38 -174 6 -26 4 -33 -8 -33 -9 0 -20 -8 -26 -17
-18 -32 -34 1 -35 74 -1 57 3 75 26 114 15 26 36 49 48 52 11 3 28 19 37 36
16 27 43 43 43 25z m9371 -6 c39 -13 93 -48 85 -55 -2 -3 -15 2 -28 11 -12 9
-29 16 -38 16 -8 0 -28 9 -45 20 -34 22 -24 26 26 8z m-974 -40 c21 -18 40
-37 42 -43 2 -5 7 -20 12 -32 7 -18 5 -21 -9 -16 -9 3 -25 13 -35 21 -14 13
-24 14 -50 5 -18 -6 -56 -8 -87 -4 l-55 6 70 47 c39 26 71 47 72 47 0 1 19
-14 40 -31z m-6527 -34 c0 -2 -7 -4 -15 -4 -8 0 -15 4 -15 10 0 5 7 7 15 4 8
-4 15 -8 15 -10z m102 -16 c-9 -9 -15 -9 -24 0 -9 9 -7 12 12 12 19 0 21 -3
12 -12z m5656 -94 c13 -4 22 -14 22 -25 0 -12 10 -21 25 -25 14 -3 25 -10 25
-15 0 -8 -20 -12 -105 -23 -22 -3 -80 -12 -130 -21 -78 -13 -153 -13 -177 2
-4 2 2 13 14 25 24 24 96 48 146 48 20 0 32 3 28 7 -17 18 105 39 152 27z
m-480 -16 c45 -6 82 -15 82 -19 0 -4 -15 -34 -34 -66 -139 -242 -186 -342
-252 -543 l-59 -178 -69 -32 c-38 -18 -93 -43 -123 -56 -30 -13 -66 -35 -81
-49 -31 -29 -56 -33 -48 -7 3 9 10 55 16 102 7 53 34 153 71 262 32 98 59 187
59 198 0 27 33 124 80 235 21 50 45 107 53 128 l16 37 103 0 c57 0 140 -5 186
-12z m-2364 -39 c3 1 6 -1 6 -4 0 -3 -3 -5 -6 -4 -11 1 -24 -25 -24 -48 0 -12
-4 -24 -8 -27 -8 -5 -6 34 4 83 4 18 8 21 13 12 5 -7 11 -12 15 -12z m-272
-251 c-7 -7 -12 -8 -12 -2 0 14 12 26 19 19 2 -3 -1 -11 -7 -17z m72 -16 c3
-5 -1 -9 -9 -9 -8 0 -12 4 -9 9 3 4 7 8 9 8 2 0 6 -4 9 -8z m-1920 -147 c50
-48 89 -121 173 -320 87 -209 87 -207 87 -410 1 -177 -8 -266 -23 -249 -5 5
-16 30 -26 56 -9 25 -30 59 -47 75 -26 24 -37 28 -87 27 l-58 -1 -6 61 c-8 81
-61 265 -99 341 -17 33 -55 97 -84 143 -30 45 -54 87 -54 93 0 6 -22 33 -50
61 -27 28 -50 55 -50 59 0 5 12 9 26 9 14 0 23 4 19 10 -3 6 -21 10 -38 10
-18 1 -45 7 -62 14 -29 12 -28 13 45 20 58 6 214 31 282 45 3 0 27 -19 52 -44z
m701 -152 c-58 -119 -68 -135 -76 -116 -7 19 0 35 35 85 24 35 51 88 61 118
10 30 23 64 29 75 10 20 11 20 14 -2 2 -12 -27 -83 -63 -160z m921 48 c-4 -6
-14 -7 -23 -4 -15 6 -14 7 3 13 22 9 29 6 20 -9z m124 -15 c0 -7 -8 -20 -17
-27 -11 -10 -14 -10 -9 -1 5 8 1 12 -10 12 -16 0 -16 1 2 15 24 18 34 19 34 1z
m-130 -37 c0 -5 -5 -9 -12 -9 -6 0 -8 3 -5 7 4 3 1 13 -6 22 -11 14 -10 14 6
2 9 -7 17 -17 17 -22z m90 0 c0 -14 -17 -10 -23 5 -4 10 -1 13 9 9 7 -3 14 -9
14 -14z m490 -44 c0 -51 -13 -59 -28 -16 -8 23 -7 32 6 45 9 9 18 16 19 16 2
0 3 -20 3 -45z m-1675 -44 c13 -25 35 -63 49 -83 l25 -38 -61 -157 c-34 -87
-65 -162 -69 -167 -4 -5 -10 9 -14 30 -4 22 -10 48 -15 59 -5 11 -12 53 -16
94 -5 60 -4 73 7 69 8 -3 17 -28 22 -59 4 -29 11 -57 16 -62 31 -31 39 48 21
193 -25 200 -25 196 -6 181 10 -8 28 -35 41 -60z m1641 -64 c5 -1 7 -12 6 -24
-2 -15 2 -23 12 -23 18 0 24 -18 31 -100 3 -36 8 -87 12 -113 4 -38 1 -52 -13
-68 -15 -16 -16 -22 -5 -28 8 -5 10 -14 7 -20 -4 -6 -13 -8 -19 -4 -7 4 -16 8
-22 8 -5 0 -10 23 -11 51 0 28 -4 56 -8 62 -13 21 -26 3 -20 -26 7 -33 -21
-66 -32 -39 -3 9 -12 13 -20 10 -16 -6 -20 22 -4 32 23 15 30 43 14 60 -15 15
-15 17 0 28 11 8 15 24 13 51 -2 22 2 44 9 51 7 7 12 22 9 33 -2 11 3 23 11
26 8 3 14 10 14 17 0 6 -7 9 -15 5 -12 -4 -13 -2 -3 14 8 12 15 15 19 9 3 -6
10 -11 15 -12z m34 13 c0 -5 -2 -10 -4 -10 -3 0 -8 5 -11 10 -3 6 -1 10 4 10
6 0 11 -4 11 -10z m1581 -116 c-16 -35 -35 -64 -42 -64 -7 0 -9 8 -4 23 3 12
10 36 14 52 4 17 19 50 32 75 l24 45 3 -33 c2 -21 -7 -56 -27 -98z m3214 -14
c-3 -5 -21 -10 -38 -9 -27 0 -29 2 -12 9 28 12 57 12 50 0z m-6647 -6 c20 -6
22 -12 22 -75 0 -59 -3 -69 -18 -69 -13 0 -23 18 -40 69 -12 38 -22 72 -22 75
0 8 28 7 58 0z m6802 -3 c0 -10 -68 -12 -74 -2 -3 4 12 8 34 8 22 0 40 -2 40
-6z m88 -9 c6 -8 17 -9 39 -3 17 5 34 7 37 4 3 -3 13 0 21 7 12 10 19 10 27 2
7 -7 8 -12 4 -12 -5 0 -3 -7 4 -15 7 -8 9 -15 4 -16 -11 -1 -80 3 -114 6 -14
2 -33 3 -42 4 -11 1 -15 6 -12 16 4 8 1 15 -5 15 -6 0 -11 -4 -11 -10 0 -5 -7
-10 -15 -10 -15 0 -20 12 -10 22 10 10 66 3 73 -10z m-9178 -42 c-14 -11 -34
-19 -45 -19 -14 0 -7 7 20 20 51 24 56 23 25 -1z m8987 -6 c-3 -3 -12 -4 -19
-1 -8 3 -5 6 6 6 11 1 17 -2 13 -5z m-4787 -246 c0 -7 3 -24 7 -37 l6 -25 -22
21 c-13 12 -19 26 -15 36 7 20 24 23 24 5z m-30 -60 c0 6 4 12 10 12 5 0 7 -7
3 -15 -7 -19 -25 -15 -31 6 -3 11 -2 11 7 -1 7 -10 11 -11 11 -2z m60 -78 c0
-3 -6 -7 -13 -7 -7 0 -13 8 -13 18 0 13 3 15 13 7 7 -6 13 -14 13 -18z m-855
-79 c3 -5 1 -12 -5 -16 -5 -3 -10 1 -10 9 0 18 6 21 15 7z m1082 -73 c-3 -8
-6 -5 -6 6 -1 11 2 17 5 13 3 -3 4 -12 1 -19z"/>
<path d="M8016 8694 c-21 -31 -36 -58 -34 -60 2 -2 21 22 42 52 20 31 35 58
33 60 -2 2 -21 -21 -41 -52z"/>
<path d="M7442 7958 c-14 -14 -16 -28 -3 -28 9 0 24 30 18 36 -2 2 -9 -2 -15
-8z"/>
<path d="M7050 7125 c0 -8 5 -15 10 -15 6 0 10 7 10 15 0 8 -4 15 -10 15 -5 0
-10 -7 -10 -15z"/>
<path d="M6104 7083 c-51 -54 -91 -99 -89 -102 3 -2 26 20 52 50 27 29 71 75
98 101 28 26 46 48 41 48 -5 0 -51 -44 -102 -97z"/>
<path d="M5050 5945 c0 -8 4 -15 10 -15 5 0 7 7 4 15 -4 8 -8 15 -10 15 -2 0
-4 -7 -4 -15z"/>
<path d="M6559 5782 c-24 -8 -49 -18 -55 -23 -6 -5 -46 -16 -90 -24 -206 -39
-453 -159 -740 -358 -295 -205 -435 -320 -688 -567 -274 -267 -376 -390 -321
-390 8 0 29 13 47 29 45 38 65 47 118 50 57 3 218 57 352 117 57 25 141 62
188 81 84 34 141 67 295 169 118 78 412 258 395 241 -20 -19 -394 -274 -455
-310 -90 -53 -36 -39 72 18 327 175 801 504 918 638 47 54 109 160 99 170 -4
3 4 28 17 54 13 26 24 55 25 63 0 8 4 24 7 35 6 19 2 20 -67 21 -41 1 -93 -5
-117 -14z m-67 -129 c5 -40 -8 -99 -39 -173 -38 -92 -63 -127 -103 -144 -19
-8 -84 -36 -145 -62 -324 -138 -321 -136 -328 -167 -4 -15 -19 -27 -42 -36
-40 -14 -117 -67 -174 -118 l-36 -33 55 30 c68 37 92 40 30 4 -60 -35 -243
-128 -253 -129 -4 0 -11 -5 -15 -11 -6 -9 -30 -22 -52 -29 -18 -5 -86 -41 -91
-48 -3 -4 -12 -5 -21 -2 -8 3 -21 -1 -28 -10 -7 -8 -21 -15 -31 -15 -10 0 -22
-6 -26 -14 -4 -7 -36 -28 -70 -45 -59 -29 -63 -30 -63 -11 0 11 -4 20 -10 20
-5 0 -10 -4 -10 -8 0 -4 -13 -16 -30 -25 -16 -10 -30 -15 -30 -12 0 3 -9 1
-21 -5 -19 -11 -20 -10 -10 9 6 11 16 23 21 26 6 3 10 18 10 32 0 21 -4 24
-22 20 -30 -8 62 84 236 236 232 204 345 287 706 522 72 47 131 71 127 53 -5
-25 29 -16 45 11 11 20 41 42 87 65 39 20 73 36 76 36 3 0 5 -27 5 -60 0 -33
4 -60 10 -60 5 0 8 -6 6 -12 -3 -7 -7 -33 -10 -58 l-6 -45 20 35 c10 19 29 64
41 100 39 117 78 156 161 159 22 1 27 -4 30 -26z m102 -6 c17 -13 17 -15 -8
-43 l-25 -29 -1 43 c0 45 6 50 34 29z m-674 -567 c-8 -5 -17 -7 -19 -4 -3 3 1
9 9 14 8 5 17 7 19 4 3 -3 -1 -9 -9 -14z m-975 -500 c-3 -5 -12 -10 -18 -10
-7 0 -6 4 3 10 19 12 23 12 15 0z"/>
<path d="M1596 1925 c-3 -8 -1 -15 4 -15 6 0 10 7 10 15 0 8 -2 15 -4 15 -2 0
-6 -7 -10 -15z"/>
<path d="M5432 645 c-9 -19 -9 -24 0 -22 7 1 15 -11 19 -28 5 -22 7 -24 8 -8
0 12 4 30 7 40 4 13 3 15 -4 4 -7 -9 -11 -10 -17 -2 -4 7 -1 18 5 26 7 8 8 15
3 15 -5 0 -15 -11 -21 -25z"/>
<path d="M1447 10738 c-77 -108 -177 -277 -177 -298 0 -13 7 -20 19 -20 13 0
30 19 52 58 38 67 150 242 155 242 5 0 -17 -49 -115 -262 -80 -175 -238 -533
-271 -616 -7 -18 -10 -35 -7 -39 6 -5 139 260 237 472 15 33 47 101 70 150 62
133 170 368 170 372 0 2 -20 3 -44 3 -44 0 -46 -2 -89 -62z"/>
<path d="M8276 10791 c5 -5 59 -41 119 -81 285 -188 334 -207 121 -47 -157
118 -187 137 -220 137 -18 0 -26 -4 -20 -9z"/>
<path d="M8770 10795 c0 -3 42 -36 93 -74 99 -73 197 -170 197 -195 0 -8 -6
-16 -12 -19 -7 -2 -10 -7 -7 -11 11 -12 39 6 39 24 0 25 -59 98 -120 150 -30
25 -76 64 -104 88 -42 36 -86 55 -86 37z"/>
<path d="M9395 10760 c40 -41 51 -49 39 -27 -25 42 -47 67 -62 67 -11 0 -4
-12 23 -40z"/>
<path d="M9440 10775 c13 -14 26 -25 28 -25 3 0 -5 11 -18 25 -13 14 -26 25
-28 25 -3 0 5 -11 18 -25z"/>
<path d="M1781 10589 c-57 -77 -137 -197 -178 -267 -40 -70 -105 -174 -143
-232 -82 -123 -184 -299 -177 -306 5 -6 294 437 370 566 30 52 100 155 156
228 90 118 109 152 82 152 -4 0 -54 -63 -110 -141z"/>
<path d="M9640 10546 c0 -2 7 -9 15 -16 13 -11 14 -10 9 4 -5 14 -24 23 -24
12z"/>
<path d="M1243 9867 c-117 -208 -117 -207 -106 -218 6 -6 25 19 50 63 94 170
121 216 151 260 37 54 38 58 15 58 -13 0 -46 -50 -110 -163z"/>
<path d="M912 9848 c-22 -28 -117 -307 -125 -370 -9 -63 9 -43 43 50 18 48 53
136 77 196 41 102 47 136 25 136 -5 0 -14 -6 -20 -12z"/>
<path d="M896 5634 c-9 -23 -2 -28 13 -10 7 8 8 17 3 20 -6 3 -13 -1 -16 -10z"/>
<path d="M1135 5375 c4 -16 17 -52 31 -80 14 -29 22 -39 19 -24 -2 14 -16 50
-30 80 -17 36 -24 44 -20 24z"/>
<path d="M1700 4857 c0 -21 100 -185 195 -318 99 -140 283 -379 292 -379 7 0
-13 31 -122 185 -144 203 -256 373 -300 452 -37 66 -65 92 -65 60z"/>
<path d="M9492 4198 c-21 -26 -140 -205 -165 -249 -34 -58 -34 -69 -1 -38 30
28 194 271 194 288 0 15 -15 14 -28 -1z"/>
<path d="M9834 3968 c-46 -39 -245 -220 -469 -428 -44 -42 -148 -127 -230
-189 -285 -217 -418 -332 -402 -347 3 -3 43 25 89 64 46 38 172 135 281 216
109 81 257 199 330 263 206 183 482 463 455 463 -2 0 -26 -19 -54 -42z"/>
<path d="M9285 3792 c-49 -48 -117 -110 -150 -138 -33 -29 -57 -55 -53 -59 18
-18 318 238 318 271 0 29 -28 11 -115 -74z"/>
<path d="M8554 3792 c-117 -97 -234 -185 -341 -256 -57 -37 -103 -69 -103 -72
0 -22 195 98 354 219 176 132 186 141 186 155 0 24 -27 11 -96 -46z"/>
<path d="M2770 3369 c8 -5 33 -19 55 -31 38 -19 39 -19 19 0 -25 24 -58 42
-76 42 -10 0 -9 -3 2 -11z"/>
<path d="M8670 3251 c-172 -85 -471 -222 -592 -271 -60 -24 -106 -45 -104 -47
11 -12 503 199 667 286 102 54 163 91 149 90 -3 0 -57 -26 -120 -58z"/>
<path d="M6376 2977 c-8 -12 -30 -56 -49 -97 -19 -41 -67 -145 -107 -230 -106
-228 -171 -439 -154 -505 10 -40 28 -24 36 34 12 81 83 287 149 433 34 73 74
165 89 203 15 39 40 90 54 115 30 53 31 56 11 64 -9 3 -21 -4 -29 -17z"/>
<path d="M6447 2897 c-24 -45 -72 -133 -107 -196 -91 -166 -190 -411 -190
-473 0 -49 34 15 117 217 24 61 91 201 149 312 57 112 104 205 104 207 0 2 -7
6 -15 9 -10 5 -27 -17 -58 -76z"/>
<path d="M8490 2907 c-109 -62 -186 -97 -602 -273 -103 -43 -188 -85 -188 -91
0 -16 -6 -17 70 11 174 64 560 237 554 248 -3 4 1 5 8 3 25 -10 258 113 258
135 0 18 -24 10 -100 -33z"/>
<path d="M7930 2920 c-8 -5 -10 -10 -5 -10 6 0 17 5 25 10 8 5 11 10 5 10 -5
0 -17 -5 -25 -10z"/>
<path d="M8599 2823 c-8 -9 -9 -14 -2 -10 6 4 14 1 16 -5 3 -7 6 -3 6 10 1 26
-2 27 -20 5z"/>
<path d="M3120 2686 c0 -2 15 -9 33 -15 29 -10 30 -9 13 4 -18 14 -46 20 -46
11z"/>
<path d="M3200 2660 c8 -5 22 -9 30 -9 10 0 8 3 -5 9 -27 12 -43 12 -25 0z"/>
<path d="M3275 2635 c17 -8 38 -14 47 -15 9 0 51 -19 93 -41 42 -23 78 -39 80
-37 8 8 -121 76 -175 92 -64 19 -86 20 -45 1z"/>
<path d="M5435 2380 c-3 -6 1 -7 9 -4 18 7 21 14 7 14 -6 0 -13 -4 -16 -10z"/>
<path d="M7807 2234 c3 -9 9 -12 12 -7 3 4 10 11 15 16 5 4 0 7 -12 7 -15 0
-20 -4 -15 -16z"/>
<path d="M7758 2227 c-23 -18 -9 -37 20 -26 12 5 22 13 22 19 0 7 -7 7 -22 -1
-21 -11 -22 -11 -9 4 16 20 12 21 -11 4z"/>
<path d="M5300 2219 c0 -5 5 -7 10 -4 6 3 10 8 10 11 0 2 -4 4 -10 4 -5 0 -10
-5 -10 -11z"/>
<path d="M5340 2159 c0 -5 5 -7 10 -4 6 3 10 8 10 11 0 2 -4 4 -10 4 -5 0 -10
-5 -10 -11z"/>
<path d="M4991 2001 c-10 -6 -10 -10 -1 -16 13 -8 24 -1 19 14 -3 6 -10 7 -18
2z"/>
<path d="M4955 1890 c3 -5 12 -7 20 -3 21 7 19 13 -6 13 -11 0 -18 -4 -14 -10z"/>
<path d="M4225 1850 c-20 -22 -50 -140 -59 -228 -8 -73 3 -51 50 108 19 63 37
121 39 128 7 18 -10 14 -30 -8z"/>
<path d="M5445 1700 c4 -6 11 -8 16 -5 14 9 11 15 -7 15 -8 0 -12 -5 -9 -10z"/>
<path d="M7080 1192 c-20 -20 -64 -64 -98 -96 -61 -58 -74 -87 -41 -94 15 -3
108 71 192 151 27 25 28 29 15 49 -22 32 -30 31 -68 -10z"/>
<path d="M4975 1089 c8 -13 -25 -40 -42 -34 -13 4 -26 -22 -14 -30 5 -2 21 5
35 16 15 12 37 22 50 23 12 0 23 6 23 12 0 6 -9 9 -19 6 -10 -2 -18 1 -18 7 0
6 -5 11 -11 11 -5 0 -7 -5 -4 -11z"/>
<path d="M10757 513 c-9 -2 -15 -9 -12 -14 4 -5 -3 -5 -17 0 -13 4 -32 5 -43
1 -11 -4 -28 -3 -38 2 -24 13 -39 1 -27 -21 7 -15 4 -20 -16 -30 -14 -6 -29
-9 -33 -6 -4 2 -18 -5 -30 -16 -21 -20 -88 -31 -196 -31 -22 0 -42 -3 -45 -8
-3 -4 -34 -10 -70 -13 -36 -3 -72 -8 -80 -11 -14 -5 -41 -8 -195 -22 -27 -2
-180 -4 -340 -4 -310 -1 -470 -13 -461 -36 3 -7 0 -16 -6 -20 -7 -5 -8 -2 -4
7 4 8 -2 3 -14 -11 -17 -19 -20 -21 -16 -6 5 15 4 17 -8 7 -12 -10 -16 -8 -21
7 -5 18 -13 20 -68 15 -88 -6 -107 -11 -107 -28 0 -17 -16 -20 -25 -4 -5 6
-12 4 -21 -8 -10 -13 -16 -15 -22 -6 -5 8 -13 9 -22 3 -24 -16 -53 -12 -46 5
3 8 1 15 -4 15 -6 0 -10 -13 -10 -29 0 -24 -4 -29 -20 -26 -11 2 -20 0 -20 -4
0 -5 -9 -11 -21 -14 -12 -3 -18 -10 -14 -16 3 -7 -2 -11 -14 -11 -11 0 -22 -4
-26 -10 -3 -5 -12 -7 -20 -4 -8 4 -17 0 -20 -8 -6 -15 -35 -21 -35 -6 0 4 -5
8 -11 8 -6 0 -9 -6 -6 -13 3 -8 -1 -14 -9 -14 -8 0 -14 6 -14 13 0 6 -6 14
-14 17 -10 4 -12 0 -8 -15 4 -18 2 -20 -16 -16 -12 4 -22 1 -22 -4 0 -6 -8 -4
-17 3 -14 12 -15 12 -9 1 7 -12 4 -12 -14 -2 -24 13 -70 6 -70 -10 0 -15 -40
-12 -40 3 0 6 -5 4 -11 -5 -5 -10 -19 -18 -29 -18 -11 0 -20 -4 -20 -8 0 -5
-6 -9 -12 -10 -49 -6 -84 -16 -93 -26 -11 -13 -30 -14 -62 -3 -14 5 -31 3 -45
-4 -13 -7 -33 -12 -45 -10 -13 1 -23 -2 -23 -8 0 -6 -3 -10 -7 -10 -27 4 -73
-3 -73 -11 0 -6 130 -10 370 -10 304 0 376 3 399 14 15 8 37 15 47 15 10 -1
37 1 59 4 22 3 69 9 105 12 36 4 80 11 98 17 18 5 44 7 58 4 14 -4 24 -2 24 4
0 7 7 7 21 0 16 -9 30 -7 65 10 25 11 66 23 92 25 26 3 61 9 77 15 17 5 69 14
117 20 48 6 107 14 132 19 25 4 48 5 53 1 11 -10 60 -24 51 -15 -4 4 4 16 17
27 13 10 22 25 19 32 -4 9 22 20 88 38 138 38 238 50 376 45 110 -4 125 -7
138 -25 12 -18 12 -20 -4 -16 -22 6 -114 -34 -107 -47 4 -5 -6 -10 -22 -10
-68 -3 -108 0 -110 8 -2 6 -23 7 -51 2 -26 -4 -48 -5 -50 -4 -2 2 -12 -5 -23
-16 -10 -10 -29 -19 -41 -19 -21 0 -109 -28 -98 -30 28 -7 40 -7 40 1 0 5 5 9
12 9 6 0 3 -9 -7 -20 -20 -22 -16 -23 37 -11 22 5 36 5 32 0 -3 -5 -15 -9 -27
-10 -19 -1 -18 -2 8 -14 17 -8 26 -14 20 -15 -5 0 -3 -5 5 -10 19 -12 111 -10
127 3 7 5 24 6 38 3 14 -4 25 -2 25 3 0 6 6 9 13 7 35 -11 107 -15 107 -5 0 6
-4 7 -10 4 -5 -3 -10 -1 -10 5 0 6 11 8 26 6 14 -3 44 2 66 11 32 13 42 13 48
3 4 -7 22 -13 39 -12 17 0 31 -4 31 -9 0 -5 -5 -9 -12 -9 -6 0 -9 -2 -6 -5 8
-9 38 6 32 16 -3 5 -1 9 5 9 12 0 2 32 -13 42 -6 4 10 8 37 8 26 0 47 4 47 10
0 5 7 7 15 3 9 -3 23 1 33 10 9 8 31 15 47 15 17 1 55 6 85 11 30 5 58 7 63 4
4 -2 16 -1 27 2 19 6 20 15 20 166 0 166 1 163 -43 152z m-517 -323 c13 -8 13
-10 -2 -10 -9 0 -20 5 -23 10 -8 13 5 13 25 0z"/>
<path d="M4625 221 c-3 -5 0 -13 6 -17 7 -4 9 -3 5 4 -3 5 0 13 6 15 9 4 10 6
1 6 -6 1 -14 -3 -18 -8z"/>
<path d="M10166 217 c3 -10 9 -15 12 -12 3 3 0 11 -7 18 -10 9 -11 8 -5 -6z"/>
<path d="M4620 145 c0 -26 14 -33 26 -13 4 7 3 8 -4 4 -19 -11 -14 5 6 20 16
12 15 13 -5 14 -18 0 -23 -6 -23 -25z"/>
<path d="M4660 111 c0 -5 7 -14 15 -21 13 -10 15 -9 15 9 0 12 -6 21 -15 21
-8 0 -15 -4 -15 -9z"/>
<path d="M9542 49 c-14 -5 -20 -13 -16 -20 4 -7 3 -9 -4 -5 -6 3 -13 3 -16 -2
-3 -5 -19 -7 -36 -4 -18 2 -30 0 -30 -7 0 -14 109 -15 145 -1 15 6 24 6 20 1
-3 -5 19 -9 50 -9 30 0 55 4 55 9 0 5 -21 7 -47 4 -33 -3 -43 -2 -33 5 12 8
12 10 -5 11 -11 1 -24 1 -29 0 -5 -1 -4 5 4 13 11 14 9 16 -11 15 -13 0 -34
-4 -47 -10z"/>
<path d="M9440 39 c0 -5 5 -7 10 -4 6 3 10 8 10 11 0 2 -4 4 -10 4 -5 0 -10
-5 -10 -11z"/>
<path d="M9196 11 c-3 -4 17 -8 44 -8 27 1 47 4 44 9 -7 11 -81 10 -88 -1z"/>
<path d="M9348 3 c6 -2 18 -2 25 0 6 3 1 5 -13 5 -14 0 -19 -2 -12 -5z"/>
</g>
</svg>
