<?xml version="1.0" standalone="no"?>
<!DOCTYPE svg PUBLIC "-//W3C//DTD SVG 20010904//EN"
 "http://www.w3.org/TR/2001/REC-SVG-20010904/DTD/svg10.dtd">
<svg version="1.0" xmlns="http://www.w3.org/2000/svg"
 width="125.000000pt" height="125.000000pt" viewBox="0 0 125.000000 125.000000"
 preserveAspectRatio="xMidYMid meet">
<metadata>
Created by potrace 1.14, written by Peter Selinger 2001-2017
</metadata>
<g transform="translate(0.000000,125.000000) scale(0.100000,-0.100000)"
fill="#000000" stroke="none">
<path d="M528 842 c-72 -26 -138 -93 -153 -155 l-7 -26 -59 49 c-71 59 -96 73
-111 64 -6 -4 -8 -3 -4 4 3 6 -3 14 -16 18 -16 5 -27 1 -40 -16 -15 -18 -18
-41 -18 -129 0 -58 -1 -121 -2 -139 -3 -54 18 -66 87 -52 47 10 106 31 157 58
4 2 16 -14 27 -35 59 -115 195 -167 318 -121 58 21 124 82 143 130 8 18 14 34
16 36 1 2 19 -5 41 -16 41 -21 95 -37 154 -46 46 -7 62 10 59 61 -1 21 -1 82
0 137 1 106 -13 146 -49 146 -20 0 -145 -85 -175 -119 -25 -28 -30 -27 -44 12
-44 122 -194 186 -324 139z m-73 -422 c10 -11 16 -20 13 -20 -3 0 -13 9 -23
20 -10 11 -16 20 -13 20 3 0 13 -9 23 -20z"/>
</g>
</svg>
