<?xml version="1.0" standalone="no"?><!DOCTYPE svg PUBLIC "-//W3C//DTD SVG 1.1//EN" "http://www.w3.org/Graphics/SVG/1.1/DTD/svg11.dtd"><svg t="1593419472736" class="icon" viewBox="0 0 1024 1024" version="1.1" xmlns="http://www.w3.org/2000/svg" p-id="2489" xmlns:xlink="http://www.w3.org/1999/xlink" width="200" height="200"><defs><style type="text/css"></style></defs><path d="M711.8 309.5m-72.9 0a72.9 72.9 0 1 0 145.8 0 72.9 72.9 0 1 0-145.8 0Z" fill="#F9CC12" p-id="2490"></path><path d="M711.8 392.4c-45.7 0-82.9-37.2-82.9-82.9s37.2-82.9 82.9-82.9 82.9 37.2 82.9 82.9-37.2 82.9-82.9 82.9z m0-145.8c-34.7 0-62.9 28.2-62.9 62.9s28.2 62.9 62.9 62.9 62.9-28.2 62.9-62.9-28.2-62.9-62.9-62.9zM713.8 214.2h-3.9c-4 0-7.2-3.2-7.2-7.2v-47.2c0-4 3.2-7.2 7.2-7.2h3.9c4 0 7.2 3.2 7.2 7.2V207c0 4-3.3 7.2-7.2 7.2zM645.8 240.7l-2.8 2.8c-2.8 2.8-7.4 2.8-10.2 0l-33.4-33.4c-2.8-2.8-2.8-7.4 0-10.2l2.8-2.8c2.8-2.8 7.4-2.8 10.2 0l33.4 33.4c2.8 2.9 2.8 7.4 0 10.2zM616.5 307.5v3.9c0 4-3.2 7.2-7.2 7.2h-47.2c-4 0-7.2-3.2-7.2-7.2v-3.9c0-4 3.2-7.2 7.2-7.2h47.2c4 0.1 7.2 3.3 7.2 7.2zM643 375.5l2.8 2.8c2.8 2.8 2.8 7.4 0 10.2l-33.4 33.4c-2.8 2.8-7.4 2.8-10.2 0l-2.8-2.8c-2.8-2.8-2.8-7.4 0-10.2l33.4-33.4c2.9-2.8 7.4-2.8 10.2 0zM709.8 404.8h3.9c4 0 7.2 3.2 7.2 7.2v47.2c0 4-3.2 7.2-7.2 7.2h-3.9c-4 0-7.2-3.2-7.2-7.2V412c0-4 3.3-7.2 7.2-7.2zM777.8 378.3l2.8-2.8c2.8-2.8 7.4-2.8 10.2 0l33.4 33.4c2.8 2.8 2.8 7.4 0 10.2l-2.8 2.8c-2.8 2.8-7.4 2.8-10.2 0l-33.4-33.4c-2.8-2.8-2.8-7.4 0-10.2zM807.1 311.5v-3.9c0-4 3.2-7.2 7.2-7.2h47.2c4 0 7.2 3.2 7.2 7.2v3.9c0 4-3.2 7.2-7.2 7.2h-47.2c-4 0-7.2-3.3-7.2-7.2zM780.6 243.5l-2.8-2.8c-2.8-2.8-2.8-7.4 0-10.2l33.4-33.4c2.8-2.8 7.4-2.8 10.2 0l2.8 2.8c2.8 2.8 2.8 7.4 0 10.2l-33.4 33.4c-2.8 2.8-7.4 2.8-10.2 0z" fill="#444D68" p-id="2491"></path><path d="M831.9 518.9c-6.7-8.8-18.1-9.2-25.4-1L752 578.8c-7.3 8.2-19 7.9-25.9-0.7l-74.2-92c-6.9-8.6-18.7-9-26.3-1l-65.2 69.4c-7.5 8-18.9 7.2-25.2-1.8L359.1 303.4c-6.3-9-16.7-9-23.1 0L90.3 651.2c-6.3 9-2.5 16.3 8.5 16.3H924.7c11 0 14.6-7.2 7.9-15.9L831.9 518.9z" fill="#186FED" p-id="2492"></path><path d="M924.9 687.6H98.8c-13 0-23.4-5.7-28.5-15.6s-3.8-21.7 3.7-32.3l245.7-347.8c6.8-9.7 17-15.2 27.9-15.2s21.1 5.5 27.9 15.2L549 537.5l62.1-66.1c7.6-8 18-12.4 28.7-12 10.7 0.4 20.8 5.6 27.7 14.1l72 89.3 52.2-58.2c7.5-8.4 17.9-12.9 28.7-12.5 10.7 0.4 20.8 5.8 27.6 14.8l100.8 132.7c7.9 10.5 9.6 22.2 4.7 32.2-5.1 10-15.5 15.8-28.6 15.8z m-807.5-40h787.2l-86-113.2-51.7 57.7c-7.4 8.3-17.8 12.9-28.5 12.6-10.7-0.3-20.9-5.4-27.8-14.1l-72.4-89.7-63.2 67.2c-7.7 8.2-18.3 12.5-29 11.7-10.7-0.7-20.6-6.5-27.1-15.7L347.5 321.8 117.4 647.6z m807.7 0z" fill="#444D68" p-id="2493"></path><path d="M955.2 782.5c-28.5 0-43-14.3-55.8-26.9-11.5-11.3-21.5-21.1-41.7-21.1s-30.2 9.8-41.7 21.1c-12.8 12.6-27.3 26.9-55.8 26.9-28.5 0-43-14.3-55.8-26.9-11.5-11.3-21.4-21.1-41.7-21.1-20.3 0-30.2 9.8-41.7 21.1-12.8 12.6-27.3 26.9-55.8 26.9s-43-14.3-55.8-26.9c-11.5-11.3-21.4-21.1-41.7-21.1-20.3 0-30.2 9.8-41.7 21.1-12.8 12.6-27.3 26.9-55.8 26.9s-43-14.3-55.8-26.9c-11.5-11.3-21.4-21.1-41.7-21.1-20.3 0-30.2 9.8-41.7 21.1-12.8 12.6-27.3 26.9-55.8 26.9-28.5 0-43-14.3-55.8-26.9-11.5-11.3-21.4-21.1-41.7-21.1-5.5 0-10-4.5-10-10s4.5-10 10-10c28.5 0 43 14.3 55.8 26.9 11.5 11.3 21.4 21.1 41.7 21.1 20.3 0 30.2-9.8 41.7-21.1 12.8-12.6 27.3-26.9 55.8-26.9 28.5 0 43 14.3 55.8 26.9 11.5 11.3 21.4 21.1 41.7 21.1s30.2-9.8 41.7-21.1c12.8-12.6 27.3-26.9 55.8-26.9 28.5 0 43 14.3 55.8 26.9 11.5 11.3 21.4 21.1 41.7 21.1s30.2-9.8 41.7-21.1c12.8-12.6 27.3-26.9 55.8-26.9 28.5 0 43 14.3 55.8 26.9 11.5 11.3 21.4 21.1 41.7 21.1 20.3 0 30.2-9.8 41.7-21.1 12.8-12.6 27.3-26.9 55.8-26.9s43 14.3 55.8 26.9c11.5 11.3 21.5 21.1 41.7 21.1 5.5 0 10 4.5 10 10s-4.5 10-10 10z" fill="#444D68" p-id="2494"></path><path d="M955.2 835.9c-28.5 0-43-14.3-55.8-26.9-11.5-11.3-21.5-21.1-41.7-21.1s-30.2 9.8-41.7 21.1c-12.8 12.6-27.3 26.9-55.8 26.9-28.5 0-43-14.3-55.8-26.9-11.5-11.3-21.4-21.1-41.7-21.1-20.3 0-30.2 9.8-41.7 21.1-12.8 12.6-27.3 26.9-55.8 26.9s-43-14.3-55.8-26.9c-11.5-11.3-21.4-21.1-41.7-21.1-20.3 0-30.2 9.8-41.7 21.1-12.8 12.6-27.3 26.9-55.8 26.9s-43-14.3-55.8-26.9c-11.5-11.3-21.4-21.1-41.7-21.1-20.3 0-30.2 9.8-41.7 21.1-12.8 12.6-27.3 26.9-55.8 26.9-28.5 0-43-14.3-55.8-26.9-11.5-11.3-21.4-21.1-41.7-21.1-5.5 0-10-4.5-10-10s4.5-10 10-10c28.5 0 43 14.3 55.8 26.9 11.5 11.3 21.4 21.1 41.7 21.1 20.3 0 30.2-9.8 41.7-21.1 12.8-12.6 27.3-26.9 55.8-26.9 28.5 0 43 14.3 55.8 26.9 11.5 11.3 21.4 21.1 41.7 21.1s30.2-9.8 41.7-21.1c12.8-12.6 27.3-26.9 55.8-26.9 28.5 0 43 14.3 55.8 26.9 11.5 11.3 21.4 21.1 41.7 21.1s30.2-9.8 41.7-21.1c12.8-12.6 27.3-26.9 55.8-26.9 28.5 0 43 14.3 55.8 26.9 11.5 11.3 21.4 21.1 41.7 21.1 20.3 0 30.2-9.8 41.7-21.1 12.8-12.6 27.3-26.9 55.8-26.9s43 14.3 55.8 26.9c11.5 11.3 21.5 21.1 41.7 21.1 5.5 0 10 4.5 10 10s-4.5 10-10 10z" fill="#444D68" p-id="2495"></path><path d="M955.2 889.3c-28.5 0-43-14.3-55.8-26.9-11.5-11.3-21.5-21.1-41.7-21.1s-30.2 9.8-41.7 21.1c-12.8 12.6-27.3 26.9-55.8 26.9-28.5 0-43-14.3-55.8-26.9-11.5-11.3-21.4-21.1-41.7-21.1-20.3 0-30.2 9.8-41.7 21.1-12.8 12.6-27.3 26.9-55.8 26.9s-43-14.3-55.8-26.9c-11.5-11.3-21.4-21.1-41.7-21.1-20.3 0-30.2 9.8-41.7 21.1-12.8 12.6-27.3 26.9-55.8 26.9s-43-14.3-55.8-26.9c-11.5-11.3-21.4-21.1-41.7-21.1-20.3 0-30.2 9.8-41.7 21.1-12.8 12.6-27.3 26.9-55.8 26.9-28.5 0-43-14.3-55.8-26.9-11.5-11.3-21.4-21.1-41.7-21.1-5.5 0-10-4.5-10-10s4.5-10 10-10c28.5 0 43 14.3 55.8 26.9 11.5 11.3 21.4 21.1 41.7 21.1 20.3 0 30.2-9.8 41.7-21.1 12.8-12.6 27.3-26.9 55.8-26.9 28.5 0 43 14.3 55.8 26.9 11.5 11.3 21.4 21.1 41.7 21.1s30.2-9.8 41.7-21.1c12.8-12.6 27.3-26.9 55.8-26.9 28.5 0 43 14.3 55.8 26.9 11.5 11.3 21.4 21.1 41.7 21.1s30.2-9.8 41.7-21.1c12.8-12.6 27.3-26.9 55.8-26.9 28.5 0 43 14.3 55.8 26.9 11.5 11.3 21.4 21.1 41.7 21.1 20.3 0 30.2-9.8 41.7-21.1 12.8-12.6 27.3-26.9 55.8-26.9s43 14.3 55.8 26.9c11.5 11.3 21.5 21.1 41.7 21.1 5.5 0 10 4.5 10 10s-4.5 10-10 10z" fill="#444D68" p-id="2496"></path></svg>