<?xml version="1.0" encoding="UTF-8"?>
<svg xmlns="http://www.w3.org/2000/svg" xmlns:xlink="http://www.w3.org/1999/xlink" width="120px" height="120px" viewBox="0 0 120 120" version="1.1">
<g id="surface1">
<path style=" stroke:none;fill-rule:nonzero;fill:rgb(0%,0%,0%);fill-opacity:1;" d="M 57.132812 5.75 C 55.539062 7.082031 50.835938 11.011719 46.6875 14.472656 C 42.542969 17.9375 38.96875 20.921875 38.742188 21.109375 C 38.144531 21.628906 38.152344 21.761719 38.820312 22.554688 C 39.117188 22.917969 39.410156 23.253906 39.464844 23.316406 C 39.558594 23.410156 40.703125 22.484375 47.136719 17.113281 C 51.296875 13.640625 56.207031 9.550781 58.050781 8.011719 C 61.132812 5.449219 61.40625 5.199219 61.40625 4.980469 C 61.414062 4.78125 61.289062 4.585938 60.808594 4.011719 C 60.480469 3.621094 60.171875 3.296875 60.125 3.304688 C 60.078125 3.304688 58.734375 4.40625 57.132812 5.75 Z M 57.132812 5.75 "/>
<path style=" stroke:none;fill-rule:nonzero;fill:rgb(0%,0%,0%);fill-opacity:1;" d="M 64.886719 4.886719 C 64.8125 4.957031 64.789062 6.980469 64.789062 13.507812 C 64.789062 21.675781 64.796875 22.050781 64.933594 22.171875 C 65.050781 22.28125 65.253906 22.304688 66.0625 22.304688 C 66.980469 22.304688 67.050781 22.296875 67.210938 22.121094 L 67.382812 21.941406 L 67.382812 13.492188 C 67.382812 5.410156 67.375 5.042969 67.242188 4.925781 C 67.121094 4.8125 66.910156 4.789062 66.039062 4.789062 C 65.316406 4.789062 64.949219 4.820312 64.886719 4.886719 Z M 64.886719 4.886719 "/>
<path style=" stroke:none;fill-rule:nonzero;fill:rgb(0%,0%,0%);fill-opacity:1;" d="M 72.488281 19.027344 C 71.457031 20.410156 71.457031 20.386719 72.457031 21.09375 C 73.492188 21.832031 74.71875 22.894531 75.769531 23.984375 C 76.484375 24.722656 76.6875 24.894531 76.867188 24.894531 C 77.058594 24.894531 77.238281 24.730469 78.03125 23.796875 C 78.542969 23.191406 78.980469 22.65625 78.996094 22.609375 C 79.066406 22.398438 76.625 20.144531 75.3125 19.226562 C 74.648438 18.753906 73.421875 17.984375 73.34375 17.984375 C 73.304688 17.984375 72.917969 18.457031 72.488281 19.027344 Z M 72.488281 19.027344 "/>
<path style=" stroke:none;fill-rule:nonzero;fill:rgb(0%,0%,0%);fill-opacity:1;" d="M 33.847656 31.375 C 33.101562 31.617188 32.308594 32.433594 32.113281 33.164062 C 31.964844 33.707031 32.058594 34.539062 32.324219 35.019531 C 32.582031 35.496094 33.070312 35.960938 33.597656 36.21875 C 34.15625 36.496094 35.066406 36.480469 35.664062 36.179688 C 36.203125 35.921875 36.699219 35.394531 36.964844 34.820312 C 37.671875 33.273438 36.472656 31.375 34.726562 31.289062 C 34.40625 31.273438 34.066406 31.304688 33.847656 31.375 Z M 35.175781 32.8125 C 35.605469 33.023438 35.757812 33.296875 35.757812 33.847656 C 35.757812 34.203125 35.71875 34.382812 35.597656 34.539062 C 35.136719 35.183594 34.003906 35.183594 33.613281 34.539062 C 33.402344 34.1875 33.402344 33.511719 33.613281 33.15625 C 33.894531 32.695312 34.632812 32.527344 35.175781 32.8125 Z M 35.175781 32.8125 "/>
<path style=" stroke:none;fill-rule:nonzero;fill:rgb(0%,0%,0%);fill-opacity:1;" d="M 14.058594 32.003906 L 13.476562 32.582031 L 13.75 32.96875 C 15.730469 35.765625 15.566406 35.566406 15.863281 35.574219 C 16.105469 35.574219 16.21875 35.496094 16.757812 34.957031 L 17.371094 34.335938 L 16.25 32.875 C 14.867188 31.097656 14.929688 31.121094 14.058594 32.003906 Z M 14.058594 32.003906 "/>
<path style=" stroke:none;fill-rule:nonzero;fill:rgb(0%,0%,0%);fill-opacity:1;" d="M 12.070312 32.96875 C 11.78125 33.257812 11.542969 33.527344 11.542969 33.566406 C 11.542969 33.597656 11.984375 34.328125 12.527344 35.183594 C 13.757812 37.121094 13.703125 37.097656 14.613281 36.171875 C 14.953125 35.828125 15.226562 35.511719 15.210938 35.472656 C 15.203125 35.433594 14.734375 34.734375 14.175781 33.917969 C 13.179688 32.472656 13.148438 32.433594 12.878906 32.433594 C 12.636719 32.433594 12.527344 32.503906 12.070312 32.96875 Z M 12.070312 32.96875 "/>
<path style=" stroke:none;fill-rule:nonzero;fill:rgb(0%,0%,0%);fill-opacity:1;" d="M 26.65625 33.792969 C 24.304688 36.21875 23.253906 38.246094 22.726562 41.347656 C 22.539062 42.457031 22.53125 45.070312 22.71875 46.097656 C 23.238281 48.941406 24.621094 51.628906 26.960938 54.34375 C 27.449219 54.917969 27.574219 55.011719 27.800781 55.035156 C 28.050781 55.058594 28.132812 54.996094 28.695312 54.433594 L 29.324219 53.804688 L 29.089844 53.527344 C 28.964844 53.378906 28.585938 52.941406 28.25 52.546875 C 26.425781 50.433594 25.359375 48.425781 24.878906 46.234375 C 24.644531 45.140625 24.628906 42.550781 24.847656 41.347656 C 25.132812 39.792969 25.664062 38.449219 26.480469 37.242188 C 26.953125 36.550781 28.082031 35.222656 28.695312 34.65625 C 29.300781 34.089844 29.292969 34.003906 28.492188 33.265625 C 28.140625 32.9375 27.824219 32.671875 27.792969 32.671875 C 27.769531 32.671875 27.25 33.171875 26.65625 33.792969 Z M 26.65625 33.792969 "/>
<path style=" stroke:none;fill-rule:nonzero;fill:rgb(0%,0%,0%);fill-opacity:1;" d="M 80.589844 35.285156 C 80.433594 35.457031 80.417969 35.542969 80.417969 36.527344 C 80.417969 37.539062 80.425781 37.601562 80.597656 37.757812 L 80.78125 37.933594 L 85.585938 37.933594 C 88.234375 37.933594 90.394531 37.964844 90.394531 37.996094 C 90.394531 38.027344 88.917969 41.269531 87.109375 45.195312 C 83.859375 52.265625 83.828125 52.34375 83.945312 52.554688 L 84.070312 52.773438 L 85.484375 52.773438 L 86.898438 52.765625 L 89.246094 47.488281 C 90.542969 44.582031 92.050781 41.199219 92.605469 39.957031 L 93.613281 37.710938 L 93.613281 36.535156 C 93.613281 35.394531 93.605469 35.339844 93.441406 35.230469 C 93.28125 35.121094 92.542969 35.105469 87.015625 35.105469 L 80.757812 35.105469 Z M 80.589844 35.285156 "/>
<path style=" stroke:none;fill-rule:nonzero;fill:rgb(0%,0%,0%);fill-opacity:1;" d="M 39.660156 49.910156 L 38.945312 50.898438 L 39.550781 51.621094 C 39.886719 52.019531 40.578125 52.910156 41.089844 53.597656 C 42.457031 55.445312 42.386719 55.367188 42.628906 55.367188 C 42.808594 55.367188 42.949219 55.21875 43.546875 54.410156 C 43.941406 53.882812 44.277344 53.410156 44.316406 53.355469 C 44.402344 53.214844 42.433594 50.597656 41.308594 49.375 C 40.972656 48.996094 40.851562 48.925781 40.640625 48.925781 C 40.390625 48.925781 40.328125 48.988281 39.660156 49.910156 Z M 39.660156 49.910156 "/>
<path style=" stroke:none;fill-rule:nonzero;fill:rgb(0%,0%,0%);fill-opacity:1;" d="M 61.050781 50.183594 C 60.03125 50.589844 59.371094 51.605469 59.371094 52.773438 C 59.371094 53.96875 60.039062 54.972656 61.089844 55.375 C 61.742188 55.617188 62.851562 55.5625 63.472656 55.265625 C 64.003906 55.003906 64.421875 54.558594 64.703125 53.960938 C 64.878906 53.582031 64.910156 53.417969 64.910156 52.773438 C 64.910156 52.132812 64.878906 51.964844 64.703125 51.589844 C 64.421875 50.992188 64.003906 50.542969 63.472656 50.285156 C 63.085938 50.097656 62.914062 50.066406 62.238281 50.050781 C 61.601562 50.027344 61.375 50.058594 61.050781 50.183594 Z M 62.898438 51.472656 C 63.023438 51.542969 63.234375 51.730469 63.351562 51.886719 C 63.550781 52.148438 63.574219 52.242188 63.574219 52.773438 C 63.574219 53.308594 63.550781 53.402344 63.351562 53.664062 C 62.835938 54.335938 61.828125 54.449219 61.171875 53.898438 C 60.847656 53.632812 60.707031 53.277344 60.707031 52.773438 C 60.707031 52.082031 61.011719 51.621094 61.625 51.394531 C 61.980469 51.257812 62.558594 51.296875 62.898438 51.472656 Z M 62.898438 51.472656 "/>
<path style=" stroke:none;fill-rule:nonzero;fill:rgb(0%,0%,0%);fill-opacity:1;" d="M 70.050781 61.695312 C 69.902344 61.757812 69.667969 61.902344 69.527344 62.011719 C 69.054688 62.371094 68.175781 63.816406 67.84375 64.773438 L 67.695312 65.199219 L 68.230469 65.78125 C 68.726562 66.328125 68.773438 66.367188 69.023438 66.328125 C 69.164062 66.304688 69.289062 66.28125 69.304688 66.265625 C 69.3125 66.25 69.503906 65.867188 69.722656 65.402344 C 70.027344 64.75 70.179688 64.523438 70.382812 64.398438 C 70.941406 64.058594 71.519531 64.289062 72.605469 65.269531 C 74.074219 66.605469 74.695312 66.925781 75.496094 66.753906 C 76.492188 66.542969 77.097656 65.898438 78.109375 63.972656 L 78.519531 63.1875 L 77.96875 62.472656 C 77.433594 61.765625 77.417969 61.757812 77.152344 61.796875 C 76.902344 61.84375 76.851562 61.894531 76.65625 62.363281 C 76.257812 63.3125 75.660156 64.003906 75.25 64.003906 C 74.773438 64.003906 74.066406 63.566406 72.996094 62.605469 C 72.699219 62.332031 72.203125 61.988281 71.90625 61.835938 C 71.449219 61.609375 71.285156 61.570312 70.84375 61.570312 C 70.5625 61.578125 70.203125 61.632812 70.050781 61.695312 Z M 70.050781 61.695312 "/>
<path style=" stroke:none;fill-rule:nonzero;fill:rgb(0%,0%,0%);fill-opacity:1;" d="M 55.210938 62.472656 L 54.628906 63.054688 L 54.902344 63.441406 C 56.882812 66.234375 56.71875 66.039062 57.015625 66.046875 C 57.257812 66.046875 57.367188 65.96875 57.910156 65.425781 L 58.523438 64.804688 L 57.402344 63.34375 C 56.019531 61.570312 56.082031 61.59375 55.210938 62.472656 Z M 55.210938 62.472656 "/>
<path style=" stroke:none;fill-rule:nonzero;fill:rgb(0%,0%,0%);fill-opacity:1;" d="M 53.222656 63.441406 C 52.933594 63.730469 52.695312 63.996094 52.695312 64.035156 C 52.695312 64.066406 53.136719 64.796875 53.679688 65.65625 C 54.910156 67.59375 54.855469 67.570312 55.773438 66.652344 C 56.113281 66.304688 56.378906 65.984375 56.355469 65.929688 C 56.339844 65.875 55.867188 65.175781 55.3125 64.367188 C 54.328125 62.945312 54.296875 62.914062 54.03125 62.90625 C 53.789062 62.90625 53.679688 62.976562 53.222656 63.441406 Z M 53.222656 63.441406 "/>
<path style=" stroke:none;fill-rule:nonzero;fill:rgb(0%,0%,0%);fill-opacity:1;" d="M 30.328125 65.828125 C 30.257812 65.898438 30.234375 67.925781 30.234375 74.449219 C 30.234375 82.617188 30.242188 82.996094 30.378906 83.113281 C 30.496094 83.222656 30.699219 83.246094 31.507812 83.246094 C 32.425781 83.246094 32.496094 83.238281 32.65625 83.066406 L 32.828125 82.886719 L 32.828125 74.433594 C 32.828125 66.351562 32.820312 65.984375 32.6875 65.867188 C 32.566406 65.757812 32.355469 65.734375 31.484375 65.734375 C 30.761719 65.734375 30.394531 65.765625 30.328125 65.828125 Z M 30.328125 65.828125 "/>
<path style=" stroke:none;fill-rule:nonzero;fill:rgb(0%,0%,0%);fill-opacity:1;" d="M 82.46875 69.320312 C 81.023438 70.625 81.023438 70.578125 82.25 71.402344 C 86.332031 74.160156 90.070312 77.597656 92.152344 80.519531 C 92.527344 81.054688 92.710938 81.203125 92.945312 81.203125 C 93.039062 81.203125 94.828125 79.765625 95.6875 78.996094 C 95.726562 78.957031 95.472656 78.558594 95.089844 78.046875 C 92.875 75.140625 89.621094 72.265625 85.273438 69.378906 C 84.402344 68.796875 83.664062 68.324219 83.632812 68.324219 C 83.597656 68.324219 83.074219 68.773438 82.46875 69.320312 Z M 82.46875 69.320312 "/>
<path style=" stroke:none;fill-rule:nonzero;fill:rgb(0%,0%,0%);fill-opacity:1;" d="M 37.933594 79.972656 C 36.902344 81.351562 36.902344 81.328125 37.902344 82.035156 C 38.9375 82.773438 40.164062 83.835938 41.214844 84.925781 C 41.929688 85.664062 42.132812 85.835938 42.3125 85.835938 C 42.503906 85.835938 42.683594 85.671875 43.476562 84.738281 C 43.988281 84.132812 44.425781 83.597656 44.441406 83.550781 C 44.511719 83.339844 42.070312 81.085938 40.757812 80.167969 C 40.089844 79.695312 38.867188 78.925781 38.789062 78.925781 C 38.75 78.925781 38.363281 79.398438 37.933594 79.972656 Z M 37.933594 79.972656 "/>
<path style=" stroke:none;fill-rule:nonzero;fill:rgb(0%,0%,0%);fill-opacity:1;" d="M 90.722656 94.34375 C 90.28125 94.78125 90.078125 95.050781 90.078125 95.175781 C 90.078125 95.292969 90.304688 95.597656 90.753906 96.070312 C 93.433594 98.914062 94.671875 101.96875 94.53125 105.359375 C 94.414062 108.125 93.433594 110.582031 91.554688 112.8125 C 91.226562 113.199219 90.761719 113.71875 90.519531 113.953125 C 89.882812 114.566406 89.898438 114.683594 90.730469 115.507812 L 91.382812 116.160156 L 92.261719 115.257812 C 94.4375 113.003906 95.804688 110.527344 96.351562 107.820312 C 97.203125 103.679688 96.25 99.582031 93.660156 96.148438 C 93.109375 95.417969 91.539062 93.691406 91.421875 93.691406 C 91.398438 93.691406 91.082031 93.980469 90.722656 94.34375 Z M 90.722656 94.34375 "/>
<path style=" stroke:none;fill-rule:nonzero;fill:rgb(0%,0%,0%);fill-opacity:1;" d="M 32.332031 94.226562 C 32.207031 94.359375 32.199219 94.988281 32.199219 101.648438 C 32.199219 109.539062 32.214844 109.972656 32.640625 111.410156 C 33.164062 113.238281 34.140625 114.234375 35.851562 114.707031 C 36.558594 114.902344 38.859375 114.949219 39.785156 114.785156 C 43.210938 114.195312 45.320312 111.730469 46.21875 107.316406 C 46.328125 106.765625 46.414062 106.3125 46.398438 106.296875 C 46.382812 106.289062 45.847656 106.042969 45.210938 105.753906 C 44.066406 105.234375 43.859375 105.195312 43.671875 105.425781 C 43.625 105.480469 43.515625 105.933594 43.429688 106.429688 C 42.886719 109.570312 41.742188 111.359375 39.957031 111.871094 C 39.351562 112.042969 37.640625 112.042969 36.832031 111.878906 C 35.984375 111.699219 35.597656 111.433594 35.277344 110.8125 C 34.796875 109.867188 34.796875 109.8125 34.789062 101.734375 L 34.789062 94.421875 L 34.609375 94.257812 C 34.445312 94.097656 34.34375 94.082031 33.441406 94.082031 C 32.589844 94.082031 32.441406 94.097656 32.332031 94.226562 Z M 32.332031 94.226562 "/>
<path style=" stroke:none;fill-rule:nonzero;fill:rgb(0%,0%,0%);fill-opacity:1;" d="M 51.417969 94.226562 C 51.289062 94.359375 51.28125 94.988281 51.28125 101.648438 C 51.28125 109.539062 51.296875 109.972656 51.722656 111.410156 C 52.25 113.222656 53.152344 114.171875 54.816406 114.667969 C 55.632812 114.902344 57.816406 114.964844 58.878906 114.785156 C 62.292969 114.195312 64.40625 111.730469 65.300781 107.308594 C 65.410156 106.765625 65.496094 106.3125 65.480469 106.296875 C 65.464844 106.289062 64.933594 106.042969 64.289062 105.753906 C 63.234375 105.273438 63.101562 105.234375 62.898438 105.3125 C 62.726562 105.386719 62.671875 105.472656 62.632812 105.730469 C 62.074219 109.414062 60.925781 111.359375 59.019531 111.871094 C 58.390625 112.035156 56.710938 112.042969 55.917969 111.878906 C 55.066406 111.699219 54.683594 111.433594 54.359375 110.8125 C 53.882812 109.867188 53.882812 109.8125 53.875 101.734375 L 53.875 94.421875 L 53.695312 94.257812 C 53.527344 94.097656 53.425781 94.082031 52.523438 94.082031 C 51.675781 94.082031 51.527344 94.097656 51.417969 94.226562 Z M 51.417969 94.226562 "/>
<path style=" stroke:none;fill-rule:nonzero;fill:rgb(0%,0%,0%);fill-opacity:1;" d="M 109.578125 94.933594 C 109.4375 95.058594 109.398438 95.214844 109.320312 96.132812 C 108.699219 103.273438 105.550781 108.621094 99.941406 112.066406 C 98.828125 112.75 98.828125 112.742188 99.910156 114.09375 C 100.34375 114.644531 100.726562 115.121094 100.757812 115.15625 C 100.902344 115.3125 103.304688 113.613281 104.632812 112.429688 C 107.082031 110.238281 109.46875 106.695312 110.804688 103.257812 C 111.589844 101.222656 112.203125 98.472656 112.351562 96.28125 L 112.398438 95.535156 L 111.195312 95.191406 C 110.527344 95.003906 109.933594 94.835938 109.867188 94.820312 C 109.804688 94.804688 109.671875 94.851562 109.578125 94.933594 Z M 109.578125 94.933594 "/>
<path style=" stroke:none;fill-rule:nonzero;fill:rgb(0%,0%,0%);fill-opacity:1;" d="M 39.519531 95.464844 C 39.34375 95.582031 39.34375 95.605469 39.34375 97.585938 C 39.34375 100.035156 39.273438 99.886719 40.492188 99.894531 C 41.679688 99.894531 41.621094 100.003906 41.621094 97.609375 C 41.621094 95.230469 41.679688 95.339844 40.476562 95.339844 C 39.894531 95.339844 39.652344 95.371094 39.519531 95.464844 Z M 39.519531 95.464844 "/>
<path style=" stroke:none;fill-rule:nonzero;fill:rgb(0%,0%,0%);fill-opacity:1;" d="M 42.195312 95.488281 C 42.015625 95.640625 42.015625 95.664062 42.015625 97.59375 C 42.015625 100.011719 41.953125 99.894531 43.164062 99.894531 C 44.347656 99.894531 44.292969 100.003906 44.292969 97.609375 C 44.292969 95.695312 44.292969 95.679688 44.113281 95.511719 C 43.949219 95.355469 43.84375 95.339844 43.148438 95.339844 C 42.503906 95.347656 42.335938 95.371094 42.195312 95.488281 Z M 42.195312 95.488281 "/>
<path style=" stroke:none;fill-rule:nonzero;fill:rgb(0%,0%,0%);fill-opacity:1;" d="M 71.632812 96.125 C 70.5625 96.410156 69.824219 96.988281 69.386719 97.886719 C 69.039062 98.589844 68.953125 99.15625 68.953125 100.734375 L 68.953125 102.015625 L 67.910156 102.015625 C 66.566406 102.015625 66.597656 101.992188 66.597656 103.132812 C 66.597656 104.238281 66.574219 104.214844 67.917969 104.214844 L 68.953125 104.214844 L 68.953125 113.378906 L 69.132812 113.542969 C 69.296875 113.703125 69.402344 113.71875 70.304688 113.71875 C 71.152344 113.71875 71.300781 113.703125 71.410156 113.574219 C 71.527344 113.441406 71.542969 112.980469 71.558594 108.839844 L 71.582031 104.253906 L 73.105469 104.230469 C 74.394531 104.214844 74.664062 104.191406 74.78125 104.082031 C 74.898438 103.972656 74.921875 103.820312 74.921875 103.113281 C 74.921875 102.410156 74.898438 102.257812 74.78125 102.148438 C 74.664062 102.039062 74.394531 102.015625 73.105469 102 L 71.582031 101.976562 L 71.582031 100.585938 C 71.582031 99.304688 71.597656 99.179688 71.75 98.984375 C 72.101562 98.503906 72.265625 98.441406 73.179688 98.441406 C 73.964844 98.441406 74.066406 98.457031 74.710938 98.726562 C 75.386719 99.007812 75.417969 99.007812 75.636719 98.882812 L 75.863281 98.757812 L 75.863281 96.542969 L 75.273438 96.367188 C 73.867188 95.953125 72.628906 95.867188 71.632812 96.125 Z M 71.632812 96.125 "/>
<path style=" stroke:none;fill-rule:nonzero;fill:rgb(0%,0%,0%);fill-opacity:1;" d="M 85.105469 111.109375 C 84.996094 111.226562 84.972656 111.441406 84.972656 112.359375 C 84.972656 113.597656 85.011719 113.6875 85.539062 113.734375 L 85.820312 113.757812 L 85.40625 114.855469 C 85.003906 115.917969 84.996094 115.964844 85.113281 116.167969 C 85.242188 116.378906 85.273438 116.386719 85.859375 116.386719 L 86.472656 116.386719 L 87.179688 114.933594 L 87.878906 113.472656 L 87.878906 112.351562 C 87.878906 110.890625 87.964844 110.96875 86.410156 110.96875 C 85.367188 110.96875 85.21875 110.984375 85.105469 111.109375 Z M 85.105469 111.109375 "/>
<path style=" stroke:none;fill-rule:nonzero;fill:rgb(0%,0%,0%);fill-opacity:1;" d="M 75.171875 114.839844 C 75.023438 114.996094 75 115.113281 75 115.617188 C 75 116.089844 75.03125 116.230469 75.140625 116.332031 C 75.273438 116.449219 75.667969 116.464844 79.140625 116.464844 C 83.621094 116.464844 83.246094 116.542969 83.246094 115.585938 C 83.246094 115.074219 83.222656 114.980469 83.066406 114.832031 C 82.886719 114.660156 82.878906 114.660156 79.113281 114.660156 L 75.335938 114.660156 Z M 75.171875 114.839844 "/>
</g>
</svg>
