<?xml version="1.0" standalone="no"?>
<!DOCTYPE svg PUBLIC "-//W3C//DTD SVG 20010904//EN"
 "http://www.w3.org/TR/2001/REC-SVG-20010904/DTD/svg10.dtd">
<svg version="1.0" xmlns="http://www.w3.org/2000/svg"
 width="1222.400000pt" height="1222.400000pt" viewBox="0 0 1222.400000 1222.400000"
 preserveAspectRatio="xMidYMid meet">
<metadata>
Created by potrace 1.13, written by Peter Selinger 2001-2015
</metadata>
<g transform="translate(0.000000,1222.400000) scale(0.080000,-0.080000)"
fill="#000000" stroke="none">
<path d="M7275 14548 c-203 -170 -802 -670 -1330 -1111 -528 -441 -983 -821
-1012 -845 -76 -66 -75 -83 10 -184 38 -46 75 -89 82 -97 12 -12 158 106 977
790 530 442 1155 963 1390 1159 392 326 427 358 427 386 1 25 -15 50 -76 123
-42 50 -81 91 -87 90 -6 0 -177 -140 -381 -311z"/>
<path d="M8262 14658 c-9 -9 -12 -267 -12 -1098 0 -1040 1 -1088 18 -1103 15
-14 41 -17 144 -17 117 0 126 1 146 23 l22 23 0 1076 c0 1029 -1 1076 -18
1091 -15 14 -42 17 -153 17 -92 0 -139 -4 -147 -12z"/>
<path d="M9230 12857 c-131 -176 -131 -173 -4 -263 132 -94 288 -229 422 -368
91 -94 117 -116 140 -116 24 0 47 21 148 140 65 77 121 145 123 151 9 27 -302
314 -469 431 -85 60 -241 158 -251 158 -5 0 -54 -60 -109 -133z"/>
<path d="M4310 11285 c-95 -31 -196 -135 -221 -228 -19 -69 -7 -175 27 -236
33 -61 95 -120 162 -153 71 -35 187 -33 263 5 69 33 132 100 166 173 90 197
-63 439 -285 450 -41 2 -84 -2 -112 -11z m169 -183 c55 -27 74 -62 74 -132 0
-45 -5 -68 -20 -88 -59 -82 -203 -82 -253 0 -27 45 -27 131 0 176 36 59 130
80 199 44z"/>
<path d="M1790 11205 l-74 -74 35 -49 c252 -356 231 -331 269 -332 31 0 45 10
114 79 l78 79 -143 186 c-176 226 -168 223 -279 111z"/>
<path d="M1537 11082 c-37 -37 -67 -71 -67 -76 0 -4 56 -97 125 -206 157 -247
150 -244 266 -126 43 44 78 84 76 89 -1 5 -61 94 -132 198 -127 184 -131 189
-165 189 -31 0 -45 -9 -103 -68z"/>
<path d="M3394 10977 c-299 -309 -433 -567 -500 -962 -24 -141 -25 -474 -1
-605 66 -362 242 -704 540 -1050 62 -73 78 -85 107 -88 32 -3 42 5 114 77 l80
80 -30 35 c-16 19 -64 75 -107 125 -232 269 -368 525 -429 804 -30 139 -32
469 -4 622 36 198 104 369 208 523 60 88 204 257 282 329 77 72 76 83 -26 177
-45 42 -85 76 -89 76 -3 0 -69 -64 -145 -143z"/>
<path d="M10262 10787 c-20 -22 -22 -33 -22 -158 0 -129 1 -137 23 -157 l23
-22 612 0 c337 0 612 -4 612 -8 0 -4 -188 -417 -418 -917 -414 -900 -418 -910
-403 -937 l16 -28 180 0 180 1 299 672 c165 370 357 801 428 959 l128 286 0
150 c0 145 -1 152 -22 166 -20 14 -114 16 -818 16 l-797 0 -21 -23z"/>
<path d="M5050 8925 l-91 -126 77 -92 c43 -51 131 -164 196 -252 174 -235 165
-225 196 -225 23 0 41 19 117 122 50 67 93 127 98 134 11 18 -240 351 -383
507 -43 48 -58 57 -85 57 -32 0 -40 -8 -125 -125z"/>
<path d="M7774 8890 c-130 -52 -214 -181 -214 -330 0 -152 85 -280 219 -331
83 -31 224 -24 303 14 68 33 121 90 157 166 22 48 26 69 26 151 0 82 -4 103
-26 151 -36 76 -89 133 -157 166 -49 24 -71 28 -157 30 -81 3 -110 -1 -151
-17z m235 -164 c16 -9 43 -33 58 -53 25 -33 28 -45 28 -113 0 -68 -3 -80 -28
-113 -66 -86 -194 -100 -278 -30 -41 34 -59 79 -59 143 0 88 39 147 117 176
45 17 119 12 162 -10z"/>
<path d="M8920 7424 c-19 -8 -49 -26 -67 -40 -60 -46 -172 -230 -214 -352
l-19 -54 68 -74 c63 -70 69 -75 101 -70 18 3 34 6 36 8 1 2 25 51 53 110 39
83 58 112 84 128 71 43 145 14 283 -111 187 -170 266 -211 368 -189 127 27
204 109 333 354 l52 100 -70 91 c-68 90 -70 91 -104 86 -32 -6 -38 -12 -63
-72 -51 -121 -127 -209 -179 -209 -61 0 -151 56 -287 178 -38 35 -101 79 -139
98 -58 29 -79 34 -135 34 -36 -1 -82 -8 -101 -16z"/>
<path d="M7030 7325 l-74 -74 35 -49 c252 -356 231 -331 269 -332 31 0 45 10
114 79 l78 79 -143 186 c-176 226 -168 223 -279 111z"/>
<path d="M6777 7202 c-37 -37 -67 -71 -67 -76 0 -4 56 -97 125 -206 157 -247
150 -244 267 -127 43 44 77 85 74 92 -2 7 -62 96 -133 199 -125 181 -129 185
-163 186 -31 0 -45 -9 -103 -68z"/>
<path d="M3862 6898 c-9 -9 -12 -267 -12 -1098 0 -1040 1 -1088 18 -1103 15
-14 41 -17 144 -17 117 0 126 1 146 23 l22 23 0 1076 c0 1029 -1 1076 -18
1091 -15 14 -42 17 -153 17 -92 0 -139 -4 -147 -12z"/>
<path d="M10501 6453 c-184 -166 -184 -160 -28 -265 520 -351 996 -789 1261
-1161 48 -68 71 -87 101 -87 12 0 240 183 349 281 5 5 -27 56 -76 121 -282
370 -696 736 -1250 1104 -111 74 -205 134 -209 134 -4 0 -71 -57 -148 -127z"/>
<path d="M4830 5097 c-131 -176 -131 -173 -4 -263 132 -94 288 -229 422 -368
91 -94 117 -116 140 -116 24 0 47 21 148 140 65 77 121 145 123 151 9 27 -302
314 -469 431 -85 60 -241 158 -251 158 -5 0 -54 -60 -109 -133z"/>
<path d="M11552 3267 c-56 -56 -82 -90 -82 -106 0 -15 29 -54 86 -114 341
-362 499 -751 481 -1183 -15 -352 -140 -665 -379 -949 -42 -49 -101 -115 -132
-145 -81 -78 -79 -93 27 -198 l83 -83 112 115 c277 287 451 602 521 947 108
527 -13 1049 -343 1486 -70 93 -270 313 -285 313 -3 0 -43 -37 -89 -83z"/>
<path d="M4117 3282 c-16 -17 -17 -97 -17 -945 0 -1005 2 -1060 56 -1243 67
-233 191 -360 409 -420 90 -25 383 -31 501 -10 436 75 705 389 819 951 14 70
25 128 23 130 -2 1 -70 32 -151 69 -146 66 -172 71 -196 42 -6 -7 -20 -65 -31
-128 -69 -400 -215 -628 -442 -693 -77 -22 -295 -22 -398 -1 -108 23 -157 57
-198 136 -61 120 -61 127 -62 1156 l0 931 -23 21 c-21 20 -34 22 -149 22 -108
0 -127 -2 -141 -18z"/>
<path d="M6547 3282 c-16 -17 -17 -97 -17 -945 0 -1005 2 -1060 56 -1243 67
-231 182 -352 394 -415 104 -30 382 -38 517 -15 435 75 704 389 818 952 14 69
25 127 23 129 -2 1 -70 32 -152 69 -134 61 -151 66 -177 56 -22 -9 -29 -20
-34 -53 -71 -469 -217 -717 -460 -782 -80 -21 -294 -22 -395 -1 -108 23 -157
57 -198 136 -61 120 -61 127 -62 1156 l0 931 -23 21 c-21 20 -34 22 -149 22
-108 0 -127 -2 -141 -18z"/>
<path d="M13953 3192 c-18 -16 -23 -36 -33 -153 -79 -909 -480 -1590 -1194
-2029 -142 -87 -142 -86 -4 -258 55 -70 104 -131 108 -135 18 -20 324 196 493
347 312 279 616 730 786 1168 100 259 178 609 197 888 l6 95 -153 44 c-85 24
-161 45 -169 47 -8 2 -25 -4 -37 -14z"/>
<path d="M5032 3124 c-22 -15 -22 -18 -22 -270 0 -312 -9 -293 146 -294 151 0
144 -14 144 291 0 303 7 289 -146 289 -74 0 -105 -4 -122 -16z"/>
<path d="M5373 3121 c-23 -19 -23 -22 -23 -268 0 -308 -8 -293 146 -293 151 0
144 -14 144 291 0 244 0 246 -23 267 -21 20 -34 22 -123 22 -82 -1 -103 -4
-121 -19z"/>
<path d="M9121 3040 c-136 -36 -230 -110 -286 -224 -44 -90 -55 -162 -55 -363
l0 -163 -133 0 c-171 0 -167 3 -167 -142 0 -141 -3 -138 168 -138 l132 0 0
-583 0 -584 23 -21 c21 -20 34 -22 149 -22 108 0 127 2 141 18 15 17 17 76 19
603 l3 584 194 3 c164 2 198 5 213 19 15 14 18 33 18 123 0 90 -3 109 -18 123
-15 14 -49 17 -213 19 l-194 3 0 177 c0 163 2 179 21 204 45 61 66 69 182 69
100 0 113 -2 195 -36 86 -36 90 -36 118 -20 l29 16 0 141 0 141 -75 22 c-179
53 -337 64 -464 31z"/>
<path d="M10837 1132 c-14 -15 -17 -42 -17 -159 0 -158 5 -169 72 -175 l36 -3
-53 -140 c-51 -135 -52 -141 -37 -167 16 -27 20 -28 95 -28 l78 0 90 185 89
186 0 143 c0 186 11 176 -187 176 -133 0 -152 -2 -166 -18z"/>
<path d="M9572 657 c-19 -20 -22 -35 -22 -99 0 -60 4 -78 18 -91 17 -15 67
-17 509 -17 571 0 523 -10 523 112 0 65 -3 77 -23 96 -23 22 -24 22 -503 22
l-481 0 -21 -23z"/>
</g>
</svg>
