<?xml version="1.0" standalone="no"?>
<!DOCTYPE svg PUBLIC "-//W3C//DTD SVG 20010904//EN"
 "http://www.w3.org/TR/2001/REC-SVG-20010904/DTD/svg10.dtd">
<svg version="1.0" xmlns="http://www.w3.org/2000/svg"
 width="1000.000000pt" height="1000.000000pt" viewBox="0 0 1000.000000 1000.000000"
 preserveAspectRatio="xMidYMid meet">
<metadata>
Created by potrace 1.14, written by Peter Selinger 2001-2017
</metadata>
<g transform="translate(0.000000,1000.000000) scale(0.100000,-0.100000)"
fill="#000000" stroke="none">
<path d="M4468 8090 c-26 -4 -46 -16 -71 -45 -19 -22 -175 -204 -347 -405
-172 -201 -324 -379 -339 -395 -14 -17 -51 -59 -81 -95 -30 -36 -66 -78 -81
-95 -46 -51 -269 -314 -269 -317 0 -2 28 -3 62 -4 72 0 53 -16 233 196 54 63
121 142 150 175 29 33 71 83 95 110 84 100 321 377 359 420 189 218 381 448
377 453 -8 7 -42 8 -88 2z"/>
<path d="M4740 7313 l0 -483 33 0 32 0 0 480 c0 264 -2 480 -5 481 -3 1 -17 2
-32 3 l-28 3 0 -484z"/>
<path d="M4998 7114 l-37 -34 93 -93 c50 -50 113 -121 140 -157 27 -36 51 -64
55 -62 16 8 71 63 71 71 0 23 -146 188 -231 261 l-55 49 -36 -35z"/>
<path d="M3175 6503 c-61 -16 -108 -80 -107 -145 1 -73 55 -128 132 -136 149
-14 213 170 89 259 -26 20 -83 30 -114 22z m99 -79 c37 -37 35 -86 -3 -125
-34 -34 -64 -37 -108 -9 -42 25 -53 75 -27 119 19 32 31 38 80 40 21 1 40 -7
58 -25z"/>
<path d="M2829 6398 c-100 -127 -151 -225 -195 -373 -37 -128 -42 -329 -9
-460 42 -167 92 -272 191 -396 50 -62 56 -67 98 -70 88 -7 91 -1 29 66 -167
180 -246 398 -237 652 8 198 86 394 218 546 l77 87 -65 0 -66 0 -41 -52z"/>
<path d="M6220 6280 l0 -55 321 2 321 3 -16 -22 c-228 -315 -359 -607 -410
-913 -4 -22 -9 -48 -12 -57 -5 -16 3 -18 65 -18 39 0 71 2 71 4 0 44 60 302
90 391 69 201 222 479 326 595 18 20 22 35 21 75 l-2 50 -387 0 -388 0 0 -55z"/>
<path d="M5052 5540 c-141 -64 -178 -244 -71 -351 46 -46 73 -58 145 -65 92
-10 187 52 217 140 17 51 14 134 -8 176 -52 101 -181 146 -283 100z m122 -69
c10 -1 36 -18 57 -40 34 -34 39 -44 39 -86 0 -59 -24 -100 -72 -124 -124 -61
-247 80 -171 196 19 28 86 63 112 58 9 -2 24 -4 35 -4z"/>
<path d="M3901 5470 l-33 -28 88 -89 c49 -48 113 -121 143 -160 l54 -73 32 28
c18 15 36 33 39 41 4 8 -12 38 -36 70 -50 67 -225 241 -241 241 -7 -1 -27 -14
-46 -30z"/>
<path d="M8772 4603 c-36 -253 -142 -544 -262 -717 -45 -65 -145 -175 -179
-195 -10 -6 -5 -19 23 -55 l36 -47 52 53 c112 112 178 205 248 346 73 147 116
282 182 569 l24 103 -45 15 c-24 8 -50 15 -56 15 -6 0 -16 -37 -23 -87z"/>
<path d="M9136 4647 l-25 -33 103 -107 104 -106 26 38 c14 20 26 42 26 47 0
12 -162 169 -189 184 -17 8 -24 5 -45 -23z"/>
<path d="M2840 4034 c0 -264 2 -483 5 -486 3 -2 18 -3 34 0 l29 4 1 482 0 481
-34 0 -35 0 0 -481z"/>
<path d="M5715 4489 l-40 -29 95 -98 c157 -159 346 -410 411 -544 l22 -46 53
35 c31 21 51 40 47 47 -38 67 -169 253 -238 338 -86 107 -292 329 -304 327 -3
0 -24 -14 -46 -30z"/>
<path d="M9600 4413 c-17 -94 -75 -282 -109 -358 -73 -160 -179 -275 -318
-344 -34 -17 -69 -31 -77 -31 -25 0 -28 -18 -11 -70 l16 -50 72 37 c270 135
401 316 492 678 l32 129 -36 29 c-20 16 -39 33 -42 39 -4 5 -12 -21 -19 -59z"/>
<path d="M9072 4300 c-12 -16 -22 -31 -22 -32 0 -2 47 -51 103 -110 l104 -106
26 34 c15 18 27 38 27 44 0 20 -190 200 -212 200 -2 0 -14 -13 -26 -30z"/>
<path d="M4574 4003 c-34 -6 -63 -45 -72 -94 -11 -60 -5 -81 20 -77 16 2 22
12 25 38 4 44 21 61 65 65 28 3 45 -5 97 -46 58 -45 84 -55 131 -50 51 6 84
53 82 117 -2 45 -8 53 -32 47 -13 -4 -18 -12 -16 -27 4 -23 -10 -56 -28 -68
-22 -15 -72 -7 -109 17 -20 14 -37 30 -37 34 0 10 -81 52 -96 50 -5 -1 -19 -4
-30 -6z"/>
<path d="M3097 3832 l-36 -37 71 -65 c62 -56 149 -156 202 -231 l15 -22 41 40
41 40 -47 59 c-60 76 -125 143 -195 204 l-56 49 -36 -37z"/>
<path d="M7170 3165 c0 -2 23 -28 51 -57 262 -274 316 -720 127 -1058 -31 -57
-78 -119 -135 -180 -18 -19 -32 -39 -33 -45 0 -5 25 -9 57 -8 63 2 67 5 143
107 166 227 226 538 155 810 -36 136 -97 257 -191 374 l-49 62 -62 0 c-35 0
-63 -2 -63 -5z"/>
<path d="M3392 3102 l-32 -18 56 -79 c31 -44 64 -97 75 -117 l19 -37 35 20
c19 12 35 24 35 29 0 11 -141 220 -148 220 -4 -1 -22 -9 -40 -18z"/>
<path d="M4858 3099 l-27 -20 45 -59 c24 -32 57 -83 73 -113 l28 -54 37 19
c20 10 36 21 36 25 0 19 -120 199 -144 215 -15 11 -18 10 -48 -13z"/>
<path d="M5840 3098 c-25 -6 -46 -11 -48 -13 -2 -2 1 -20 7 -42 6 -21 22 -90
35 -153 14 -63 38 -158 54 -211 l28 -96 -45 -24 c-173 -90 -270 -206 -272
-326 -5 -215 151 -302 534 -297 97 1 260 12 302 19 6 1 29 3 53 3 l43 2 -3 58
c-3 66 10 63 -148 37 -125 -20 -386 -23 -480 -6 -85 16 -146 47 -171 88 -25
41 -27 118 -4 167 41 86 185 178 410 261 100 37 270 92 309 99 59 12 65 29 30
98 l-14 27 -98 -35 c-53 -19 -153 -56 -220 -81 -98 -36 -126 -43 -132 -33 -22
35 -97 353 -102 432 -2 21 -7 37 -13 37 -5 -1 -30 -6 -55 -11z"/>
<path d="M2734 2937 c-1 -72 -3 -276 -5 -452 -3 -280 -1 -327 13 -376 44 -142
156 -213 338 -212 257 2 421 119 526 376 53 132 53 136 -6 174 l-50 31 -6 -26
c-72 -331 -281 -503 -539 -445 -74 17 -121 52 -149 112 -20 43 -21 61 -20 286
0 259 11 580 20 633 l5 32 -63 0 -63 0 -1 -133z"/>
<path d="M4203 2902 c-8 -787 -8 -744 11 -797 52 -143 156 -207 336 -208 201
-1 355 82 461 246 38 58 110 228 108 257 0 8 -22 29 -50 47 l-49 31 -6 -26
c-28 -141 -94 -271 -174 -346 -81 -75 -170 -109 -292 -108 -131 1 -215 64
-237 177 -13 67 -3 715 13 848 l6 47 -62 0 -63 0 -2 -168z"/>
<path d="M3242 3025 c-42 -22 -44 -30 -15 -67 16 -19 48 -69 73 -111 25 -43
47 -77 50 -77 3 0 20 9 38 20 l34 21 -28 47 c-32 55 -111 169 -122 175 -4 2
-18 -2 -30 -8z"/>
<path d="M4715 3026 c-11 -6 -25 -14 -32 -19 -8 -5 6 -34 48 -96 32 -49 59
-93 59 -98 0 -4 7 -16 14 -26 14 -18 16 -18 48 -1 18 9 34 18 36 19 9 8 -125
217 -146 228 -4 2 -16 -1 -27 -7z"/>
</g>
</svg>
