<?xml version="1.0" standalone="no"?>
<!DOCTYPE svg PUBLIC "-//W3C//DTD SVG 20010904//EN"
 "http://www.w3.org/TR/2001/REC-SVG-20010904/DTD/svg10.dtd">
<svg version="1.0" xmlns="http://www.w3.org/2000/svg"
 width="700.000000pt" height="700.000000pt" viewBox="0 0 700.000000 700.000000"
 preserveAspectRatio="xMidYMid meet">
<metadata>
Created by potrace 1.11, written by Peter Selinger 2001-2013
</metadata>
<g transform="translate(0.000000,700.000000) scale(0.100000,-0.100000)"
fill="#000000" stroke="none">
<path d="M4823 5945 c-16 -12 -18 -31 -19 -187 -1 -97 3 -183 9 -195 14 -32
81 -35 105 -5 18 24 17 365 -2 381 -21 18 -72 21 -93 6z"/>
<path d="M4122 5654 c-33 -22 -45 -50 -32 -73 5 -11 64 -74 130 -139 97 -96
126 -120 146 -117 28 3 64 40 64 66 0 19 -254 279 -273 279 -7 0 -23 -7 -35
-16z"/>
<path d="M5560 5660 c-32 -20 -243 -237 -251 -259 -8 -20 -5 -29 18 -53 14
-15 35 -28 45 -28 24 0 278 254 278 278 0 20 -42 65 -64 68 -7 1 -19 -2 -26
-6z"/>
<path d="M4704 5426 c-187 -60 -326 -200 -380 -384 -29 -97 -27 -245 3 -334
96 -280 395 -445 675 -373 199 52 370 222 414 411 13 57 16 190 5 249 -36 200
-215 387 -420 439 -86 22 -213 18 -297 -8z"/>
<path d="M2306 5095 c-84 -30 -10 67 -788 -1035 -270 -382 -711 -1006 -781
-1105 -31 -44 -61 -87 -67 -95 -6 -8 -46 -65 -89 -127 -98 -137 -111 -163
-118 -223 -10 -91 49 -173 142 -199 30 -9 784 -11 2920 -9 l2880 3 46 32 c77
53 103 147 67 233 -8 19 -75 114 -148 210 -73 96 -171 227 -219 290 -47 63
-90 120 -96 126 -5 6 -70 91 -143 188 -74 97 -148 188 -166 201 -101 77 -238
63 -331 -33 -22 -23 -110 -120 -195 -216 -85 -96 -159 -173 -165 -172 -9 2
-95 106 -347 421 -202 252 -225 270 -343 269 -114 0 -125 -8 -355 -254 -74
-80 -162 -173 -196 -209 l-61 -64 -145 204 c-187 264 -255 360 -298 423 -20
28 -101 143 -181 256 -80 113 -161 228 -181 255 -424 604 -432 613 -512 634
-57 14 -82 13 -130 -4z"/>
<path d="M3814 4936 c-21 -16 -26 -65 -9 -92 12 -19 23 -20 195 -21 167 -1
182 0 199 18 23 24 20 78 -4 95 -24 17 -357 17 -381 0z"/>
<path d="M5548 4942 c-36 -7 -40 -92 -5 -114 7 -4 91 -7 187 -7 144 1 178 4
193 16 22 21 22 68 -2 92 -17 17 -35 19 -187 18 -93 -1 -177 -3 -186 -5z"/>
<path d="M4343 4444 c-21 -9 -257 -253 -259 -269 -1 -8 9 -29 23 -46 21 -24
31 -29 51 -24 33 8 272 249 272 274 0 20 -46 71 -64 70 -6 0 -16 -3 -23 -5z"/>
<path d="M5355 4440 c-12 -4 -26 -15 -33 -23 -32 -38 -24 -53 108 -185 77 -77
136 -129 147 -128 28 2 61 29 68 58 6 23 -7 40 -125 157 -72 72 -134 131 -138
130 -4 0 -16 -4 -27 -9z"/>
<path d="M4840 4228 c-13 -5 -27 -14 -31 -19 -3 -6 -6 -92 -5 -191 1 -166 3
-181 20 -194 28 -20 63 -17 86 6 18 18 20 33 20 193 -1 119 -4 177 -13 188
-16 21 -47 28 -77 17z"/>
<path d="M510 2112 c-21 -6 -50 -44 -50 -64 0 -9 10 -28 23 -42 18 -21 34 -27
81 -30 81 -6 147 -42 241 -131 161 -153 239 -190 395 -190 150 1 233 39 370
171 131 126 174 148 290 149 116 0 165 -24 297 -147 152 -141 243 -181 399
-174 136 6 211 45 365 190 47 44 106 89 135 102 72 34 156 41 229 19 72 -20
106 -44 198 -132 129 -124 216 -170 342 -180 165 -12 259 30 440 200 101 95
158 121 265 122 109 0 165 -26 270 -126 168 -160 234 -193 400 -193 160 0 220
30 398 196 107 100 151 120 262 122 74 1 92 -3 142 -27 32 -16 90 -59 130 -98
141 -136 229 -184 353 -196 49 -4 64 -2 83 13 59 49 22 124 -61 124 -85 0
-156 39 -270 149 -127 122 -216 167 -347 175 -145 8 -260 -41 -395 -169 -141
-134 -197 -161 -322 -153 -106 7 -152 34 -302 178 -110 107 -209 145 -361 142
-134 -2 -214 -41 -355 -174 -134 -126 -198 -155 -322 -146 -83 6 -153 43 -248
134 -144 137 -241 186 -374 187 -90 1 -139 -8 -202 -36 -67 -30 -93 -51 -201
-152 -119 -112 -158 -130 -278 -130 -86 0 -100 3 -147 29 -29 16 -87 62 -130
102 -152 144 -241 187 -388 187 -147 0 -239 -44 -390 -187 -44 -41 -102 -88
-130 -103 -45 -25 -60 -28 -145 -28 -129 0 -147 9 -293 143 -103 95 -171 140
-242 158 -61 16 -131 23 -155 16z"/>
<path d="M486 1731 c-24 -26 -25 -73 -3 -96 10 -10 41 -19 75 -22 83 -9 150
-42 228 -115 112 -104 117 -109 159 -137 78 -53 157 -74 277 -73 125 2 219 50
363 187 109 103 176 136 278 136 100 0 175 -35 268 -124 166 -159 244 -199
393 -199 147 0 238 40 371 165 150 141 194 162 325 155 95 -4 145 -29 237
-115 181 -172 255 -207 426 -205 73 1 166 29 227 67 20 12 71 56 114 96 142
133 194 160 306 160 112 0 163 -26 290 -146 143 -136 234 -178 377 -177 149 1
240 46 398 197 91 87 168 125 256 126 121 2 167 -21 313 -156 141 -131 244
-176 378 -166 28 2 58 41 53 70 -7 41 -35 59 -100 66 -83 10 -153 50 -260 151
-140 132 -227 173 -368 172 -152 -1 -228 -36 -379 -176 -61 -57 -124 -105
-154 -119 -94 -43 -231 -34 -312 19 -20 14 -71 57 -112 97 -138 131 -216 170
-355 178 -145 9 -242 -30 -368 -146 -39 -36 -85 -78 -101 -93 -17 -15 -55 -40
-85 -54 -46 -22 -70 -27 -136 -27 -111 -1 -162 25 -292 145 -156 144 -255 187
-413 175 -133 -10 -201 -45 -335 -171 -49 -47 -117 -100 -150 -117 -54 -29
-68 -33 -145 -33 -77 0 -91 3 -145 33 -33 18 -100 70 -148 116 -134 128 -222
170 -362 174 -80 2 -168 -18 -234 -55 -25 -13 -93 -68 -151 -121 -60 -54 -127
-106 -156 -119 -95 -44 -233 -35 -313 20 -21 15 -72 58 -112 97 -130 123 -214
167 -339 176 -57 5 -67 3 -84 -16z"/>
<path d="M504 1375 c-41 -17 -53 -59 -26 -94 16 -21 31 -27 81 -33 86 -10 153
-46 246 -134 149 -141 236 -185 375 -190 150 -6 240 34 395 177 128 118 180
144 290 144 108 -1 165 -28 274 -131 156 -147 228 -184 373 -189 94 -4 137 4
213 40 63 29 91 51 195 148 94 87 160 124 241 133 116 13 201 -25 332 -151
137 -132 236 -176 389 -171 129 4 226 49 339 158 140 136 200 167 319 164 101
-3 161 -33 270 -136 147 -140 224 -179 364 -186 153 -7 255 38 403 179 126
119 186 148 308 143 86 -3 152 -38 259 -138 142 -132 218 -174 342 -184 58 -5
65 -4 89 20 32 32 32 60 0 91 -18 19 -35 25 -67 26 -24 0 -51 2 -60 4 -39 7
-107 50 -163 101 -209 192 -289 229 -467 217 -115 -8 -205 -57 -343 -187 -44
-41 -102 -88 -130 -103 -45 -25 -60 -28 -145 -28 -130 0 -156 13 -301 150
-143 134 -225 170 -389 168 -131 -2 -223 -48 -358 -177 -131 -125 -190 -152
-315 -144 -94 6 -145 34 -252 134 -159 150 -240 188 -400 187 -60 0 -96 -6
-154 -27 -67 -25 -104 -51 -209 -148 -134 -125 -171 -143 -292 -143 -120 0
-156 17 -276 129 -159 149 -243 190 -389 189 -148 0 -240 -44 -390 -186 -44
-42 -102 -89 -130 -104 -45 -25 -60 -28 -145 -28 -121 0 -162 19 -280 130 -47
45 -106 96 -133 114 -88 60 -223 92 -283 66z"/>
</g>
</svg>
